<?xml version="1.0" encoding="UTF-8" standalone="no"?>
<!-- Created with Inkscape (http://www.inkscape.org/) -->

<svg
   width="168.99983"
   height="169"
   viewBox="0 0 44.715 44.715044"
   version="1.1"
   id="svg7483"
   inkscape:version="1.3-dev (f3df6cc7, 2022-08-24)"
   sodipodi:docname="Allison_Transmission_logo.svg"
   xmlns:inkscape="http://www.inkscape.org/namespaces/inkscape"
   xmlns:sodipodi="http://sodipodi.sourceforge.net/DTD/sodipodi-0.dtd"
   xmlns="http://www.w3.org/2000/svg"
   xmlns:svg="http://www.w3.org/2000/svg"
   xmlns:rdf="http://www.w3.org/1999/02/22-rdf-syntax-ns#"
   xmlns:cc="http://creativecommons.org/ns#"
   xmlns:dc="http://purl.org/dc/elements/1.1/">
  <defs
     id="defs7477" />
  <sodipodi:namedview
     id="base"
     pagecolor="#ffffff"
     bordercolor="#666666"
     borderopacity="1.0"
     inkscape:pageopacity="0.0"
     inkscape:pageshadow="2"
     inkscape:zoom="3.1005155"
     inkscape:cx="75.148794"
     inkscape:cy="79.825435"
     inkscape:document-units="mm"
     inkscape:current-layer="layer1"
     showgrid="false"
     fit-margin-top="0"
     fit-margin-left="0"
     fit-margin-right="0"
     fit-margin-bottom="0"
     units="px"
     inkscape:window-width="1920"
     inkscape:window-height="1177"
     inkscape:window-x="-8"
     inkscape:window-y="-8"
     inkscape:window-maximized="1"
     inkscape:showpageshadow="2"
     inkscape:pagecheckerboard="0"
     inkscape:deskcolor="#d1d1d1" />
  <metadata
     id="metadata7480">
    <rdf:RDF>
      <cc:Work
         rdf:about="">
        <dc:format>image/svg+xml</dc:format>
        <dc:type
           rdf:resource="http://purl.org/dc/dcmitype/StillImage" />
      </cc:Work>
    </rdf:RDF>
  </metadata>
  <g
     inkscape:label="Layer 1"
     inkscape:groupmode="layer"
     id="layer1"
     transform="translate(-80.584544,-160.53437)">
    <g
       id="g7641"
       transform="translate(0.13229146,16.252252)">
      <path
         d="m 91.075233,164.46215 c -0.01482,-0.0529 -0.05256,-0.0829 -0.101247,-0.0755 -0.04904,0.007 -0.08255,0.0522 -0.07514,0.10124 0.688973,4.42525 -4.878213,7.44044 -8.036633,3.2378 -0.1524,-0.20285 -0.425802,-0.29104 -0.698852,-0.29104 -0.545747,0 -0.98813,0.44485 -0.98813,0.99342 0,0.1718 0.04057,0.33302 0.116416,0.47378 0.928159,1.63653 2.676525,2.73967 4.68383,2.73967 2.977092,0 5.390798,-2.42711 5.390798,-5.42114 0,-0.63464 -0.0949,-1.14829 -0.291042,-1.75824"
         style="fill:#ed2724;fill-opacity:1;fill-rule:nonzero;stroke:none;stroke-width:0.352778"
         id="path6060"
         inkscape:connector-curvature="0" />
      <path
         d="m 87.199581,165.90772 c 0.139347,0.14993 0.371475,0.21766 0.591609,0.21766 0.502708,0 0.910872,-0.41028 0.910872,-0.91616 0,-0.18133 -0.06315,-0.34325 -0.138289,-0.49459 -1.295753,-2.34845 -5.601759,-1.96004 -5.569303,1.70497 3.52e-4,0.0459 0.03669,0.0829 0.08255,0.0829 0.03598,0 0.06738,-0.0233 0.07796,-0.0561 0.613128,-1.88877 2.825045,-2.09268 4.044597,-0.53869"
         style="fill:#ed2724;fill-opacity:1;fill-rule:nonzero;stroke:none;stroke-width:0.352778"
         id="path6072"
         inkscape:connector-curvature="0" />
      <g
         style="fill:#135eab;fill-opacity:1"
         id="g7615">
        <path
           inkscape:connector-curvature="0"
           id="path6064"
           style="fill:#135eab;fill-opacity:1;fill-rule:nonzero;stroke:none;stroke-width:0.352778"
           d="m 80.875581,167.97832 c 0.01834,0.0483 0.05256,0.0829 0.101247,0.0755 0.04868,-0.007 0.08255,-0.0522 0.0755,-0.10124 -0.689328,-4.42525 4.877858,-7.44044 8.036277,-3.2378 0.1524,0.20285 0.425803,0.29104 0.698853,0.29104 0.545747,0 0.988131,-0.44485 0.988131,-0.99377 0,-0.17145 -0.04057,-0.33267 -0.11677,-0.47343 -0.927806,-1.63653 -2.676172,-2.73967 -4.683478,-2.73967 -2.977091,0 -5.390797,2.42711 -5.390797,5.42114 0,0.63464 0.08361,1.15146 0.291042,1.75824" />
        <path
           inkscape:connector-curvature="0"
           id="path6068"
           style="fill:#135eab;fill-opacity:1;fill-rule:nonzero;stroke:none;stroke-width:0.352778"
           d="m 84.751339,166.53271 c -0.139348,-0.14993 -0.371475,-0.21731 -0.591609,-0.21731 -0.503061,0 -0.910872,0.40993 -0.910872,0.91581 0,0.18133 0.06279,0.34325 0.138289,0.49459 1.295753,2.34845 5.601758,1.96004 5.569303,-1.70462 -3.44e-4,-0.0459 -0.03669,-0.0832 -0.08255,-0.0832 -0.03634,0 -0.06738,0.0236 -0.07796,0.0561 -0.613128,1.88877 -2.825045,2.09268 -4.044597,0.53869" />
        <path
           inkscape:connector-curvature="0"
           id="path6076"
           style="fill:#135eab;fill-opacity:1;fill-rule:nonzero;stroke:none;stroke-width:0.352778"
           d="m 103.04682,166.51101 v -4.54413 4.54413 c 0,0.0656 -0.0529,0.11889 -0.11854,0.11889 l -0.42721,-3.7e-4 c -0.0653,0 -0.12065,0.0533 -0.12065,0.11924 v 0.25753 c 0,0.066 0.0533,0.11924 0.11853,0.11924 l 2.64478,6.9e-4 c 0.0653,0 0.11818,-0.0533 0.11818,-0.11923 v -0.25787 c 0,-0.066 -0.0529,-0.11923 -0.11818,-0.11923 l -0.49636,6.9e-4 c -0.0653,0 -0.11818,-0.0512 -0.11818,-0.11712 l -0.001,-4.57623 c 0,-0.34925 -0.28152,-0.63395 -0.62865,-0.63395 l -1.43334,7.1e-4 c -0.0653,0 -0.11818,0.0533 -0.11818,0.11889 v 0.25717 c 0,0.0656 0.0529,0.11889 0.11818,0.11889 l 0.41416,0.001 c 0.0917,0 0.16581,0.0744 0.16581,0.16686" />
        <path
           inkscape:connector-curvature="0"
           id="path6080"
           style="fill:#135eab;fill-opacity:1;fill-rule:nonzero;stroke:none;stroke-width:0.352778"
           d="m 106.12258,166.51101 v -3.35351 3.35351 c 0,0.0656 -0.0529,0.11889 -0.11853,0.11889 l -0.42722,-3.7e-4 c -0.0653,0 -0.12065,0.0533 -0.12065,0.11924 v 0.25753 c 0,0.066 0.0529,0.11924 0.11854,0.11924 l 2.64477,6.9e-4 c 0.0653,0 0.11818,-0.0533 0.11818,-0.11923 v -0.25787 c 0,-0.066 -0.0529,-0.11923 -0.11818,-0.11923 l -0.49636,6.9e-4 c -0.0653,0 -0.11853,-0.0512 -0.11853,-0.11712 l -0.001,-3.38561 c 0,-0.3489 -0.28116,-0.63359 -0.6283,-0.63359 l -1.43336,3.6e-4 c -0.0653,0 -0.11818,0.0536 -0.11818,0.11923 v 0.25718 c 0,0.066 0.0529,0.11924 0.11818,0.11924 l 0.41416,7e-4 c 0.0914,0 0.16546,0.0748 0.16546,0.16651" />
        <path
           inkscape:connector-curvature="0"
           id="path6084"
           style="fill:#135eab;fill-opacity:1;fill-rule:nonzero;stroke:none;stroke-width:0.352778"
           d="m 118.53933,163.1575 c 0,-0.0917 -0.0741,-0.16651 -0.1658,-0.16651 l -0.41416,-7.1e-4 c -0.0653,0 -0.11818,-0.0533 -0.11818,-0.11924 v -0.25717 c 0,-0.0656 0.0529,-0.11924 0.11818,-0.11924 l 1.43333,-3.5e-4 c 0.25718,0 0.47837,0.15628 0.57574,0.37959 0.0204,0.0462 0.0434,0.0631 0.0967,0.0212 0.37641,-0.33231 0.74506,-0.44838 1.2887,-0.44838 0.77117,0 1.46367,0.37395 1.46367,1.24249 l 0.001,2.82433 c 0,0.066 0.0533,0.11713 0.11853,0.11713 l 0.49636,-7.1e-4 c 0.0653,0 0.11818,0.0533 0.11818,0.11924 v 0.25788 c 0,0.066 -0.0529,0.11924 -0.11818,0.11924 l -2.51319,-7.2e-4 c -0.0656,0 -0.11853,-0.0533 -0.11853,-0.11922 v -0.2579 c 0,-0.0656 0.0554,-0.11888 0.12065,-0.11888 l 0.29563,3.5e-4 c 0.0656,0 0.11853,-0.0533 0.11853,-0.11888 l -7.9e-4,-2.71745 c 0,-0.36477 -0.29704,-0.6604 -0.6597,-0.6604 -0.36265,0 -0.65546,0.29563 -0.65546,0.6604 l 0.002,2.71991 c 0,0.066 0.0529,0.11713 0.11818,0.11713 l 0.36477,-7.2e-4 c 0.0653,0 0.11854,0.0533 0.11854,0.11924 v 0.25788 c 0,0.066 -0.0533,0.11924 -0.11854,0.11924 l -2.51319,-7.1e-4 c -0.0656,0 -0.11853,-0.0533 -0.11853,-0.11923 v -0.25789 c 0,-0.0656 0.0554,-0.11888 0.12065,-0.11888 l 0.42721,3.4e-4 c 0.0653,0 0.11854,-0.0533 0.11854,-0.11888 v -3.35348 3.35351" />
        <path
           inkscape:connector-curvature="0"
           id="path6088"
           style="fill:#135eab;fill-opacity:1;fill-rule:nonzero;stroke:none;stroke-width:0.352778"
           d="m 112.7009,165.58747 c 0,-0.86854 -0.71755,-1.16381 -1.01988,-1.27035 -0.38629,-0.13582 -0.68228,-0.20179 -1.13489,-0.30127 -0.51259,-0.11219 -0.55915,-0.39688 -0.55915,-0.55387 0,-0.15698 0.0166,-0.57291 0.8061,-0.57291 0.78916,0 0.83079,0.45226 0.82832,0.71332 v 0.09 c 0,0.066 0.0533,0.11924 0.11853,0.11924 h 0.54645 c 0.0653,0 0.11819,-0.0533 0.11819,-0.11924 l 2.6e-4,-0.98637 c 0,-0.0536 -0.0342,-0.10301 -0.084,-0.11395 -1.01,-0.22154 -1.74166,-0.23353 -2.51918,-0.10583 -1.5868,0.26 -1.62384,2.25954 -0.47273,2.60879 0.51823,0.15664 0.74013,0.18062 1.18428,0.29598 0.64558,0.16722 0.63359,0.66534 0.58385,0.85796 -0.0575,0.22331 -0.23601,0.50659 -0.93698,0.50659 -0.78881,0 -0.82727,-0.50659 -0.82762,-0.95003 v -0.20885 c 0,-0.066 -0.0533,-0.11924 -0.11853,-0.11924 h -0.60537 c -0.0653,0 -0.11818,0.0533 -0.11818,0.11924 l -2.6e-4,1.34197 c 0,0.0536 0.0346,0.10301 0.084,0.11395 1.01,0.22189 1.79634,0.24341 2.57245,0.10618 0.8883,-0.15734 1.55434,-0.74436 1.55434,-1.57127" />
        <path
           inkscape:connector-curvature="0"
           id="path6092"
           style="fill:#135eab;fill-opacity:1;fill-rule:nonzero;stroke:none;stroke-width:0.352778"
           d="m 99.978356,161.96674 c 0,-0.0921 -0.07408,-0.16686 -0.165805,-0.16686 l -0.414161,-7.1e-4 c -0.06526,0 -0.118181,-0.0533 -0.118181,-0.11889 v -0.25752 c 0,-0.0656 0.05292,-0.11889 0.118181,-0.11889 l 1.43334,-3.5e-4 c 0.34713,0 0.62829,0.28434 0.62829,0.63359 l 0.001,4.57623 c 0,0.0663 0.0533,0.11712 0.11854,0.11712 l 0.49635,-3.4e-4 c 0.0653,0 0.11819,0.0533 0.11819,0.11889 v 0.25823 c 0,0.0656 -0.0529,0.11888 -0.11819,0.11888 l -5.663136,-3.4e-4 c -0.06526,0 -0.118181,-0.0536 -0.118181,-0.11924 v -0.25788 c 0,-0.066 0.05539,-0.11888 0.12065,-0.11888 l 0.783872,-7.2e-4 c 0.06456,0 0.117122,-0.0533 0.117122,-0.11818 0,-0.0127 -0.0021,-0.0254 -0.006,-0.0374 l -0.49141,-1.5854 c -0.0092,-0.0303 -0.0374,-0.0529 -0.07091,-0.0529 h -1.567033 c -0.03281,0 -0.06209,0.0247 -0.07161,0.0543 l -0.466019,1.59491 c -0.0014,0.008 -0.0021,0.0159 -0.0021,0.024 0,0.0656 0.05433,0.12171 0.119592,0.12171 h 0.77717 c 0.06526,0 0.11818,0.0533 0.11818,0.11889 v 0.25823 c 0,0.0656 -0.05292,0.11888 -0.11818,0.11888 l -2.644775,-3.4e-4 c -0.06562,0 -0.118534,-0.0536 -0.118534,-0.11924 v -0.25789 c 0,-0.066 0.05574,-0.11888 0.121003,-0.11888 l 0.76588,-3.7e-4 c 0.06809,0 0.127,-0.0413 0.153106,-0.10019 l 1.492578,-4.94452 c 0.04939,-0.15698 0.140053,-0.28116 0.320675,-0.28116 h 1.458736 c 0.340431,0 0.52317,0.25223 0.621947,0.54575 l 1.513417,4.70146 c 0.01587,0.0459 0.06068,0.0794 0.111478,0.0794 h 0.52705 c 0.06526,0 0.118533,-0.0536 0.118533,-0.11924 v -4.54413 4.54413 m -3.967688,-4.4249 c -0.0095,-0.03 -0.02328,-0.0568 -0.0568,-0.0568 -0.03246,0 -0.04833,0.0286 -0.05609,0.055 l -0.572558,1.91347 c -0.0028,0.008 -0.0046,0.0162 -0.0046,0.0254 0,0.0413 0.01729,0.0607 0.05821,0.0607 h 1.18992 c 0.04128,0 0.05433,-0.0275 0.05433,-0.0561 0,-0.006 -3.44e-4,-0.0124 -0.0018,-0.018 z" />
        <path
           inkscape:connector-curvature="0"
           id="path6096"
           style="fill:#135eab;fill-opacity:1;fill-rule:nonzero;stroke:none;stroke-width:0.352778"
           d="m 113.00528,164.80988 c 0,-1.59561 0.85971,-2.42958 2.44651,-2.42958 1.58679,0 2.44651,0.83397 2.44651,2.42958 0,1.58327 -0.87841,2.4317 -2.44651,2.42993 -1.5868,-0.002 -2.44651,-0.89746 -2.44651,-2.42993 m 1.53811,-0.0272 c 0,0.59196 0.0279,1.0287 0.097,1.40088 0.0635,0.41063 0.3302,0.53763 0.75035,0.53763 0.42157,0 0.68192,-0.11042 0.7546,-0.52952 0.0688,-0.37147 0.0808,-0.8188 0.0808,-1.40899 0,-0.52353 -0.0272,-1.05763 -0.0783,-1.41111 -0.0727,-0.41946 -0.33338,-0.52952 -0.75495,-0.52988 -0.4198,0 -0.68686,0.127 -0.75,0.53799 -0.0596,0.33302 -0.0995,0.8068 -0.0995,1.403" />
        <path
           inkscape:connector-curvature="0"
           id="path6100"
           style="fill:#135eab;fill-opacity:1;fill-rule:nonzero;stroke:none;stroke-width:0.352778"
           d="m 110.42446,171.02311 v -1.78329 1.78329 c 0,0.0349 -0.0282,0.0632 -0.0628,0.0632 l -0.22719,-3.6e-4 c -0.0349,0 -0.0642,0.0286 -0.0642,0.0635 v 0.13865 c 0,0.0349 0.0282,0.0631 0.0628,0.0631 l 1.40653,-0.001 c 0.0346,0 0.0628,-0.0282 0.0628,-0.0631 v -0.13723 c 0,-0.0349 -0.0282,-0.0635 -0.0628,-0.0635 l -0.26388,3.5e-4 c -0.0346,0 -0.0628,-0.0272 -0.0628,-0.0621 l -10e-4,-1.80058 c 0,-0.18556 -0.14958,-0.3369 -0.33408,-0.3369 h -0.76236 c -0.0346,0 -0.0628,0.0286 -0.0628,0.0635 v 0.14076 c 0,0.0349 0.0282,0.0635 0.0628,0.0635 l 0.22049,-0.004 c 0.0487,0 0.0878,0.0399 0.0878,0.0889" />
        <path
           inkscape:connector-curvature="0"
           id="path6104"
           style="fill:#135eab;fill-opacity:1;fill-rule:nonzero;stroke:none;stroke-width:0.352778"
           d="m 116.89818,171.0229 v -1.78329 1.78329 c 0,0.0349 -0.0282,0.0632 -0.0631,0.0632 l -0.22719,-3.7e-4 c -0.0346,0 -0.0642,0.0286 -0.0642,0.0635 v 0.13935 c 0,0.0346 0.0282,0.0632 0.0632,0.0632 l 1.40617,-0.002 c 0.0349,0 0.0635,-0.0282 0.0635,-0.0635 v -0.13687 c 0,-0.0353 -0.0286,-0.0635 -0.0635,-0.0635 l -0.26388,3.5e-4 c -0.0346,0 -0.0628,-0.0272 -0.0628,-0.0621 l -7.9e-4,-1.80058 c 0,-0.18556 -0.14958,-0.33725 -0.33408,-0.33725 l -0.76235,3.4e-4 c -0.0349,0 -0.0632,0.0286 -0.0632,0.0635 v 0.13688 c 0,0.0349 0.0282,0.0631 0.0632,0.0631 l 0.22013,3.4e-4 c 0.049,0 0.0882,0.0399 0.0882,0.0889" />
        <path
           inkscape:connector-curvature="0"
           id="path6108"
           style="fill:#135eab;fill-opacity:1;fill-rule:nonzero;stroke:none;stroke-width:0.352778"
           d="m 116.38753,170.52604 c 0,-0.46143 -0.38135,-0.61877 -0.54222,-0.67522 -0.20531,-0.0723 -0.36265,-0.10759 -0.60325,-0.16016 -0.2727,-0.0596 -0.29739,-0.21131 -0.29739,-0.29457 0,-0.0836 0.009,-0.3048 0.42827,-0.3048 0.41981,0 0.44203,0.2406 0.44097,0.37959 v 0.0476 c 0,0.0349 0.0279,0.0635 0.0628,0.0635 h 0.29034 c 0.0349,0 0.0631,-0.0286 0.0631,-0.0635 l 2.7e-4,-0.52423 c 0,-0.0286 -0.0184,-0.055 -0.0448,-0.0607 -0.53693,-0.11783 -0.92605,-0.12418 -1.3395,-0.0564 -0.84385,0.13829 -0.8636,1.20156 -0.25153,1.38712 0.27552,0.0832 0.3937,0.096 0.62971,0.15769 0.34325,0.0889 0.3369,0.35384 0.31044,0.45579 -0.0307,0.11889 -0.12559,0.26952 -0.49847,0.26952 -0.4191,0 -0.43921,-0.26952 -0.43957,-0.50518 v -0.11077 c 0,-0.0353 -0.0282,-0.0635 -0.0631,-0.0635 h -0.32173 c -0.0349,0 -0.0632,0.0282 -0.0632,0.0635 v 0.71332 c 0,0.0286 0.0184,0.0547 0.0444,0.0607 0.53728,0.11782 0.95532,0.12947 1.36807,0.0561 0.47202,-0.0833 0.82621,-0.39582 0.82621,-0.83538" />
        <path
           inkscape:connector-curvature="0"
           id="path6112"
           style="fill:#135eab;fill-opacity:1;fill-rule:nonzero;stroke:none;stroke-width:0.352778"
           d="m 113.95375,170.52604 c 0,-0.46143 -0.3817,-0.61877 -0.54186,-0.67522 -0.20567,-0.0723 -0.36301,-0.10759 -0.60361,-0.16016 -0.27269,-0.0596 -0.29739,-0.21131 -0.29739,-0.29457 0,-0.0836 0.009,-0.3048 0.42863,-0.3048 0.41945,0 0.44168,0.2406 0.44062,0.37959 v 0.0476 c 0,0.0349 0.0282,0.0635 0.0628,0.0635 h 0.29069 c 0.0346,0 0.0628,-0.0286 0.0628,-0.0635 l 2.6e-4,-0.52423 c 0,-0.0286 -0.0184,-0.055 -0.0452,-0.0607 -0.53657,-0.11783 -0.92604,-0.12418 -1.33914,-0.0564 -0.8442,0.13829 -0.8636,1.20156 -0.25153,1.38712 0.27552,0.0832 0.3937,0.096 0.6297,0.15769 0.34326,0.0889 0.33691,0.35384 0.31045,0.45579 -0.0307,0.11889 -0.12524,0.26952 -0.49812,0.26952 -0.41946,0 -0.43956,-0.26952 -0.43992,-0.50518 v -0.11077 c 0,-0.0353 -0.0282,-0.0635 -0.0631,-0.0635 h -0.32173 c -0.0349,0 -0.0631,0.0282 -0.0631,0.0635 v 0.71332 c 0,0.0286 0.0184,0.0547 0.0444,0.0607 0.53728,0.11782 0.95532,0.12947 1.36807,0.0561 0.47237,-0.0833 0.82621,-0.39582 0.82621,-0.83538" />
        <path
           inkscape:connector-curvature="0"
           id="path6116"
           style="fill:#135eab;fill-opacity:1;fill-rule:nonzero;stroke:none;stroke-width:0.352778"
           d="m 105.32791,170.52604 c 0,-0.46143 -0.38135,-0.61877 -0.54222,-0.67522 -0.20531,-0.0723 -0.363,-0.10759 -0.6036,-0.16016 -0.27234,-0.0596 -0.29704,-0.21131 -0.29704,-0.29457 0,-0.0836 0.008,-0.3048 0.42863,-0.3048 0.41945,0 0.44132,0.2406 0.44062,0.37959 v 0.0476 c 0,0.0349 0.0282,0.0635 0.0628,0.0635 h 0.29033 c 0.0349,0 0.0631,-0.0286 0.0631,-0.0635 l 3.5e-4,-0.52423 c 0,-0.0286 -0.0183,-0.055 -0.0452,-0.0607 -0.53693,-0.11783 -0.92569,-0.12418 -1.3395,-0.0564 -0.84349,0.13829 -0.86325,1.20156 -0.25118,1.38712 0.27552,0.0832 0.39335,0.096 0.62971,0.15769 0.34325,0.0889 0.3369,0.35384 0.31044,0.45579 -0.0307,0.11889 -0.12523,0.26952 -0.49847,0.26952 -0.41875,0 -0.43921,-0.26952 -0.43956,-0.50518 v -0.11077 c 0,-0.0353 -0.0282,-0.0635 -0.0631,-0.0635 h -0.32173 c -0.0349,0 -0.0632,0.0282 -0.0632,0.0635 v 0.71332 c 0,0.0286 0.0183,0.0547 0.0444,0.0607 0.53728,0.11782 0.95533,0.12947 1.36808,0.0561 0.47201,-0.0833 0.8262,-0.39582 0.8262,-0.83538" />
        <path
           inkscape:connector-curvature="0"
           id="path6120"
           style="fill:#135eab;fill-opacity:1;fill-rule:nonzero;stroke:none;stroke-width:0.352778"
           d="m 95.567611,169.23784 c 0,-0.0487 -0.03951,-0.0885 -0.08819,-0.0885 l -0.427919,3.7e-4 c -0.03457,0 -0.06279,-0.0282 -0.06279,-0.0635 l -3.44e-4,-0.52988 c 0,-0.049 -0.03951,-0.0889 -0.08819,-0.0889 h -0.2159 c -0.04833,0 -0.0889,0.0377 -0.0889,0.0864 v 2.47156 c 0,0.0353 0.02822,0.0621 0.06315,0.0621 l 0.263878,-3.4e-4 c 0.03492,0 0.06315,0.0286 0.06315,0.0635 v 0.13723 c 0,0.0349 -0.02822,0.0632 -0.06315,0.0632 h -1.538818 c -0.03457,0 -0.0628,-0.0286 -0.0628,-0.0635 v -0.13688 c 0,-0.0353 0.02928,-0.0635 0.06421,-0.0635 h 0.22613 c 0.03493,0 0.0635,-0.0279 0.0635,-0.0632 v -2.46662 c 0,-0.049 -0.04092,-0.09 -0.08925,-0.09 h -0.218016 c -0.04868,0 -0.08819,0.0399 -0.08819,0.0889 v 0.52988 c 0,0.0353 -0.02858,0.0635 -0.0635,0.0635 h -0.366889 c -0.03493,0 -0.06315,-0.0282 -0.06315,-0.0635 l 7.15e-4,-0.79834 c 0,-0.0346 0.03034,-0.0646 0.06491,-0.0646 h 2.566458 c 0.03457,0 0.0635,0.03 0.0635,0.0646 v 0.59937 h 0.540103 c 0.140406,0 0.288572,0.0804 0.320675,0.23671 0.0064,0.0293 0.02328,0.03 0.04304,0.01 0.192969,-0.17568 0.331611,-0.23742 0.530225,-0.26494 0.30233,-0.0261 0.413808,0.0466 0.462844,0.0713 0.02434,0.012 0.04516,0.0462 0.04516,0.0748 l -3.44e-4,0.61666 c 0,0.0349 -0.02787,0.0631 -0.06315,0.0631 h -0.344312 c -0.03457,0 -0.06279,-0.0282 -0.06279,-0.0631 l -0.01907,-0.26564 c -0.01446,-0.15875 -0.218017,-0.11959 -0.324908,-0.0628 -0.148873,0.079 -0.253648,0.16898 -0.253648,0.42969 l 0.0011,1.29293 c 0,0.0353 0.02822,0.0621 0.06279,0.0621 h 0.240944 c 0.03492,0 0.06315,0.0279 0.06315,0.0631 v 0.13723 c 0,0.0349 -0.02822,0.0635 -0.06315,0.0635 l -1.392413,-6.9e-4 c -0.03492,0 -0.06315,-0.0282 -0.06315,-0.0632 v -0.13723 c 0,-0.0349 0.02928,-0.0632 0.06421,-0.0632 l 0.236361,3.7e-4 c 0.03492,0 0.06315,-0.0282 0.06315,-0.0635 v -1.78647 1.78647" />
        <path
           inkscape:connector-curvature="0"
           id="path6124"
           style="fill:#135eab;fill-opacity:1;fill-rule:nonzero;stroke:none;stroke-width:0.352778"
           d="m 105.77054,169.24119 c 0,-0.0487 -0.0395,-0.0885 -0.0885,-0.0885 l -0.22013,-3.4e-4 c -0.0346,0 -0.0628,-0.0286 -0.0628,-0.0635 v -0.14076 c 0,-0.0349 0.0282,-0.0614 0.0628,-0.0614 h 0.76235 c 0.13406,0 0.25012,0.0815 0.30304,0.1972 0.0176,0.0339 0.0335,0.0328 0.0635,0.01 0.19861,-0.17357 0.40111,-0.254 0.68545,-0.254 0.28681,0 0.5461,0.12841 0.69391,0.34395 0.0212,0.03 0.0423,0.0303 0.0713,-0.001 0.18873,-0.20391 0.48648,-0.3429 0.77047,-0.3429 0.41063,0 0.83079,0.24835 0.83079,0.68438 l 0.001,1.50178 c 0,0.0353 0.0282,0.0624 0.0628,0.0624 h 0.26384 c 0.0349,0 0.0632,0.0279 0.0632,0.0632 v 0.13688 c 0,0.0353 -0.0282,0.0635 -0.0632,0.0635 l -1.32679,-3.7e-4 c -0.0346,0 -0.0631,-0.0286 -0.0631,-0.0631 v -0.13759 c 0,-0.0349 0.0293,-0.0628 0.0642,-0.0628 l 0.14781,3.4e-4 c 0.0346,0 0.0628,-0.0286 0.0628,-0.0639 l 0.001,-1.43016 c 0,-0.19403 -0.19755,-0.35137 -0.39052,-0.35137 -0.19262,0 -0.3683,0.15734 -0.3683,0.35137 l 7.9e-4,1.43157 c 0,0.0353 0.0286,0.0624 0.0631,0.0624 h 0.2473 c 0.0346,0 0.0628,0.0279 0.0628,0.0632 v 0.13688 c 0,0.0353 -0.0282,0.0635 -0.0628,0.0635 l -1.36102,-3.7e-4 c -0.0346,0 -0.0628,-0.0286 -0.0628,-0.0631 v -0.13759 c 0,-0.0349 0.0293,-0.0628 0.0639,-0.0628 l 0.20003,3.5e-4 c 0.0346,0 0.0631,-0.0286 0.0631,-0.0639 l 0.001,-1.43016 c 0,-0.19403 -0.18521,-0.35137 -0.37818,-0.35137 -0.19262,0 -0.37712,0.15734 -0.37712,0.35137 l 0.001,1.43157 c 0,0.0353 0.0282,0.0624 0.0628,0.0624 h 0.19438 c 0.0346,0 0.0628,0.0279 0.0628,0.0632 v 0.13688 c 0,0.0353 -0.0282,0.0635 -0.0628,0.0635 l -1.33667,-3.7e-4 c -0.0349,0 -0.0631,-0.0286 -0.0631,-0.0631 v -0.13759 c 0,-0.0349 0.0296,-0.0628 0.0646,-0.0628 l 0.22718,3.4e-4 c 0.0346,0 0.0628,-0.0286 0.0628,-0.0639 v -1.78294 1.78294" />
        <path
           inkscape:connector-curvature="0"
           id="path6128"
           style="fill:#135eab;fill-opacity:1;fill-rule:nonzero;stroke:none;stroke-width:0.352778"
           d="m 121.11592,169.23869 c 0,-0.0487 -0.0395,-0.0885 -0.0882,-0.0885 l -0.22013,-3.4e-4 c -0.0346,0 -0.0628,-0.0282 -0.0628,-0.0635 v -0.13652 c 0,-0.0349 0.0282,-0.0635 0.0628,-0.0635 h 0.762 c 0.13687,0 0.2547,0.0832 0.30621,0.20178 0.0109,0.0247 0.0229,0.0335 0.0515,0.0113 0.20002,-0.17674 0.39582,-0.25294 0.68474,-0.25294 0.41028,0 0.77858,0.21343 0.77858,0.67522 l 7.9e-4,1.50142 c 0,0.0353 0.0282,0.0621 0.0628,0.0621 h 0.26388 c 0.0349,0 0.0628,0.0286 0.0628,0.0632 v 0.13723 c 0,0.0353 -0.0279,0.0635 -0.0628,0.0635 l -1.33632,0.004 c -0.0346,0 -0.0628,-0.0286 -0.0628,-0.0635 v -0.14111 c 0,-0.0353 0.0293,-0.0635 0.0642,-0.0635 l 0.15734,3.4e-4 c 0.0346,0 0.0628,-0.0282 0.0628,-0.0635 l -2.7e-4,-1.44463 c 0,-0.19402 -0.15804,-0.35101 -0.35101,-0.35101 -0.19261,0 -0.34819,0.15699 -0.34819,0.35101 l -0.001,1.44604 c 0,0.0353 0.0279,0.0621 0.0632,0.0621 h 0.19579 c 0.0346,0 0.0628,0.0286 0.0628,0.0632 v 0.13723 c 0,0.0353 -0.0282,0.0635 -0.0628,0.0635 l -1.33632,0.004 c -0.0349,0 -0.0632,-0.0286 -0.0632,-0.0635 v -0.14111 c 0,-0.0353 0.0296,-0.0635 0.0646,-0.0635 l 0.22683,3.5e-4 c 0.0349,0 0.0631,-0.0282 0.0631,-0.0635 v -1.78294 1.78294" />
        <path
           inkscape:connector-curvature="0"
           id="path6132"
           style="fill:#135eab;fill-opacity:1;fill-rule:nonzero;stroke:none;stroke-width:0.352778"
           d="m 100.33777,169.23869 c 0,-0.0487 -0.0395,-0.0885 -0.0882,-0.0885 l -0.22014,0.002 c -0.03492,0 -0.06279,-0.0286 -0.06279,-0.0632 V 168.95 c 0,-0.0349 0.02787,-0.0635 0.06279,-0.0635 h 0.762 c 0.13688,0 0.25436,0.0832 0.30621,0.20178 0.0113,0.0247 0.0229,0.0335 0.0515,0.0113 0.20003,-0.17674 0.39582,-0.25294 0.68475,-0.25294 0.41028,0 0.77858,0.21343 0.77858,0.67522 l 7.1e-4,1.50142 c 0,0.0353 0.0279,0.0621 0.0628,0.0621 h 0.26388 c 0.0349,0 0.0628,0.0286 0.0628,0.0632 v 0.13724 c 0,0.0353 -0.0279,0.0635 -0.0628,0.0635 l -1.33632,0.004 c -0.0346,0 -0.0628,-0.0286 -0.0628,-0.0635 v -0.14111 c 0,-0.0353 0.0293,-0.0635 0.0642,-0.0635 l 0.15698,3.4e-4 c 0.0349,0 0.0632,-0.0282 0.0632,-0.0635 l -3.4e-4,-1.44463 c 0,-0.19402 -0.15805,-0.35101 -0.35102,-0.35101 -0.19261,0 -0.34819,0.15699 -0.34819,0.35101 l -10e-4,1.44604 c 0,0.0353 0.0282,0.0621 0.0631,0.0621 h 0.19579 c 0.0349,0 0.0632,0.0286 0.0632,0.0632 v 0.13723 c 0,0.0353 -0.0282,0.0635 -0.0632,0.0635 l -1.33632,0.004 c -0.0346,0 -0.06279,-0.0286 -0.06279,-0.0635 v -0.14111 c 0,-0.0353 0.02928,-0.0635 0.06421,-0.0635 l 0.22719,3.4e-4 c 0.0349,0 0.0628,-0.0282 0.0628,-0.0635 v -1.78294 1.78294" />
        <path
           inkscape:connector-curvature="0"
           id="path6136"
           style="fill:#135eab;fill-opacity:1;fill-rule:nonzero;stroke:none;stroke-width:0.352778"
           d="m 118.09734,170.12243 c 0,-0.84808 0.4572,-1.29187 1.30104,-1.29187 0.8435,0 1.3007,0.44379 1.3007,1.29187 0,0.84173 -0.46708,1.29258 -1.3007,1.29187 -0.84384,-6.8e-4 -1.30104,-0.47695 -1.30104,-1.29187 m 0.89888,-0.013 c 0,0.31503 0.0152,0.54751 0.0519,0.74506 0.0335,0.21802 0.17533,0.28575 0.39899,0.28575 0.22401,0 0.3623,-0.0586 0.40111,-0.28151 0.0367,-0.19791 0.043,-0.43533 0.043,-0.7493 0,-0.27799 -0.0148,-0.56233 -0.0416,-0.75036 -0.0388,-0.2226 -0.1771,-0.28152 -0.40147,-0.28152 -0.2233,0 -0.36512,0.0677 -0.39899,0.28611 -0.0318,0.17709 -0.0529,0.42862 -0.0529,0.74577" />
        <path
           inkscape:connector-curvature="0"
           id="path6140"
           style="fill:#135eab;fill-opacity:1;fill-rule:nonzero;stroke:none;stroke-width:0.352778"
           d="m 98.450758,169.70248 c 0.310445,-0.0956 0.303389,-0.22472 0.307622,-0.31821 0.0042,-0.0938 -0.0635,-0.2614 -0.394405,-0.2607 -0.314678,3.5e-4 -0.374297,0.2226 -0.37465,0.45826 v 0.0624 c 0,0.0346 -0.02787,0.0632 -0.0628,0.0632 h -0.33408 c -0.03528,0 -0.06315,-0.0286 -0.06315,-0.0632 l -3.44e-4,-0.61806 c 0,-0.0286 0.0187,-0.0543 0.04516,-0.0607 0.470958,-0.11219 0.951089,-0.133 1.274233,-0.0748 0.322792,0.0582 0.72002,0.17921 0.72002,0.63323 l 7.14e-4,1.50178 c 0,0.0353 0.02822,0.0621 0.06279,0.0621 h 0.239183 c 0.03492,0 0.06279,0.0279 0.06279,0.0631 v 0.13723 c 0,0.0349 -0.02787,0.0635 -0.06279,0.0635 l -1.625247,-2.5e-4 c -1.154642,-6.8e-4 -1.113719,-1.06891 -0.440619,-1.40758 0.215194,-0.10795 0.385233,-0.16087 0.645583,-0.2413 m 0.338667,0.35278 c 0,-0.0917 -0.06209,-0.14958 -0.1778,-0.13335 -0.115712,0.0169 -0.188737,0.0519 -0.268817,0.121 -0.227895,0.19579 -0.207081,0.56198 -0.191911,0.67239 0.03775,0.27164 0.235303,0.31997 0.397228,0.31997 0.199672,0 0.240241,-0.0878 0.240241,-0.17921 z" />
        <path
           inkscape:connector-curvature="0"
           id="path6144"
           style="fill:#135eab;fill-opacity:1;fill-rule:nonzero;stroke:none;stroke-width:0.352778"
           d="m 89.988431,170.91131 c 0,-0.24024 0.191205,-0.4385 0.436033,-0.4385 0.245181,0 0.436386,0.19826 0.436386,0.4385 0,0.24624 -0.191205,0.44485 -0.436386,0.44485 -0.244828,0 -0.436033,-0.19861 -0.436033,-0.44485 m 0.818444,0 c 0,-0.21026 -0.167217,-0.38453 -0.382411,-0.38453 -0.214842,0 -0.382411,0.17427 -0.382411,0.38453 0,0.21625 0.167569,0.39052 0.382411,0.39052 0.215194,0 0.382411,-0.17427 0.382411,-0.39052 m -0.310444,0.024 c 0.05962,0 0.119239,-0.03 0.119239,-0.12594 0,-0.0423 -0.01164,-0.0963 -0.04762,-0.1143 -0.03598,-0.024 -0.06562,-0.024 -0.125589,-0.024 H 90.26325 v 0.49248 h 0.05997 v -0.22825 h 0.101247 l 0.14358,0.22825 h 0.07761 z m -0.173214,-0.054 v -0.16227 h 0.131233 c 0.08361,0 0.0956,0.036 0.0956,0.078 0,0.0783 -0.03598,0.0843 -0.107597,0.0843 z" />
        <path
           inkscape:connector-curvature="0"
           id="path6148"
           style="fill:#135eab;fill-opacity:1;fill-rule:nonzero;stroke:none;stroke-width:0.352778"
           d="m 124.16209,170.91131 c 0,-0.24024 0.1912,-0.4385 0.43603,-0.4385 0.24518,0 0.43638,0.19826 0.43638,0.4385 0,0.24624 -0.1912,0.44485 -0.43638,0.44485 -0.24483,0 -0.43603,-0.19861 -0.43603,-0.44485 m 0.81844,0 c 0,-0.21026 -0.16722,-0.38453 -0.38241,-0.38453 -0.21484,0 -0.38241,0.17427 -0.38241,0.38453 0,0.21625 0.16757,0.39052 0.38241,0.39052 0.21519,0 0.38241,-0.17427 0.38241,-0.39052 m -0.31044,0.024 c 0.0596,0 0.11959,-0.03 0.11959,-0.12594 0,-0.0423 -0.012,-0.0963 -0.048,-0.1143 -0.036,-0.024 -0.0656,-0.024 -0.12559,-0.024 h -0.17922 v 0.49248 h 0.0596 v -0.22825 h 0.1016 l 0.14359,0.22825 h 0.0776 z m -0.17357,-0.054 v -0.16227 h 0.13158 c 0.0836,0 0.0956,0.036 0.0956,0.078 0,0.0783 -0.036,0.0843 -0.1076,0.0843 z" />
      </g>
    </g>
  </g>
</svg>
