<?xml version="1.0" encoding="UTF-8" standalone="no"?>
<svg
   id="Layer_1"
   data-name="Layer 1"
   viewBox="0 0 55 55"
   version="1.1"
   sodipodi:docname="cat.svg"
   width="55"
   height="55"
   inkscape:version="1.3-dev (f3df6cc7, 2022-08-24)"
   xmlns:inkscape="http://www.inkscape.org/namespaces/inkscape"
   xmlns:sodipodi="http://sodipodi.sourceforge.net/DTD/sodipodi-0.dtd"
   xmlns="http://www.w3.org/2000/svg"
   xmlns:svg="http://www.w3.org/2000/svg"
   xmlns:rdf="http://www.w3.org/1999/02/22-rdf-syntax-ns#"
   xmlns:cc="http://creativecommons.org/ns#"
   xmlns:dc="http://purl.org/dc/elements/1.1/">
  <sodipodi:namedview
     id="namedview7"
     pagecolor="#ffffff"
     bordercolor="#000000"
     borderopacity="0.25"
     inkscape:showpageshadow="2"
     inkscape:pageopacity="0.0"
     inkscape:pagecheckerboard="0"
     inkscape:deskcolor="#d1d1d1"
     showgrid="false"
     inkscape:zoom="7.8666667"
     inkscape:cx="14.173729"
     inkscape:cy="14.936441"
     inkscape:window-width="1920"
     inkscape:window-height="1177"
     inkscape:window-x="-8"
     inkscape:window-y="-8"
     inkscape:window-maximized="1"
     inkscape:current-layer="Layer_1" />
  <defs
     id="defs2">
    <style
       id="style1">.cls-1{fill:#fff;}.cls-2{mask:url(#mask);}.cls-3{fill:#ffcd11;}.cls-4{mask:url(#mask-2);}</style>
    <mask
       id="mask"
       x="0"
       y="0"
       width="15.89"
       height="29.99"
       maskUnits="userSpaceOnUse">
      <g
         transform="translate(-0.5)"
         id="g1">
        <g
           id="mask0">
          <g
             id="Clip_2"
             data-name="Clip 2">
            <path
               class="cls-1"
               d="M 16.39,0 H 0.5 v 30 h 15.89 z"
               id="path1" />
          </g>
        </g>
      </g>
    </mask>
    <mask
       id="mask-2"
       x="51.79"
       y="0.01"
       width="3.21"
       height="3.13"
       maskUnits="userSpaceOnUse">
      <g
         transform="translate(-0.5)"
         id="g2">
        <g
           id="mask1">
          <g
             id="Clip_11"
             data-name="Clip 11">
            <path
               class="cls-1"
               d="M 55.5,3.14 V 0 h -3.21 v 3.14 z"
               id="path2" />
          </g>
        </g>
      </g>
    </mask>
  </defs>
  <title
     id="title2">logo</title>
  <rect
     style="fill:#303030;fill-opacity:1;stroke:#000000;stroke-width:0;stroke-dasharray:none"
     id="rect7"
     width="54.915257"
     height="41.18644"
     x="-1.3813896e-07"
     y="7.7542367"
     rx="5"
     ry="5.0000005" />
  <g
     id="Canvas"
     transform="translate(0,12.330508)">
    <g
       id="logo_with_margins"
       data-name="logo with margins">
      <g
         id="logo">
        <g
           id="Group_3"
           data-name="Group 3">
          <g
             class="cls-2"
             mask="url(#mask)"
             id="g3">
            <g
               id="Fill_1"
               data-name="Fill 1">
              <path
                 class="cls-1"
                 d="M 14.64,25.05 A 3.75,3.75 0 0 0 16,21.89 v -4.41 h -5.91 v 6 A 1.56,1.56 0 0 1 8.51,25 1.52,1.52 0 0 1 7,23.46 V 6.52 A 1.52,1.52 0 0 1 8.51,5 1.56,1.56 0 0 1 10.09,6.55 v 6 H 16 V 6.29 C 16,2.85 14.07,0 8.45,0 2.83,0 0.5,2.85 0.5,6.3 V 24 a 6.07,6.07 0 0 0 6.33,6 h 1.68 z"
                 transform="translate(-0.5)"
                 id="path3" />
            </g>
          </g>
        </g>
        <g
           id="Fill_4"
           data-name="Fill 4">
          <path
             class="cls-1"
             d="M 39.5,26 V 7 h -5 V 1 h 16 v 6 h -4 v 23 h -2 z"
             transform="translate(-0.5)"
             id="path4" />
        </g>
        <g
           id="Fill_6"
           data-name="Fill 6">
          <path
             class="cls-3"
             d="M 42.37,30 26.5,17 10.37,30 Z"
             transform="translate(-0.5)"
             id="path5" />
        </g>
        <g
           id="Fill_8"
           data-name="Fill 8">
          <path
             class="cls-1"
             d="m 24.5,14 2,-8 2,8 z m 6,-13 h -8 L 17,23 26.5,15 36,23 Z"
             transform="translate(-0.5)"
             id="path6" />
        </g>
        <g
           id="Group_12"
           data-name="Group 12">
          <g
             class="cls-4"
             mask="url(#mask-2)"
             id="g7">
            <g
               id="Fill_10"
               data-name="Fill 10">
              <path
                 class="cls-1"
                 d="m 53.7,1.46 h 0.19 A 0.23,0.23 0 0 0 54.11,1.2 C 54.11,1 54,1 53.89,1 H 53.7 Z m 0,1 h -0.43 v -1.8 h 0.78 a 0.43,0.43 0 0 1 0.48,0.47 0.41,0.41 0 0 1 -0.38,0.45 v 0 a 0.33,0.33 0 0 1 0.37,0.35 2.22,2.22 0 0 0 0,0.53 H 54.1 a 0.83,0.83 0 0 1 0,-0.35 c 0,-0.22 0,-0.4 -0.3,-0.4 h -0.1 z m 1.5,-0.9 a 1.31,1.31 0 0 0 -2.61,0 1.31,1.31 0 0 0 2.61,0 z m 0.3,0 a 1.61,1.61 0 0 1 -3.21,0 1.61,1.61 0 0 1 3.21,0 z"
                 transform="translate(-0.5)"
                 id="path7" />
            </g>
          </g>
        </g>
      </g>
    </g>
  </g>
  <metadata
     id="metadata7">
    <rdf:RDF>
      <cc:Work
         rdf:about="">
        <dc:title>logo</dc:title>
      </cc:Work>
    </rdf:RDF>
  </metadata>
</svg>
