<?xml version="1.0" encoding="UTF-8" standalone="no"?>
<svg
   viewBox="0 0 150.83 150.83"
   version="1.1"
   id="svg25"
   sodipodi:docname="SCB-logo.svg"
   width="150.83"
   height="150.83"
   inkscape:version="1.3-dev (f3df6cc7, 2022-08-24)"
   xmlns:inkscape="http://www.inkscape.org/namespaces/inkscape"
   xmlns:sodipodi="http://sodipodi.sourceforge.net/DTD/sodipodi-0.dtd"
   xmlns="http://www.w3.org/2000/svg"
   xmlns:svg="http://www.w3.org/2000/svg">
  <defs
     id="defs25" />
  <sodipodi:namedview
     id="namedview25"
     pagecolor="#ffffff"
     bordercolor="#000000"
     borderopacity="0.25"
     inkscape:showpageshadow="2"
     inkscape:pageopacity="0.0"
     inkscape:pagecheckerboard="0"
     inkscape:deskcolor="#d1d1d1"
     showgrid="false"
     inkscape:zoom="3.7460317"
     inkscape:cx="48.584746"
     inkscape:cy="31.366525"
     inkscape:window-width="1920"
     inkscape:window-height="1177"
     inkscape:window-x="-8"
     inkscape:window-y="-8"
     inkscape:window-maximized="1"
     inkscape:current-layer="svg25" />
  <g
     id="Layer_2"
     data-name="Layer 2"
     transform="translate(0,42.177966)">
    <g
       id="Layer_1-2"
       data-name="Layer 1">
      <path
         d="m 118.56,56.64 a 1.75,1.75 0 1 0 1.78,1.74 1.62,1.62 0 0 0 -1.78,-1.74 z M 115.48,63 v -7.28 h 1.37 v 0.76 a 2.37,2.37 0 0 1 2,-0.9 2.81,2.81 0 1 1 0,5.61 2.32,2.32 0 0 1 -2,-0.92 V 63 Z"
         style="fill:#706f6f"
         id="path1" />
      <path
         d="m 94.87,58.36 a 1.83,1.83 0 1 0 1.83,-1.78 1.66,1.66 0 0 0 -1.83,1.78 z m -1.43,0 c 0,-1.45 0.9,-2.84 3.26,-2.84 2.36,0 3.3,1.39 3.3,2.84 0,1.45 -0.91,2.83 -3.26,2.83 -2.35,0 -3.3,-1.38 -3.3,-2.83 z"
         style="fill:#706f6f"
         id="path2" />
      <path
         d="m 19.63,57.83 h 3.54 a 1.68,1.68 0 0 0 -1.78,-1.37 1.7,1.7 0 0 0 -1.76,1.37 z m 5,0.87 h -5 a 1.6,1.6 0 0 0 1.79,1.5 1.6,1.6 0 0 0 1.58,-0.76 h 1.49 a 3.07,3.07 0 0 1 -3,1.75 c -2.38,0 -3.26,-1.38 -3.26,-2.78 a 2.87,2.87 0 0 1 3.17,-2.89 c 2.34,0 3.23,1.45 3.23,3 z"
         style="fill:#706f6f"
         id="path3" />
      <polygon
         points="149.28,60.99 150.82,60.99 150.82,59.58 149.28,59.58 "
         style="fill:#706f6f"
         id="polygon3" />
      <polygon
         points="7.13,53.9 0.31,53.9 0.31,55.01 2.98,55.01 2.98,60.99 4.47,60.99 4.47,55.01 7.13,55.01 "
         style="fill:#706f6f"
         id="polygon4" />
      <path
         d="m 9.57,61 h 1.37 v -2.84 a 1.51,1.51 0 0 1 1.64,-1.52 c 1.13,0 1.32,0.64 1.32,1.21 V 61 h 1.37 v -3.59 c 0,-1.42 -1.1,-1.83 -2.23,-1.83 a 2.53,2.53 0 0 0 -2.08,0.94 v 0 -2.75 H 9.57 Z"
         style="fill:#706f6f"
         id="path4" />
      <polygon
         points="38.1,53.9 31.28,53.9 31.28,55.01 33.94,55.01 33.94,60.99 35.44,60.99 35.44,55.01 38.1,55.01 "
         style="fill:#706f6f"
         id="polygon5" />
      <path
         d="m 40.41,61 h 1.37 v -2.55 a 1.54,1.54 0 0 1 1.68,-1.59 2.89,2.89 0 0 1 0.88,0.12 v -1.35 a 3.12,3.12 0 0 0 -0.55,-0.05 2.21,2.21 0 0 0 -2,1.17 v 0 -1 h -1.38 z"
         style="fill:#706f6f"
         id="path5" />
      <path
         d="m 51.28,58.87 v -0.5 a 7,7 0 0 1 -1.8,0.33 c -1,0.11 -1.29,0.34 -1.29,0.79 0,0.7 0.64,0.82 1.11,0.82 0.7,0 1.98,-0.31 1.98,-1.44 z m 1.37,-1.58 v 2.5 a 0.27,0.27 0 0 0 0.3,0.3 3.15,3.15 0 0 0 0.44,0 v 1 a 4.21,4.21 0 0 1 -1,0.12 c -0.9,0 -1,-0.48 -1,-0.68 a 3.35,3.35 0 0 1 -2.47,0.73 c -1.37,0 -2.15,-0.62 -2.15,-1.65 0,-1.45 1.49,-1.58 2.37,-1.66 2,-0.19 2.18,-0.26 2.18,-0.67 0,-0.6 -0.7,-0.75 -1.5,-0.75 -0.8,0 -1.39,0.29 -1.44,0.87 H 47 c 0.2,-1.38 1.22,-1.81 2.78,-1.81 2.79,-0.07 2.87,1.02 2.87,1.7 z"
         style="fill:#706f6f"
         id="path6" />
      <polygon
         points="56.31,60.99 57.69,60.99 57.69,55.72 56.31,55.72 "
         style="fill:#706f6f"
         id="polygon6" />
      <polygon
         points="56.31,54.89 57.69,54.89 57.69,53.77 56.31,53.77 "
         style="fill:#706f6f"
         id="polygon7" />
      <polygon
         points="61.47,60.99 62.84,60.99 62.84,53.77 61.47,53.77 "
         style="fill:#706f6f"
         id="polygon8" />
      <path
         d="M 67.44,57.83 H 71 a 1.68,1.68 0 0 0 -1.78,-1.37 1.71,1.71 0 0 0 -1.78,1.37 z m 5,0.87 h -5 a 1.89,1.89 0 0 0 3.36,0.74 h 1.49 a 3.07,3.07 0 0 1 -3,1.75 c -2.38,0 -3.26,-1.38 -3.26,-2.78 a 2.87,2.87 0 0 1 3.17,-2.89 c 2.34,0 3.23,1.45 3.23,3 z"
         style="fill:#706f6f"
         id="path8" />
      <path
         d="m 75.44,61 h 1.37 v -2.55 a 1.54,1.54 0 0 1 1.68,-1.59 2.89,2.89 0 0 1 0.88,0.12 v -1.35 a 3.12,3.12 0 0 0 -0.55,-0.05 2.21,2.21 0 0 0 -2,1.17 v 0 -1 h -1.38 z"
         style="fill:#706f6f"
         id="path9" />
      <path
         d="m 90.75,56.52 c -0.16,-1.53 -1.43,-2.83 -3.87,-2.83 -2.8,0 -4,1.76 -4,3.75 a 3.53,3.53 0 0 0 3.79,3.75 c 2.92,0 3.84,-1.5 4,-2.91 H 89.14 A 2,2 0 0 1 87,60.08 2.39,2.39 0 0 1 84.5,57.57 c 0,-1.85 1,-2.76 2.4,-2.76 a 2.07,2.07 0 0 1 2.28,1.71 z"
         style="fill:#706f6f"
         id="path10" />
      <path
         d="m 106.87,61 h 1.37 v -2.94 a 1.36,1.36 0 0 1 1.43,-1.42 c 1.22,0 1.29,0.66 1.29,1.21 V 61 h 1.38 v -3.5 a 1.84,1.84 0 0 0 -2.1,-1.91 2.5,2.5 0 0 0 -2.14,1 1.82,1.82 0 0 0 -1.86,-1 2.55,2.55 0 0 0 -2.08,0.94 v 0 -0.8 h -1.38 V 61 h 1.38 v -2.94 a 1.36,1.36 0 0 1 1.43,-1.42 c 1.22,0 1.29,0.66 1.29,1.21 V 61 Z"
         style="fill:#706f6f"
         id="path11" />
      <path
         d="m 128.82,58.87 v -0.5 a 6.81,6.81 0 0 1 -1.8,0.33 c -1,0.11 -1.28,0.34 -1.28,0.79 0,0.7 0.64,0.82 1.1,0.82 0.74,0 1.98,-0.31 1.98,-1.44 z m 1.38,-1.58 v 2.5 c 0,0.29 0.2,0.3 0.29,0.3 a 3.19,3.19 0 0 0 0.45,0 v 1 a 4.29,4.29 0 0 1 -1,0.12 c -0.9,0 -1,-0.48 -1,-0.68 a 3.37,3.37 0 0 1 -2.47,0.73 c -1.37,0 -2.15,-0.62 -2.15,-1.65 0,-1.45 1.49,-1.58 2.37,-1.66 2,-0.19 2.17,-0.26 2.17,-0.67 0,-0.6 -0.69,-0.75 -1.49,-0.75 -0.8,0 -1.39,0.29 -1.44,0.87 h -1.34 c 0.2,-1.38 1.22,-1.81 2.78,-1.81 2.75,-0.07 2.83,1.02 2.83,1.7 z"
         style="fill:#706f6f"
         id="path12" />
      <path
         d="m 133.92,61 h 1.38 v -2.84 a 1.51,1.51 0 0 1 1.64,-1.52 c 1.13,0 1.32,0.64 1.32,1.21 V 61 h 1.37 v -3.59 c 0,-1.42 -1.1,-1.83 -2.24,-1.83 a 2.51,2.51 0 0 0 -2.07,0.94 v 0 -0.8 h -1.38 V 61 Z"
         style="fill:#706f6f"
         id="path13" />
      <path
         d="m 144.73,60.9 -0.31,0.64 a 0.76,0.76 0 0 1 -0.8,0.41 h -0.68 v 1 h 0.85 c 1.15,0 1.48,-0.17 1.9,-1.07 l 2.87,-6.21 h -1.46 l -1.65,3.77 -1.69,-3.77 h -1.49 l 2.46,5.18 z"
         style="fill:#706f6f"
         id="path14" />
      <path
         d="m 123.21,26 c -0.18,-0.18 0.38,-3.78 -0.31,-5.15 -0.58,-1.22 -4.19,-1 -5.1,-1 -0.15,0 -0.3,-0.08 -0.18,-0.26 0.12,-0.18 0.81,-0.94 1.07,-1.34 0.07,-0.13 0,-0.15 0,-0.18 l -2.47,-0.28 c -5.3,-0.71 -6.82,-3.91 -7,-5.1 0,-0.38 0.2,-0.48 0.41,-0.18 2.43,3.51 5.23,3.56 5.28,3.35 0.05,-0.21 -2.64,-2.64 -1.81,-5.48 0.77,-2.59 6.73,-7 7.29,-7.59 0.56,-0.59 0,-1.7 -1.42,-1.37 -0.49,0.1 -0.79,0.38 -1,0.28 -0.21,-0.1 0.38,-0.56 0,-0.86 -0.38,-0.3 -0.56,-0.13 -0.71,-0.28 -0.15,-0.15 -0.13,-0.49 0,-0.51 a 14.15,14.15 0 0 1 1.45,0 c 1.57,0.05 3.22,0.53 3.3,2.08 0.1,2.06 -6,5.84 -5.66,8.6 0.1,0.77 1.57,0.77 2.66,0.77 1.09,0 3.51,-1 4.93,-1.17 0.73,-0.1 1.06,0.71 2.59,0.79 2.61,0.1 4.16,-0.69 7.51,-0.54 1.19,0.28 1,4.32 0.94,5.28 0,0.18 0,0.21 0.08,0.21 a 16.49,16.49 0 0 1 4.13,0 c 4.93,0.64 10,2.21 10.51,7.82 a 25.54,25.54 0 0 1 -0.56,6.85 16,16 0 0 0 -0.2,3.38 6.79,6.79 0 0 0 0.13,0.86 c 0,0.23 0,0.31 -0.16,0.31 a 1.51,1.51 0 0 1 -0.48,0 c -0.1,-0.06 -0.28,-0.11 -0.35,0.32 a 16.28,16.28 0 0 0 0.15,5.82 c 0.05,0.25 0.08,0.43 -0.08,0.43 h -4.06 c -0.28,0 -0.12,-0.36 0,-0.56 a 8.53,8.53 0 0 0 0.36,-1 9,9 0 0 0 -1.45,-5.3 4.05,4.05 0 0 0 -1.65,-1.09 40.1,40.1 0 0 0 -7.74,-1.63 c -0.48,0 -0.92,0.15 -0.92,0.76 0,1.47 1.55,5.64 2.39,7.9 0.2,0.53 0.36,0.81 -0.05,0.81 h -4.32 c -0.25,0 -0.15,-0.23 -0.12,-0.33 0.4,-1 0.43,-1.37 0.3,-1.75 -1.37,-4 -4.06,-9.29 -5.07,-13.43 0,-0.15 0,-0.13 -0.18,-0.13 A 11.89,11.89 0 0 1 123.21,26 Z"
         style="fill:#164194;fill-rule:evenodd"
         id="path15" />
      <path
         d="m 20.59,30.05 4.16,11.65 h -4.7 L 19.29,39.19 H 15.51 L 14.8,41.7 h -4.47 l 4.09,-11.65 z m -1.86,6.32 -1.27,-4 -1.34,4 z"
         style="fill:#e30613"
         id="path16" />
      <path
         d="m 71.1,30.1 c 2,0 4,0.64 4,2.87 a 2.72,2.72 0 0 1 -2.41,2.84 2.94,2.94 0 0 1 2.61,2.72 c 0,2.87 -2.36,3.2 -4.8,3.2 H 63.84 V 30.1 Z m -1.65,4.44 a 1.14,1.14 0 0 0 1.27,-1.11 1.1,1.1 0 0 0 -1.26,-1.15 h -1.41 v 2.26 z m 0,4.8 a 1.23,1.23 0 0 0 1.39,-1.19 c 0,-0.94 -0.64,-1.2 -1.39,-1.19 h -1.4 v 2.38 z"
         style="fill:#e30613"
         id="path17" />
      <path
         d="m 56.43,39 c 1.72,0 1.9,-1.91 1.9,-3.15 0,-1.07 -0.23,-3.17 -1.9,-3.17 -1.67,0 -1.93,2.1 -1.93,3.17 0,1.24 0.28,3.15 1.9,3.15 z m 0,-9.14 c 4,0 6.44,2.13 6.44,6 0,3.87 -2.41,6 -6.44,6 -4.03,0 -6.5,-2.08 -6.5,-6 0,-3.92 2.38,-6 6.47,-6 z"
         style="fill:#e30613"
         id="path18" />
      <path
         d="m 32.46,30.05 c 2.8,0 4.52,0.86 4.52,3.1 0,1.8 -1,2.69 -2.69,3.1 a 2.77,2.77 0 0 1 2,1.29 15.09,15.09 0 0 1 1.37,4.19 H 33 A 17.28,17.28 0 0 0 32.11,38.35 1.13,1.13 0 0 0 31,37.74 h -1.4 v 4 H 25.31 V 30.05 Z m -1.38,5.1 c 0.81,0 1.41,-0.22 1.41,-1.29 0,-1.07 -0.62,-1.22 -1.45,-1.22 H 29.6 v 2.51 z"
         style="fill:#e30613"
         id="path19" />
      <polygon
         points="103.26,30.05 98.79,30.05 98.79,41.73 107.34,41.73 107.34,38.28 103.26,38.28 "
         style="fill:#e30613"
         id="polygon19" />
      <path
         d="m 49.19,35.79 h -3.83 v 3.12 a 3.71,3.71 0 0 1 -1.07,0.1 c -1.77,0 -2.43,-1.42 -2.43,-3 0,-2.11 1.47,-3.25 3.7,-3.25 a 6.51,6.51 0 0 1 3.07,0.69 v -3.17 a 16.23,16.23 0 0 0 -4.36,-0.43 c -3.73,0 -7,1.95 -7,5.86 0,4.17 3.09,6.22 7,6.22 a 16.5,16.5 0 0 0 4.92,-0.66 z"
         style="fill:#e30613"
         id="path20" />
      <path
         d="m 80.61,30.05 h -4.49 v 7.08 c 0,3.46 2.67,4.8 5.92,4.8 3.52,0 5.86,-1.24 5.86,-5 v -6.88 h -4.39 v 7 c 0,1.15 -0.26,1.93 -1.42,1.93 -1.16,0 -1.48,-0.84 -1.48,-1.95 z"
         style="fill:#e30613"
         id="path21" />
      <polygon
         points="93.64,30.05 89.17,30.05 89.17,41.73 97.82,41.73 97.82,38.28 93.64,38.28 "
         style="fill:#e30613"
         id="polygon21" />
      <path
         d="m 10.2,38.35 a 7.56,7.56 0 0 1 -2.43,0.46 2.87,2.87 0 0 1 -3.2,-3 c 0,-1.93 1.45,-2.95 3.35,-2.95 a 7.8,7.8 0 0 1 2.23,0.43 V 30.2 A 16.63,16.63 0 0 0 7,29.85 c -3.73,0 -7,1.95 -7,5.86 0,4.17 3.1,6.2 7,6.2 a 13,13 0 0 0 3.22,-0.46 z"
         style="fill:#e30613"
         id="path22" />
      <path
         d="m 100.34,16.75 -7.44,7 v 4.46 h 14 v -4 h -7.43 l 7.87,-7.31 V 12.79 H 79.42 v 4 h 4.44 v 11.38 h 5.92 V 16.75 Z"
         style="fill:#164194"
         id="path23" />
      <rect
         x="71.959999"
         y="12.79"
         width="5.9099998"
         height="15.38"
         style="fill:#164194"
         id="rect23" />
      <polygon
         points="56.6,28.17 61.5,28.17 64.52,16.09 64.57,16.09 64.65,28.17 69.95,28.17 69.95,12.79 61.25,12.79 59.27,21.22 59.24,21.22 57.24,12.79 48.48,12.79 48.48,28.17 53.53,28.17 53.58,16.09 53.68,16.09 "
         style="fill:#164194"
         id="polygon23" />
      <polygon
         points="30.66,28.17 36.58,28.17 36.58,22.64 40.54,22.64 40.54,28.17 46.42,28.17 46.42,12.79 40.54,12.79 40.54,18.1 36.58,18.1 36.58,12.79 30.66,12.79 "
         style="fill:#164194"
         id="polygon24" />
      <path
         d="m 28.91,23.76 a 9.61,9.61 0 0 1 -3.22,0.58 c -2.49,0 -4.37,-1.34 -4.37,-4 0,-2.66 2,-3.85 4.57,-3.85 a 10.24,10.24 0 0 1 3,0.56 V 13 a 20.55,20.55 0 0 0 -4.27,-0.48 c -5,0 -9.34,2.56 -9.34,7.71 0,5.51 4.16,8.2 9.34,8.2 a 16.31,16.31 0 0 0 4.29,-0.63 z"
         style="fill:#164194"
         id="path24" />
      <path
         d="M 13.5,13.05 A 27,27 0 0 0 8.33,12.54 c -3.53,0 -8.23,0.73 -8.23,5 0,6 8.48,4.09 8.48,6.17 0,0.79 -1.55,1.07 -2.92,1.07 a 14,14 0 0 1 -5.25,-1 v 4 a 27.48,27.48 0 0 0 6.39,0.73 c 3.43,0 7.69,-1 7.69,-5.15 0,-5.94 -8.45,-4 -8.45,-6.07 0,-1 2,-1 2.89,-1 A 14,14 0 0 1 13.5,17 Z"
         style="fill:#164194"
         id="path25" />
    </g>
  </g>
</svg>
