<?xml version="1.0" encoding="UTF-8" standalone="no"?>
<svg
   width="3000"
   height="3000"
   version="1.1"
   id="svg999"
   sodipodi:docname="setra.svg"
   inkscape:version="1.3-dev (f3df6cc7, 2022-08-24)"
   xmlns:inkscape="http://www.inkscape.org/namespaces/inkscape"
   xmlns:sodipodi="http://sodipodi.sourceforge.net/DTD/sodipodi-0.dtd"
   xmlns="http://www.w3.org/2000/svg"
   xmlns:svg="http://www.w3.org/2000/svg">
  <defs
     id="defs999" />
  <sodipodi:namedview
     id="namedview999"
     pagecolor="#ffffff"
     bordercolor="#000000"
     borderopacity="0.25"
     inkscape:showpageshadow="2"
     inkscape:pageopacity="0.0"
     inkscape:pagecheckerboard="0"
     inkscape:deskcolor="#d1d1d1"
     showgrid="false"
     inkscape:zoom="0.31466667"
     inkscape:cx="1711.3347"
     inkscape:cy="2086.3347"
     inkscape:window-width="1920"
     inkscape:window-height="1177"
     inkscape:window-x="-8"
     inkscape:window-y="-8"
     inkscape:window-maximized="1"
     inkscape:current-layer="svg999" />
  <path
     style="display:inline;fill:#010000;stroke:none"
     d="m 431,1251.42 c -25.596,3.36 -51.981,-0.52 -75,14.28 -31.841,20.47 -40.198,55.96 -34.866,91.3 3.945,26.14 13.367,52.54 20.442,78 13.108,47.17 26.03,94.54 38.05,142 8.049,31.78 17.154,63.29 25.49,95 7.18,27.31 15.149,55.91 43.884,67.55 16.611,6.73 34.424,7.34 52,8.54 33.939,2.32 67.998,-0.09 102,-0.09 110.875,0 222.307,-1.11 333,-5.96 85.94,-3.76 172.07,-2.32 258,-6.08 282.94,-12.39 566.45,-15.52 849,-34.87 117.01,-8.01 234.16,-12.61 351,-23.92 31.7,-3.07 63.35,-6.23 95,-10.01 20.23,-2.43 40.77,-4.24 59,-13.94 28.64,-15.25 38.88,-52.02 50.2,-80.22 28.51,-71.06 51.99,-144.74 70.67,-219 7.68,-30.53 23.57,-67.35 -5.87,-91.67 -4.05,-3.35 -9.06,-6.15 -14,-7.95 -20.39,-7.42 -46.62,-3.38 -68,-3.38 H 2445 1982 940 600 489 c -18.944,0 -39.218,-2.04 -58,0.42 z"
     id="path5" />
  <path
     style="display:inline;fill:#ffffff;stroke:none"
     d="m 420,1265.42 c -27.397,3.6 -53.123,1.9 -72.535,25.58 -24.153,29.46 -12.895,69.24 -3.186,102 19.267,65 36.306,131.24 52.848,197 7.743,30.78 16.423,61.36 24.722,92 5.048,18.64 12.714,37.56 32.151,44.93 21.796,8.28 46.046,8.07 69,8.07 29.031,0 58.042,-0.28 87,-0.99 101.688,-2.49 203.389,-2.51 305,-5 245.14,-6 490.13,-12.25 735,-22.97 128,-5.61 256.18,-9.2 384,-17.95 117.67,-8.06 235.5,-12.55 353,-23.92 34.37,-3.33 68.72,-6.42 103,-10.89 17.93,-2.33 36.98,-3.38 53,-12.57 23.92,-13.71 31.71,-46.91 41.85,-70.71 28.63,-67.21 49.4,-138.46 68.03,-209 7.35,-27.8 30.55,-77.31 -6.88,-93.12 -17.04,-7.2 -41.76,-2.88 -60,-2.88 H 2457 2007 941 593 479 c -19.268,0 -39.897,-2.08 -59,0.42 z"
     id="path12" />
  <path
     style="display:inline;fill:#970000;stroke:none"
     d="m 429,1280.44 c -26.249,2.81 -54.452,-0.96 -71.895,23.56 -18.3,25.72 -5.024,62.06 3.034,89 19.059,63.73 34.548,128.78 51.941,193 7.627,28.16 16.417,56.53 22.709,85 3.545,16.04 8.504,35.1 25.211,41.91 16.958,6.91 37.064,6.09 55,6.09 h 78 c 102.069,0 204.062,-4.78 306,-6 220.94,-2.62 441.43,-10.64 662,-19.96 161.79,-6.84 323.84,-10.14 485,-21.95 116.66,-8.55 233.68,-10.9 350,-23.96 31.32,-3.52 62.7,-6.43 94,-10 14.01,-1.6 31.62,-1.63 44,-9.06 21.39,-12.84 28.88,-45.27 37.86,-67.07 25.94,-62.95 43.41,-128.09 63.31,-193 6.43,-20.95 13.27,-43.3 16.39,-65 1.17,-8.13 -2.98,-17.03 -10.57,-20.58 -5.32,-2.49 -12.28,-1.42 -17.99,-1.42 H 2588 2463 2020 949 597 481 c -16.955,0 -35.251,-2.36 -52,-0.56 z"
     id="path26" />
  <path
     style="display:inline;fill:#010000;stroke:none"
     d="m 863,1498 -2.032,15.59 -11.382,0.74 H 820.414 L 713,1515 c -1.214,6.54 -4.604,29.45 1.514,33.82 3.644,2.6 11.231,1.18 15.486,1.18 h 41 115 c 20.358,0 43.433,2.59 62,-7.58 26.036,-14.27 28.018,-50.22 2,-65.66 -18.988,-11.28 -43.866,-8.76 -65,-8.76 h -73 c 0,-3.82 -1.707,-13.17 2.029,-15.55 6.008,-3.83 23.036,-0.65 30.171,-0.65 h 81.6 c 9.404,0 35.82,4.88 37.095,-7.8 0.594,-5.91 2.753,-23.54 -3.043,-26.97 C 955.622,1414.52 947.756,1416 943,1416 H 902 789 c -21.631,0 -45.281,-2.06 -64.985,8.75 -23.022,12.63 -23.587,48.8 -2.015,62.95 19.682,12.91 45.608,10.3 68,10.3 h 73 m 286,17 c -0.95,-3.99 -2.7,-12.09 0.6,-15.4 4.94,-4.94 24.65,-1.6 31.4,-1.6 h 64 c 5.6,0 18.87,2.41 23.14,-1.86 3.76,-3.76 2.3,-16.23 1.75,-21.14 -1.26,-11.21 -22.71,-7 -30.89,-7 h -64 c -6.21,0 -19.4,2.49 -24.68,-1.03 -3.9,-2.6 -2.32,-10.93 -2.32,-14.97 27.73,-0.35 55.47,-0.2 83.2,-0.2 9.64,0 26.03,3.18 34.86,-0.77 6.01,-2.69 6.22,-27.56 2.76,-32.6 -3.53,-5.13 -19.26,-2.43 -24.82,-2.43 h -73 -83 c -7.54,0 -25.25,-3.28 -31.49,1.18 -5.71,4.08 -2.51,23.47 -2.51,29.82 v 71 c 0,7.81 -2.67,21.63 0.74,28.72 1.77,3.68 6.84,3.26 10.26,3.28 10,0.05 20,0 30,0 h 128 35 c 4.11,0 10.04,0.84 11.57,-4.11 1.52,-4.94 2.79,-26.4 -1.31,-29.88 -5.65,-4.78 -23.1,-1.68 -30.18,-1.68 h -59.16 c -9.42,0 -20.8,-1.71 -29.92,0.67 m 270,-63 v 69 c 0,6.94 -2.64,20.9 2.01,26.57 3.61,4.4 13.91,2.43 18.99,2.43 h 52 c 5.14,0 16.5,2.12 20.06,-2.43 4.16,-5.31 1.94,-17.23 1.94,-23.57 v -47 c 0,-7.72 1.2,-16.57 -1,-24 16.77,-4.81 39.3,-1.26 56.75,-1.16 5.81,0.03 16.83,2.07 21.9,-1.18 6.21,-4 6,-32.33 -1.67,-34.34 -16.97,-4.45 -40.4,-0.32 -57.98,-0.32 h -125 -46 c -5.57,0 -14.62,-1.71 -19.72,0.74 -6.87,3.31 -5.15,31.6 1.76,34.36 7.01,2.79 18.19,0.87 25.68,0.75 16.75,-0.25 33.52,0.11 50.28,0.15 m 497,98 -38,-39 c 40.55,-9.53 33.79,-72.9 4,-89.42 -15.36,-8.52 -35.07,-5.58 -52,-5.58 h -106 -35 c -4.62,0 -11.5,-1.25 -15.77,0.74 -6.08,2.84 -3.23,19.65 -3.23,25.26 v 79 c 0,5.96 -3.12,25.29 3.23,28.26 5.19,2.42 14.13,0.74 19.77,0.74 h 47 c 5.51,0 16.84,2.14 21.49,-1.18 8.62,-6.16 -5.39,-32.72 8.51,-33.69 6.09,-0.43 10.11,4.98 14,8.87 7.37,7.37 17.13,21.76 27,25.4 8.74,3.22 22.71,0.6 32,0.6 h 73 m 235,-34 c 0,7.22 -3.46,27.25 2.43,32.26 4.28,3.64 14.31,1.74 19.57,1.74 h 51 c 5.01,0 17.66,2.33 20.26,-3.23 4.94,-10.58 0.74,-32.09 0.74,-43.77 0,-17.89 3.89,-41.1 -2.78,-58 -11.01,-27.95 -37.79,-29 -63.22,-29 h -68 c -26.61,0 -64.22,-7.09 -86.91,9.33 -26.65,19.3 -18.09,63.14 -18.09,91.67 0,6.55 -3.38,27.58 2.51,31.68 5.21,3.62 17.38,1.32 23.49,1.32 20.2,0 40.84,1.24 61,-0.04 15.25,-0.97 1.2,-25.95 8.6,-33.36 3.22,-3.22 10.46,-1.35 14.4,-0.89 11.42,1.35 23.5,0.29 35,0.29 z"
     id="path125" />
  <path
     style="fill:#ffffff; stroke:none;"
     d="M867 1494L867 1519L717 1519L717 1546L876 1546C898.882 1546 928.785 1550.01 948.999 1536.9C972.95 1521.36 966.433 1486.89 941 1477.44C923.798 1471.05 904.059 1472 886 1472L807 1472C807 1466.67 804.383 1451.32 809.318 1448.03C812.287 1446.05 817.611 1447 821 1447L850 1447L958 1447C958 1441.92 960.767 1423.11 955.682 1420.6C951.436 1418.51 943.653 1420 939 1420L900 1420L789 1420C769.235 1420 745.951 1417.95 728 1427.9C706.807 1439.66 704.611 1472.21 726 1485.07C745.741 1496.94 772.946 1494 795 1494L867 1494z"
     id="path140" />
  <path
     style="display:inline;fill:#ffffff;stroke:none"
     d="m 1059,1420 v 126 h 206 v -27 h -121 v -25 h 121 v -22 h -121 v -25 h 121 v -27 h -206 m 284,0 v 27 h 81 v 73 c 0,5.1 -2.65,21.6 1.6,24.97 2.78,2.21 9.07,1.03 12.4,1.03 h 31 29 c 2.8,0 7.98,0.92 9.97,-1.6 3.71,-4.69 1.03,-19.55 1.03,-25.4 v -72 h 81 v -27 h -247 m 416,126 v -25 c 0.01,-3.31 -0.51,-7.8 3.15,-9.4 22.22,-9.7 33.89,27.55 50.85,33.8 7.98,2.94 20.53,0.6 29,0.6 h 64 v -1 l -37,-35 c 38.42,-8.89 45.11,-68.88 9,-85.68 -16.5,-7.67 -38.3,-4.32 -56,-4.32 h -100 c -13.31,0 -32.12,-3.46 -44.85,0.32 -6.09,1.81 -3.15,22.37 -3.15,27.68 v 71 c 0,5.85 -2.68,20.71 1.03,25.4 3.05,3.85 16.44,1.6 20.97,1.6 z"
     id="path142" />
  <path
     style="display:inline;fill:#ffffff;stroke:none"
     d="m 2011,1546 h 63 c 4.53,0 17.92,2.25 20.97,-1.6 4.61,-5.82 1.03,-26.02 1.03,-33.4 h 44 c 4.01,0 12.37,-1.58 14.97,2.32 4.43,6.64 1.03,24.77 1.03,32.68 h 61 c 5.28,0 18.13,2.35 22.4,-1.03 4.64,-3.67 1.6,-23.31 1.6,-28.97 0,-27 7.6,-65.94 -15,-85.81 -13.64,-12 -32.14,-10.19 -49,-10.19 h -107 c -19.01,0 -38.61,0 -51.07,17 -9.03,12.31 -7.93,26.55 -7.93,41 z"
     id="path147" />
  <path
     style="display:inline;fill:#010000;stroke:none"
     d="m 1760,1448 v 41 h 38 c 5.84,0 12.72,0.95 18,-2.09 11.38,-6.56 11.83,-30.27 0,-36.63 -5.74,-3.09 -12.73,-2.28 -19,-2.28 z"
     id="path196" />
  <path
     style="display:inline;fill:#010000;stroke:none"
     d="m 2096,1489 h 59 v -28 l -1.03,-11.4 -11.97,-1.6 h -33 l -11.82,1.6 -1.18,11.4 z"
     id="path198" />
  <path
     style="fill:#7c1010; stroke:none;"
     d="M2101 1452L2101 1453L2150 1453L2150 1485L2151 1485L2151 1452C2135.58 1450.08 2116.37 1449.74 2101 1452z"
     id="path208" />
  <path
     style="display:inline;fill:#970000;stroke:none"
     d="m 1765,1453 v 32 h 43 l -1,-2 c 14.11,-0.05 17.88,-21.93 6.11,-28.45 -4.66,-2.58 -10.95,-1.55 -16.11,-1.55 z"
     id="path216" />
  <path
     style="display:inline;fill:#970000;stroke:none"
     d="m 2101,1453 v 32 h 49 v -32 z"
     id="path220" />
</svg>
