<?xml version="1.0" encoding="UTF-8" standalone="no"?>
<svg
   version="1.1"
   id="Layer_1"
   x="0px"
   y="0px"
   viewBox="0 0 89 89"
   xml:space="preserve"
   sodipodi:docname="wabco.svg"
   width="89"
   height="89"
   inkscape:version="1.3-dev (f3df6cc7, 2022-08-24)"
   xmlns:inkscape="http://www.inkscape.org/namespaces/inkscape"
   xmlns:sodipodi="http://sodipodi.sourceforge.net/DTD/sodipodi-0.dtd"
   xmlns="http://www.w3.org/2000/svg"
   xmlns:svg="http://www.w3.org/2000/svg"><defs
   id="defs4" /><sodipodi:namedview
   id="namedview4"
   pagecolor="#ffffff"
   bordercolor="#000000"
   borderopacity="0.25"
   inkscape:showpageshadow="2"
   inkscape:pageopacity="0.0"
   inkscape:pagecheckerboard="0"
   inkscape:deskcolor="#d1d1d1"
   showgrid="false"
   inkscape:zoom="6.5449438"
   inkscape:cx="15.12618"
   inkscape:cy="38.884979"
   inkscape:window-width="1920"
   inkscape:window-height="1177"
   inkscape:window-x="-8"
   inkscape:window-y="-8"
   inkscape:window-maximized="1"
   inkscape:current-layer="Layer_1" />
<style
   type="text/css"
   id="style1">
	.st0{fill:#00509D;}
	.st1{fill-rule:evenodd;clip-rule:evenodd;fill:#00509D;}
</style>
	<g
   id="Provia"
   transform="translate(0,36.363948)">
	<polygon
   class="st0"
   points="7,9.4 5.2,0.2 0,0.2 3.1,14.8 11,14.8 12.4,6.4 13.6,14.8 21.6,14.8 24.6,0.2 19.4,0.2 17.6,10.3 15.4,0.2 9.3,0.2 "
   id="polygon1" />
		<path
   class="st0"
   d="m 32.1,5 1.4,4.4 H 30.9 Z M 28.2,0.2 23.9,14.7 h 5.7 l 0.5,-2.3 h 4 l 0.5,2.3 h 6.1 L 36.1,0.2 Z"
   id="path1" />
		<path
   class="st1"
   d="m 41.4,0.2 h 10.1 c 2.4,0 4.4,0 4.4,3.5 0,2.7 -1.4,3.1 -1.4,3.1 1,0.9 1.6,2.3 1.6,3.8 0,4.2 -2.5,4.2 -4.7,4.2 h -10 c 0,0 0,-14.6 0,-14.6 z m 6.2,11.4 h 0.9 C 49.4,11.5 50,10.7 49.7,9.8 49.6,9.1 49,8.6 48.5,8.6 h -0.9 z m 0,-6.1 h 0.9 c 0.7,0 1.4,-0.6 1.4,-1.4 0,-0.7 -0.6,-1.4 -1.4,-1.4 v 0 h -0.9 z"
   id="path2" />
		<path
   class="st1"
   d="m 71.9,9.7 v 0.5 c 0.1,1.5 -0.3,2.8 -1.1,4 -1,0.8 -3.7,0.8 -5.5,0.8 -4.7,0 -7.9,0 -7.9,-5.2 V 5.2 C 57.3,0 58.9,0 65.3,0 c 4.4,0 6.5,0.1 6.6,4.4 V 5.3 H 66.2 V 4.8 C 66.1,3.5 65.8,3 64.8,3 63.4,3 63.4,3.5 63.4,4.8 V 10 c 0,1.4 0,1.8 1.4,1.8 1.1,0 1.4,-0.3 1.4,-1.8 V 9.7 Z"
   id="path3" />
		<path
   class="st1"
   d="M 73.1,5.2 C 73.1,0.1 75,0 81.1,0 86.3,0 89,0.1 89,5.2 v 4.5 c 0,5.2 -2.6,5.2 -7.9,5.2 -5.3,0 -7.9,-0.2 -7.9,-5.5 V 5.2 Z m 9.8,4.5 V 4.8 C 82.9,3.4 82.6,3 81.1,3 79.6,3 79.3,3.5 79.3,4.8 v 4.9 c 0,1.8 0.3,2.3 1.8,2.3 1.5,0 1.8,-0.6 1.8,-2.3 z"
   id="path4" />
</g>
</svg>
