<?xml version="1.0" encoding="UTF-8" standalone="no"?>
<svg
   id="svg--logo"
   class="noindex"
   viewBox="0 0 60 60"
   version="1.1"
   sodipodi:docname="zf.svg"
   width="60"
   height="60"
   inkscape:version="1.3-dev (f3df6cc7, 2022-08-24)"
   xmlns:inkscape="http://www.inkscape.org/namespaces/inkscape"
   xmlns:sodipodi="http://sodipodi.sourceforge.net/DTD/sodipodi-0.dtd"
   xmlns="http://www.w3.org/2000/svg"
   xmlns:svg="http://www.w3.org/2000/svg">
  <defs
     id="defs1" />
  <sodipodi:namedview
     id="namedview1"
     pagecolor="#ffffff"
     bordercolor="#000000"
     borderopacity="0.25"
     inkscape:showpageshadow="2"
     inkscape:pageopacity="0.0"
     inkscape:pagecheckerboard="0"
     inkscape:deskcolor="#d1d1d1"
     showgrid="false"
     inkscape:zoom="2.7009161"
     inkscape:cx="120.14442"
     inkscape:cy="10.181731"
     inkscape:window-width="1920"
     inkscape:window-height="1177"
     inkscape:window-x="-8"
     inkscape:window-y="-8"
     inkscape:window-maximized="1"
     inkscape:current-layer="svg--logo" />
  <title
     id="title1">ZF-LOGO--AFTERMARKET</title>
  <path
     id="path1"
     d="M 30,0 C 13.400102,0 0,13.400102 0,30 0,46.599898 13.400102,60 30,60 46.599898,60 60,46.599898 60,30 60,13.400102 46.599898,0 30,0 Z m 0,2.9003906 c 8.599946,0 16.300811,4.1004294 21.300781,10.4003904 h -19.40039 v 27.09961 H 40 v -10.5 h 7.400391 V 26.199219 H 40 v -9.298828 h 13.699219 c 2.199988,3.899976 3.40039,8.399639 3.40039,13.099609 0,4.69997 -1.200402,9.199633 -3.40039,13.099609 H 19 L 31.099609,13.300781 H 8.6992188 C 13.699189,7.00082 21.400054,2.9003906 30,2.9003906 Z M 6.3007812,16.900391 H 20.900391 L 8.8007812,46.699219 H 51.300781 C 46.300811,52.999177 38.599946,57.099609 30,57.099609 15.00009,57.099609 2.9003906,44.99991 2.9003906,30 c 0,-4.69997 1.2004039,-9.199633 3.4003906,-13.099609 z"
     style="fill:#2f4ce3;fill-opacity:1" />
</svg>
