<?xml version="1.0" encoding="UTF-8" standalone="no"?>
<svg
   width="958"
   height="958"
   version="1.1"
   id="svg230"
   sodipodi:docname="favicon.svg"
   inkscape:version="1.3-dev (f3df6cc7, 2022-08-24)"
   inkscape:export-filename="AnyConv.com__LOGO2.png"
   inkscape:export-xdpi="51.306889"
   inkscape:export-ydpi="51.306889"
   xmlns:inkscape="http://www.inkscape.org/namespaces/inkscape"
   xmlns:sodipodi="http://sodipodi.sourceforge.net/DTD/sodipodi-0.dtd"
   xmlns="http://www.w3.org/2000/svg"
   xmlns:svg="http://www.w3.org/2000/svg">
  <defs
     id="defs230" />
  <sodipodi:namedview
     id="namedview230"
     pagecolor="#ffffff"
     bordercolor="#000000"
     borderopacity="0.25"
     inkscape:showpageshadow="2"
     inkscape:pageopacity="0.0"
     inkscape:pagecheckerboard="0"
     inkscape:deskcolor="#d1d1d1"
     showgrid="false"
     inkscape:zoom="0.69677328"
     inkscape:cx="540.34793"
     inkscape:cy="571.92205"
     inkscape:window-width="1920"
     inkscape:window-height="1177"
     inkscape:window-x="-8"
     inkscape:window-y="-8"
     inkscape:window-maximized="1"
     inkscape:current-layer="svg230" />
  <path
     style="fill:#ffffff; stroke:none;"
     d="M0 0L0 958L958 958L958 0L0 0z"
     id="path1" />
  <path
     style="fill:#ffb605;stroke:none"
     d="m 169.5515,160.3588 c 68.09883,69.68368 144.95703,145.08507 208.1625,210.1362 8.495,8.679 17.32861,17.34012 25.14461,26.51412 3.297,3.871 12.58851,14.31022 16.26039,17.64488 2.968,-1.66208 5.229,-2.742 7.047,-4.45 23.25594,-20.29361 49.76017,-42.95053 70.834,-60.834 6.049,-4.671 17.52002,-13.94659 20.378,-20.616 0.441,-3.435 -3.909,-8.269 -6.093,-10.637 -38.78776,-41.50116 -80.94212,-85.11173 -117.763,-121.862 -1.977,-1.945 -5.719,-4.849 -3.071,-7.722 4.638,-5.03 20.66029,-9.23337 27.29529,-10.09837 10.12554,-1.66142 18.2543,-3.35402 27.0103,-4.38202 13.462,-1.581 26.49021,-0.91598 39.64121,0.023 10.277,0.734 21.5492,2.45337 31.5482,5.22337 17.114,4.739 25.29679,6.2839 41.50779,13.9929 6.935,3.298 24.63621,12.3621 30.91621,16.5691 17.452,11.69 33.532,27.19142 46.921,43.20642 6.829,8.168 14.419,17.56358 19.719,26.93258 15.348,27.129 20.99,57.198 20.99,88 29.592,0 62.028,5.539 91,11.513 13.524,2.789 27.097,8.2 41,8.487 V 159 c 0,-4.257 1.779,-13.788 -1.028,-17.258 C 804.905,139.187 800.3215,139.8216 797,140 H 768 650 294 194 c -10.42376,0 -31.05104,-0.99192 -39.9501,0.4236 -4.98444,1.95208 -1.8803,4.65135 3.49959,9.35665 4.35118,3.80558 10.17347,9.28825 12.00201,10.57855 z"
     id="path8"
     sodipodi:nodetypes="ccccccccccccccscccccccsccccscsc" />
  <path
     style="fill:#666666;stroke:none"
     d="m 149,171 v 358 c 13.84,-6.547 26.35828,-17.29229 39.19428,-25.65629 18.432,-10.71494 37.28143,-22.152 55.04443,-32.20227 C 252.79471,466.26144 265.803,454.458 277,456 c -2.597,-8.768 -8.478,-16.457 -11.768,-25 -7.784,-20.206 -13.633,-45.232 -12.142,-67 1.143,-16.703 2.903,-34.152 8.722,-50 1.903,-5.183 10.012,-18.306 8.197,-23.486 -1.204,-3.437 -11.91628,-14.56194 -14.42028,-17.09394 C 216.27802,236.5451 180.33812,208.4601 151,171 Z"
     id="path13"
     sodipodi:nodetypes="cccccccscccc" />
  <path
     style="fill:#fe9903;stroke:none"
     d="m 676,368 c 0,17.595 -1.899,35.639 -9.184,52 -4.392,9.863 -8.242,19.92 -12.074,30 -1.442,3.792 -4.542,6.76 -4.639,11 -0.118,5.154 3.603,7.538 6.754,10.959 43.09189,41.16273 142.73297,156.22318 148.63244,160.00687 3.41646,1.55561 1.97308,0.79082 2.51056,1.03413 V 388 c -13.564,-0.582 -26.776,-5.76 -40,-8.487 C 738.657,373.462 705.97,368 676,368 Z"
     id="path95"
     sodipodi:nodetypes="cccsccccsc" />
  <path
     style="fill:#333333;stroke:none"
     d="M 149,800 H 731 C 726.619,792.14 719.922,786.901 714.466,779.961 652.06553,706.64398 594.29702,636.74264 536.414,569.96 531.422,564.208 527.33,554.251 520,551.118 c -3.938,-1.683 -9.929,0.851 -14,1.455 -9.967,1.476 -19.889,3.165 -30,3.412 -33.707,0.826 -67.681,-1.926 -99,-15.487 -27.507,-11.911 -52.666,-28.8 -73.791,-50.074 -6.975,-7.024 -13.679,-15.105 -19.061,-23.423 -2.225,-3.439 -5.13,-10.008 -9.332,-11.294 -7.687,-2.353 -24.363,11.021 -30.855,14.78 -22.77,13.184 -45.367,25.83 -67.54,40.05 -7.569,4.854 -22.74383,10.72958 -27.40783,18.50358 C 148.87167,535.61282 149,544.384 149,550 Z"
     id="path127"
     sodipodi:nodetypes="cccccccccccccccc" />
</svg>
