<svg width="264" height="413" viewBox="0 0 2646 4136" xmlns="http://www.w3.org/2000/svg">
  <path style="display:inline;fill:#fff;stroke:none;stroke-width:.751969" d="M0 0v4136.333h1055.037c0-112.151.848-224.405 0-336.547-.295-38.797-.602-77.697-.602-116.57 0-20.587-1.42-42.716 1.204-62.984 4.306-33.213 20.559-60.447 41.503-69.416 8.253-3.534 16.794-2.97 25.263-2.97 0-17.279-1.01-34.943 2.063-51.704 6.004-32.734 25.991-53.585 47.26-53.585 0-35.347-1.148-70.806-.595-106.228.86-54.863 2.244-110.788-1.311-165.454-5.889-90.566-23.453-178.539-30.466-268.861-4.788-61.735-5.01-124.043-6.749-186.135-1.63-58.087-4.788-115.62-4.788-173.914 0-66.069 6.111-129.787 16.62-193.656 3.8-23.097 6.574-56.357 21.274-69.086 14.49-12.54 33.679.065 48.12 6.101-5.46-10.059-14.592-16.912-21.052-25.655-13.293-17.974-25.059-38.74-34.682-61.772-43.784-104.828-38.791-243.263 11.59-340.307 15.327-29.519 34.268-53.81 55.573-72.095 6.647-5.706 13.468-10.453 20.452-15.07 2.099-1.381 6.273-2.218 7.025-6.11 2.599-13.452.192-33.654.192-47.737v-454.056H1127.82v-78.967l68.913 1.096-1.052-95.651-67.861.548v-78.026h125.112v-95.888h120.903v823.506c0 7.634-1.161 17.918.192 25.26 1.035 5.612 11.555 9.279 14.845 11.412 12.818 8.339 25.083 20.372 36.09 33.505 30.424 36.315 53.137 86.412 64.963 143.22h.601c-.01-20.522-.848-39.981 5.005-59.224 9.04-29.726 40.926-61.848 60.56-38.506 10.159 12.08 16.823 31.041 23.217 47.906 13.366 35.253 24.614 72.78 35.543 109.99 16.27 55.379 32.277 110.966 47.11 167.333 8.644 32.846 18.496 66.35 22.484 101.528 11.416 100.804.367 202.389.367 303.644h.602c3.584-24.226 10.297-47.868 15.326-71.446a8328 8328 0 0 1 30.725-138.19c19.26-83.31 35.951-171.884 63.007-250.06 6.388-18.454 14.262-36.316 22.67-52.645 4.073-7.906 9.15-17.053 15.64-19.94 7.296-3.242 15.964 3.818 23.458 3.959 12.343.225 23.243-3.911 29.913 16.921 8.343 26.068 4.668 56.893.385 83.667-6.4 40.028-13.78 79.709-21.022 119.39-22.503 123.347-52.993 244.184-90.635 358.168-13.317 40.32-27.248 80.245-41.955 119.39-8.09 21.528-19.777 44.296-25.257 67.685 8.012-5.264 15.332-15.972 22.256-24.094 16.09-18.858 31.32-39.436 46.315-60.353 29.113-40.64 56.373-84.362 83.616-128.01 17.353-27.798 35.867-54.449 51.566-84.607 17.594-33.795 33.92-68.747 53.69-99.648 13.883-21.687 28.656-40.047 48.722-43.083 20.108-3.046 35.73 10.106 43.994 39.323 2.448 8.668 4.83 17.702 3.52 27.262-2.557 18.53-9.932 35.075-16.422 50.764-10.19 24.659-20.872 48.819-32.072 72.386-55.326 116.4-119.753 219.809-183.705 324.326-20.879 34.125-41.684 68.353-62.557 102.469-11.729 19.168-25.696 38.486-35.464 60.164 16.613-7.426 32.818-21.894 48.722-32.498 28.878-19.262 57.924-38.393 86.014-60.334 28.506-22.28 56.434-46.534 85.414-67.272 19.519-13.97 39.567-28.146 61.353-28.804 5.757-.169 13.294 1.777 18.045 7.135 4.668 5.265 6.924 14.045 9.21 21.96 5.124 17.787 8.625 33.618 3.494 52.645-8.926 33.128-32.24 53.471-50.598 72.386-105.883 109.095-226.64 178.172-337.444 273.27-31.374 26.933-62.85 55.68-90.827 90.727-10.803 13.528-26.171 33.598-31.278 54.336 8.854 0 24.944-4.813 32.481 3.432 6.9 7.548 6.015 18.83 6.015 30.41v71.447c22.761 0 46.43-.95 55.29 39.483 3.886 17.74 1.853 39.793 1.853 58.285v490.719h1017.744V0Z"/>
  <path style="fill:#ffd03c;stroke:none" d="m1579.083 86.333-7 67 61-10.996 18.97-4.745 1.03-12.259v-33zm-937.001 67 52.59 64 105.33 126 70 84 36.08 42c-6.54-22.688-22.91-45.016-33.74-66-24.48-47.424-50.01-94.343-74.01-142-9.63-19.128-19.84-37.966-29.66-57-3.31-6.42-7.1-18.764-12.98-23.062-7.95-5.816-24.09-6.43-33.61-8.812-26.15-6.538-53.3-15.528-80-19.126m807.001 308h1c39.87-63.568 85.44-124.21 128.03-186 16.58-24.069 38.48-48.592 50.97-75-18.02.05-35.99 3-54 3-6.55 0-20-1.68-25.58 2.028-4.34 2.884-6.14 13.264-8.02 17.972-6.38 15.957-12.71 31.938-18.82 48-15.91 41.802-32.37 83.473-48.98 125-8.18 20.447-20.87 43.31-24.6 65m-1022.001 144 5.73 39 3.29 16.582 13.98 6.997 42 16.421-13-62zm1324 183v1l118-34.58 267-78.42c-13.06-17.022-38.72-29.399-56-42.116-5.19-3.819-14.36-13.465-21-13.683-6.83-.223-17.07 8.441-23 11.635-20.08 10.814-39.95 21.988-60 32.855-75.06 40.693-151.28 80.24-225 123.31m-1217-146.001 18 67 34 5.855 111 18.9 40 6.245v-1c-46.06-19.177-91.37-42.93-136-65.247-21.17-10.585-44.29-25.209-67-31.753m693.001 68v102h-208v83l104.663.583 4.078 32.05c2.436 19.145 4.438 69.459-4.513 68.515-11.359.872-97.448-.148-104.228-.148v82h208v537c-15.36 2.27-31.54 11.3-45 18.69-30.12 16.55-58.06 36.72-81.17 62.31-37.02 40.99-64.93 90.53-76.16 145-28.6 138.68 41.78 284.75 171.33 344.69 114.99 53.2 259.59 29.95 348.91-61.73 32.52-33.38 57.21-72.95 72.43-116.96 8.72-25.19 15.99-53.19 16.65-80 2.33-95.51-29-182.79-99.99-248.91-22.35-20.82-48.58-37.56-76-50.83-7.41-3.58-15.25-6.79-23-9.57-3.3-1.18-7.6-1.94-8.68-5.8-2.29-8.15-.32-19.43-.32-27.89v-874z"/>
  <path style="fill:#feab83;stroke:none" d="M1189.083 2181.333c-9.26-3.6-16.97-10.08-26-13.85-21.58-9.01-58.75-18.2-81-7.66-25.45 12.07-30.11 49.16-36.37 73.51-18.04 70.17-26.63 138.53-26.63 211 0 68.36 4.98 135.87 7.96 204 2.78 63.37 3.27 127.06 12.34 190 12.58 87.31 39.02 173.16 47.53 261 9.6 99.08 4.17 199.61 4.17 299h422c41.38 0 82.67-1 124-1h37c5.03 0 12.18 1.28 16.91-.6 5.3-2.11 9.25-10.09 12.69-14.4 8.12-10.16 16.74-20.09 26.4-28.83 29.52-26.71 63.12-48.6 97-69.36 120.52-73.84 249.88-129.5 376-192.56 92.57-46.29 185.72-92.73 272-150.25 30.39-20.26 76.3-51.19 69.56-94-1.23-7.81-4.46-14.81-7.56-22-4.17-9.65-8.19-21.91-17.01-28.36-9.25-6.77-21.12-6.64-31.99-6.64-27.95 0-52.38 8.44-78 19.01-62.24 25.68-120.45 60.43-181 89.73-67.92 32.86-138.19 62.62-208 91.26 58.59-58.59 113.75-121.09 171.04-181 102.79-107.49 205.64-213.69 295.09-333 19.47-25.98 37.94-52.73 55.56-80 10.16-15.72 22.16-32.56 26.56-51 5.78-24.21-12.14-56.68-33.25-68.1-9.28-5.02-20.61-6.41-31-6.86-40.51-1.77-69.4 19.36-97 46.96-31.83 31.83-58.4 67.94-86.45 103-40.35 50.44-89.91 95.36-135.55 141-62.67 62.67-128.07 130.14-204 177 35.59-66.87 76.94-130.57 111.74-198 64.16-124.31 114.54-255.67 153.26-390 9.57-33.21 19.02-66.52 27.63-100 5.03-19.55 11.37-38.7 11.37-59 0-18.93.81-41.18-11.53-57-11.84-15.18-29.07-9.61-45.47-10.01-12.91-.32-27.28-7.82-40-4.2-10.85 3.08-19.03 12.76-25.8 21.21-14.08 17.57-27.6 36.96-37.94 57-49.06 95.05-79.72 199.85-116.31 300-15.25 41.73-29.45 83.89-43.62 126-6.7 19.9-17.26 41.21-20.33 62-2.83-9.58-.25-20.24-.01-30 .52-21.38 1.46-42.69 2.92-64 4.09-59.64 7.88-123.35 1.92-183-6.14-61.39-27.29-115.42-50.82-172-23.8-57.22-48.76-114.23-75.75-170-21.29-44-40.96-89.23-68.26-130-13.42-20.04-29.73-39.46-56-36.83-11.2 1.12-22.33 6.79-32 12.25-38.29 21.63-51.28 60.09-46.31 102.58 1.87 16 8.95 31.74 11.02 48 2.52 19.73 3.7 39.4 7.38 59 14.31 76.02 48.17 146.76 71.57 220 18.44 57.72 29.2 118.66 33.43 179 2.04 29.06 2.91 57.8 2.91 87 0 10.19 2.89 25.74-1.71 35-11.87 23.9-29.07 46.36-43.24 69-28.61 45.71-57.1 91.47-86 137-12.6 19.86-25.67 39.42-38.72 59-5.77 8.66-11.48 21.21-20.34 27.03-8.44 5.54-19.4 5.21-28.99 6.14-12.01 1.16-24.15 4.07-36 6.29-34.46 6.45-72.45 13.86-107 4.11-84.84-23.93-127.42-120.62-130.96-201.57-1.17-26.71 2.76-53.39 3.92-80 1.55-35.49.55-71.66-1.87-107-2.33-33.96-4.09-67.97-13.52-101-5.92-20.76-16.08-40.49-30.01-57-5.98-7.09-20.73-15.55-23.56-24"/>
  <path style="fill:#fff;stroke:none" d="M1306.083 1759.763c-19.73 2.69-39.08 9.29-56 19.89-83.19 52.13-96.49 172.72-21 238.39 14.77 12.85 32.48 22.87 51 29.21 23.09 7.91 48.07 8.36 72 4.91 18.24-2.63 36.34-10.41 52-19.83 15.92-9.58 29.48-22.17 40.62-37 43.65-58.1 37.81-142.49-13.66-193.96-19.95-19.95-44.91-32.17-71.96-38.94-16.41-4.1-36.16-4.97-53-2.67m328 134.57c6.95 161.84-122.53 308.52-285 319.91-35.99 2.52-73.33-1.19-108-11.63-18.12-5.46-35.01-15.1-53-20.28v1c47.97 35.56 60.8 91.83 66.17 148 3.55 37.11 5.73 74.65 4.82 112-1.75 71.13-14.24 142.1 18.37 209 8.47 17.38 20.02 33.23 32.39 48 13.17 15.72 27.96 30.5 46.25 40.22 48.25 25.63 101.11 13.47 152 4.39 14.6-2.6 40.32-.91 51.83-11 12.38-10.85 21.07-29.95 30.17-43.61 22.41-33.61 43.34-68.13 65.34-102 21.61-33.26 42.11-67.33 63.08-101 8.53-13.69 23.83-30.49 28.08-46 2.45-8.94.5-20.75.5-30 0-23.16-.95-45.95-1.96-69-2.55-58.36-10.77-117.57-26.46-174-13.79-49.58-33.68-97.4-50.5-146-10-28.89-18.74-58.3-25.95-88-2.86-11.79-1.98-29.74-8.13-40"/>
  <path style="fill:#f5f7f4;stroke:none" d="M1009.083 3510.333h747v-77c0-11.56 1.74-23.71-9.01-31.35-12.24-8.68-38.58-3.65-52.99-3.65h-487c-31.04 0-61.94 1-93 1-21.47 0-40.96-2.65-61 7.11-42.97 20.91-44 62.44-44 103.89"/>
  <path style="fill:#282e3a;stroke:none" d="M898.082 4136.333h952v-545c0-20.78 1.48-41.76-12.29-59-18.01-22.54-42.68-21-68.71-21h-746c-42.22 0-81.34.29-108.84 38-17.65 24.21-17.16 51.45-17.16 80v90c0 138.99 1 278.1 1 417"/>
  <path style="fill:#fff;stroke:none;stroke-width:.418115" d="M1025.393 3604.404c-8.25 1.125-16.34 3.885-23.414 8.317-34.783 21.796-40.344 72.216-8.78 99.674 6.175 5.373 13.58 9.562 21.323 12.213 9.654 3.307 20.099 3.496 30.104 2.053 7.627-1.1 15.195-4.353 21.742-8.291 6.657-4.006 12.326-9.27 16.984-15.47 18.25-24.293 15.81-59.578-5.711-81.098-8.342-8.341-18.778-13.45-30.088-16.281-6.861-1.715-15.119-2.078-22.16-1.117"/>
</svg>
