<?xml version="1.0" standalone="yes"?>
<svg width="750" height="420">
<path style="fill:#0390d6; stroke:none;" d="M0 0L0 420L135 420C155.577 420 179.807 423.559 200 419.726C207.354 418.33 215.066 413.674 222 410.811C236.622 404.773 251.616 399.128 266 392.613C278.187 387.093 288.588 380 302 380L295 363L294 366C288.185 364.616 278.253 367.158 273.549 363.297C267.879 358.643 270 347.387 270 341L270 296C270 290.588 271.572 282.139 268.821 277.285C261.859 265.004 246.566 255.126 237.687 243.715C230.585 234.589 226.505 222.154 220.742 212.054C217.257 205.949 210.958 201.633 210.319 194.015C209.787 187.675 229.962 171.617 236.004 170.336C239.06 169.687 242.144 171.109 245 172C244.159 181.843 253.112 183.705 254.678 192.001C255.95 198.734 248.602 203.54 248.692 210C248.743 213.674 251.774 217.713 253.498 220.83C258.229 229.381 262.543 244.831 271 250C266.614 195.63 270 139.622 270 85L270 44C270 39.1474 268.568 31.4268 271.742 27.3441C277.544 19.8806 301.326 24 310 24L422 24C431.773 24 458.902 19.1146 463.231 30.2894C465.708 36.6812 464 46.2156 464 53L464 104L464 278L464 335C464 341.797 466.044 352.706 462.682 358.826C458.309 366.786 444.532 364 437 364L374 364C367.172 364 355.591 366.236 350 362L349 362L344 381L360 384L360 387C348.471 392.522 332.451 409.501 325 420L750 420L750 0L0 0z"/>
<path style="fill:#23a0d8; stroke:none;" d="M270 244L271 244L271 88L271 47C271 41.5993 269.748 33.8872 272.938 29.1481C275.597 25.1983 280.857 26.0003 285 26L317 26L415 26C429.753 26 448.305 22.9142 462 29C460.33 23.7129 455.907 24.0082 451 24L420 24L310 24C301.7 24 277.502 19.9263 271.742 26.5725C268.619 30.1772 270 37.5849 270 42L270 80L270 192C270 208.106 266.632 228.454 270 244z"/>
<path style="fill:#37a9e0; stroke:none;" d="M271 252L273 232L273 189L273 87L273.274 38.0895L278 27L456 27C445.02 22.3926 425.944 26 414 26L316 26L285 26C281.301 26 275.498 24.9441 272.938 28.3179C269.76 32.5072 271 40.0913 271 45L271 84L271 200C271 215.607 267.062 237.131 271 252z"/>
<path style="fill:#55b6e3; stroke:none;" d="M278 27C269.492 49.0975 273 75.1475 273 99L273 232L274 232C274.052 226.14 276.381 220.806 276.544 215C277.716 173.184 276 130.889 276 89L276 51C276 45.8506 274.753 38.7348 277.653 34.189C282.858 26.0281 304.461 30 313 30L419 30L448 30C451.971 30.0018 456.311 29.4601 458.852 33.1481C463.147 39.3816 461 50.7916 461 58L461 120C461 199.323 461.636 278.766 460 358C463.499 351.419 462 342.255 462 335L462 285L462 104L462 47C462 42.3997 464.078 30.9615 459.682 28.0278C456.332 25.7923 449.843 27 446 27L411 27L278 27z"/>
<path style="fill:#27a4db; stroke:none;" d="M462 29C466.641 65.7234 463 104.966 463 142L463 358L464 358L464 29L462 29z"/>
<path style="fill:#81c8eb; stroke:none;" d="M276 213L277 213L282.826 188L283 141L284 37L411 37C421.333 37 431.667 37.0444 442 36.9992C445.18 36.9853 450.436 35.6827 452.682 38.6119C455.675 42.5142 454 51.3456 454 56L454 102L454 281L454 332C454 336.59 455.905 346.888 452.397 350.397C448.208 354.585 433.602 352 428 352C404.814 352 376.548 356.368 354 351L350 364C356.945 360.137 367.249 362 375 362L431 362C436.839 362 454.976 364.978 458.544 359.682C462.146 354.335 461 345.097 461 339L461 291L461 107L461 54C461 47.7824 462.918 37.5547 458.852 32.3179C456.551 29.3547 452.329 30.0015 449 30L423 30L317 30C308.451 30 281.695 25.5867 277.14 34.189C274.834 38.543 276 45.2264 276 50L276 85L276 213z"/>
<path style="fill:#3dafe1; stroke:none;" d="M462 32L462 278L462 338C462 344.91 463.711 355.623 457.387 360.486C451.634 364.91 436.045 362 429 362L351 362L351 364L433 364C440.009 364 456.322 367.008 461.397 361.276C465.069 357.127 463 346.217 463 341L463 284L463 106L463 55C463 48.049 464.701 38.4362 462 32z"/>
<path style="fill:#98c7dc; stroke:none;" d="M284 37L284 38L410 38L440 38L452 36L391 37L284 37z"/>
<path style="fill:#f9fefd; stroke:none;" d="M284 38L284 41C297.245 41.5775 311.368 48.0904 324 51.9753C341.537 57.3687 359.575 60.7103 377 65.7107C386.9 68.5516 401.929 76.5418 412 75L411 176L412 176L412 173C419.623 173.184 441.386 186.447 441.303 195.001C441.235 202.045 435.677 207.568 432.101 212.959C428.11 218.976 425.881 225.953 422.115 232C418.977 237.038 413.374 241.122 410.857 246.439C408.493 251.434 410 259.578 410 265L410 308C403.887 308.551 400.486 312.37 394.985 314.373C386.269 317.548 373.557 319.909 366.225 325.6C360.579 329.982 356.033 345.107 355 352L389 351L453 351L453 38L284 38z"/>
<path style="fill:#afd4e3; stroke:none;" d="M453 38L453 351L454 351L454 130L454 66L453 38z"/>
<path style="fill:#7b8e98; stroke:none;" d="M284 41L284 42L290 42L284 41z"/>
<path style="fill:#6096b8; stroke:none;" d="M283 42L283 188L284 188L284 86C284 73.5323 287.807 53.4559 283 42z"/>
<path style="fill:#0c3250; stroke:none;" d="M284 42L283.91 184L274 243L275 243C277.877 227.501 279.064 213.094 283.63 197.996C285.298 192.478 285.574 186.915 289.634 182.376C300.926 169.75 313.07 178.711 325.852 175.643C328.716 174.955 328.809 172.447 329 170L334 171L327 165C327.296 167.584 328.306 171.229 325.667 172.958C322.033 175.339 315.046 172.218 311 172.039C302.387 171.659 296.931 174.038 290 179L290 90L289 42L284 42z"/>
<path style="fill:#0c5784; stroke:none;" d="M289 42C294.617 86.4432 290 134.176 290 179L309 172.015L326.393 172.971L327 165C329.435 166.546 332.285 169.731 335.15 170.288C343.992 172.006 337.483 157.843 336 155L351 159L351 158C348.228 156.195 337.852 149.723 335.708 155.434C334.49 158.68 337.814 164.406 338 168L334 168C333.272 163.638 331.176 163.137 327 163C335.235 131.238 321.779 93.451 331 61L326 55L334 56L319 50.4421L289 42z"/>
<path style="fill:#8facc0; stroke:none;" d="M292.667 42.3333L293.333 42.6667L292.667 42.3333z"/>
<path style="fill:#84acbc; stroke:none;" d="M302.667 45.3333L303.333 45.6667L302.667 45.3333z"/>
<path style="fill:#a4c8d9; stroke:none;" d="M309.667 47.3333L310.333 47.6667L309.667 47.3333z"/>
<path style="fill:#7fb2c8; stroke:none;" d="M312.667 48.3333L313.333 48.6667L312.667 48.3333z"/>
<path style="fill:#5f8c9a; stroke:none;" d="M318.667 50.3333L319.333 50.6667L318.667 50.3333z"/>
<path style="fill:#096c9a; stroke:none;" d="M326 55L331 61C326.412 71.2517 328 82.852 328 94C328 116.645 330.238 141.137 327 163C330.952 163.301 332.822 164.118 334 168L338 168C337.7 155.221 335.075 151.692 350 157L346 153C347.216 147.299 344.038 141.853 344.001 136C343.896 119.668 344 103.332 344 87C344 81.8507 341.494 67.2446 346.318 64.0278C351.057 60.8676 359.806 64.5867 365 65C355.549 57.9586 337.534 55.401 326 55z"/>
<path style="fill:#a0c7d5; stroke:none;" d="M336.667 55.3333L337.333 55.6667L336.667 55.3333z"/>
<path style="fill:#71a7b7; stroke:none;" d="M342.667 57.3333L343.333 57.6667L342.667 57.3333z"/>
<path style="fill:#71a4ba; stroke:none;" d="M352.667 60.3333L353.333 60.6667L352.667 60.3333z"/>
<path style="fill:#86bfce; stroke:none;" d="M356.667 61.3333L357.333 61.6667L356.667 61.3333z"/>
<path style="fill:#087ca9; stroke:none;" d="M346 153C351.687 157.39 360.84 166.198 363.272 173C365.004 177.843 362.932 183.255 365.164 188C369.552 197.331 376.97 207.361 368 217L368 218L373 235L374 235C373.502 223.409 376.141 209.402 373.725 198.17C372.741 193.593 368.845 190.077 367.049 185.83C364.069 178.78 365.032 167.643 368 161L363 163L364 78L360 69L367 69L367 68L364 67L364 66L387 71C382.605 68.3146 376.948 67.3952 372 66.0008C366.581 64.4736 350.417 60.215 345.603 64.0278C341.545 67.2422 344 82.1866 344 87C344 103.992 343.721 121.011 344.005 138C344.092 143.219 346.525 147.788 346 153z"/>
<path style="fill:#7bc2dc; stroke:none;" d="M366.667 64.3333L367.333 64.6667L366.667 64.3333z"/>
<path style="fill:#d3ffff; stroke:none;" d="M368 64L368 65L394 72C388.905 66.6429 375.251 64.3162 368 64z"/>
<path style="fill:#0295c5; stroke:none;" d="M364 66L364 67L367 68L367 69L360 69C360.231 73.1321 359.575 76.5305 364 78L363 163L368 161C359.313 174.798 371.077 186.411 373.725 199.09C375.221 206.252 372.481 213.011 372.47 220C372.448 233.468 376 246.465 376 260L387.797 245L409 207C402.289 202.036 394.982 188.101 408 186C411.299 159.893 409 132.321 409 106C409 99.431 411.987 83.0302 407.972 77.7029C405.795 74.8138 400.223 74.497 397 73.4923C386.813 70.3165 374.509 67.4232 364 66z"/>
<path style="fill:#d6ffff; stroke:none;" d="M394 72L394 73L410 77L410 177L411 177L412 75L394 72z"/>
<path style="fill:#7cc1d5; stroke:none;" d="M396.667 73.3333L397.333 73.6667L396.667 73.3333z"/>
<path style="fill:#5ebacd; stroke:none;" d="M409 77L409 180L410 180L410 108L409 77z"/>
<path style="fill:#1a2546; stroke:none;" d="M336 155C339.33 164.044 341.84 171.577 329 170C327.639 178.535 320.122 174.317 314 174.039C305.743 173.665 295.602 175.327 289.634 181.598C285.229 186.227 285.214 192.293 283.311 197.996C278.342 212.892 276.972 227.397 275 243L351 243C350.533 239.303 347.84 220.918 356.801 224.407C361.743 226.332 360.422 233.239 366 235C366 230.851 365.342 226.033 366.509 222.015C367.892 217.254 371.578 214.227 371.946 209C372.665 198.79 367.992 194.83 364.738 186C363.085 181.514 364.881 176.501 363.272 172C359.579 161.67 346.347 155.243 336 155z"/>
<path style="fill:#a3dff2; stroke:none;" d="M398.274 163.086C394.67 165.253 396.164 175.499 400.58 172.839C404.102 170.717 403.27 160.083 398.274 163.086z"/>
<path style="fill:#277faf; stroke:none;" d="M216 205C210.931 190.831 215.324 188.013 226.985 179.441C231.258 176.301 236.396 169.101 241.487 175.149C244.999 179.322 253.811 190.641 252.576 196C251.496 200.691 245.77 204.152 245.954 209C246.261 217.072 255.657 228.437 260 235L261 235L249.289 211L254.696 191.004L245 172C231.375 166.227 196.783 192.564 216 205z"/>
<path style="fill:#cdc0c7; stroke:none;" d="M232 176C236.42 174.233 238.82 174.913 243 177C240.411 171.867 235.033 170.5 232 176z"/>
<path style="fill:#f8ac88; stroke:none;" d="M412 173C411.333 176.538 411.181 180.804 409.143 183.871C406.839 187.339 403.406 188.389 403.062 193.005C401.93 208.23 421.963 215.593 433.816 208.697C439.077 205.636 444.039 195.79 440.254 190.171C436.903 185.197 430.674 183.149 426.174 179.511C421.115 175.422 418.773 173.061 412 173M234 175.042C228.158 177.75 214.355 187.152 213.361 194.001C211.294 208.247 229.823 213.043 239.946 208.714C252.52 203.337 252.539 191.914 245.718 182.791C242.746 178.815 240.486 172.037 234 175.042z"/>
<path style="fill:#bcbfc5; stroke:none;" d="M212 197L213 197C214.557 186.338 226.211 183.797 232 176C223.312 179.848 212.328 186.687 212 197z"/>
<path style="fill:#d2c5c0; stroke:none;" d="M410 177L408 186L409 186L410 177z"/>
<path style="fill:#cec0b2; stroke:none;" d="M409 207C405.126 200.716 398.667 191.707 408 187C397.007 182.765 401.681 203.408 409 207z"/>
<path style="fill:#c7b8b1; stroke:none;" d="M251 188C250.996 194.686 250.549 200.651 244 204L244 208C250.004 203.679 256.401 195.129 251 188z"/>
<path style="fill:#48749a; stroke:none;" d="M282.333 190.667L282.667 191.333L282.333 190.667z"/>
<path style="fill:#85a9aa; stroke:none;" d="M400 190L400 195L401 195L400 190z"/>
<path style="fill:#ccc1ba; stroke:none;" d="M213 198L220 210L213 198z"/>
<path style="fill:#406d8d; stroke:none;" d="M279.333 200.667L279.667 201.333L279.333 200.667z"/>
<path style="fill:#497ea1; stroke:none;" d="M216 205L218 208L216 205z"/>
<path style="fill:#d9fdf3; stroke:none;" d="M437 205C429.164 213.911 418.957 209.938 409 208C398.701 225.645 389.117 250.046 374 264C372.98 259.339 354.654 262.131 350 262.778C324.648 266.299 298.386 261 273 261C272.672 247.057 258.887 232.808 252.15 221C250.179 217.545 247.738 209.878 243.787 208.356C237.964 206.114 227.185 210.711 220 209C223.095 226.354 241.018 247.697 253.015 260C258.402 265.525 267.291 271.301 270.987 278.039C274.705 284.818 275.005 297.297 276 305C299.013 312.244 324.846 318.43 349 313.6C355.481 312.304 365.79 311.464 370.683 306.581C376.551 300.725 372.28 289.919 376.027 283.093C379.908 276.024 391.18 269.829 397 264C409.865 251.115 420.076 235.934 428.573 220.015C430.723 215.986 437.598 209.269 437 205z"/>
<path style="fill:#ddb5a5; stroke:none;" d="M366 233L367 233L368 227L369 227L371 258C346.576 261.087 321.612 260.04 297 260C289.574 259.988 273.512 261.282 275.153 250.044C276.217 242.756 287.749 245 293 245L351 245L351 244L273 244L273 261L373 261L370 218C364.576 220.991 366 227.529 366 233z"/>
<path style="fill:#f7ad86; stroke:none;" d="M352 244C334.77 248.102 313.698 245 296 245C291.472 245 279.169 242.859 276.028 246.742C266.864 258.069 287.009 259.839 293 259.985C318.217 260.603 346.169 262.61 371 258L369 227L368 227C366.926 231.453 365.766 234.223 361 235C360.955 229.956 355.585 216.754 350.858 227.109C348.566 232.131 350.701 238.978 352 244z"/>
<path style="fill:#31638d; stroke:none;" d="M274 224L274 228L275 228L274 224z"/>
<path style="fill:#1f89ae; stroke:none;" d="M231 231C234.038 246.708 256.28 269.883 270 277L250.174 256L231 231z"/>
<path style="fill:#256a8e; stroke:none;" d="M273 232L273 244L274 244L273 232z"/>
<path style="fill:#714c44; stroke:none;" d="M361 232L363 235L361 232z"/>
<path style="fill:#7b9b9c; stroke:none;" d="M372 232L372 236L373 236L372 232z"/>
<path style="fill:#32798f; stroke:none;" d="M373 235L374 264L378 261L373 235z"/>
<path style="fill:#735654; stroke:none;" d="M350 237L350 240L351 240L350 237z"/>
<path style="fill:#4d3a3e; stroke:none;" d="M351 242L325 243L274 243L274 244L333 244L351 242z"/>
<path style="fill:#9faaab; stroke:none;" d="M373 243L373 261L374 261L373 243z"/>
<path style="fill:#799398; stroke:none;" d="M272 249L272 254L273 254L272 249z"/>
<path style="fill:#5bbacc; stroke:none;" d="M408 250C411.062 266.496 411.891 291.655 408 308L410 296L410 263L408 250z"/>
<path style="fill:#0295c7; stroke:none;" d="M366 323L397 311.95L407.972 306.581L409 291L409 252L388 271.829L376.028 282.184L373.901 299L366 323z"/>
<path style="fill:#f3d9c2; stroke:none;" d="M304 261L304 262L344 262C333.488 257.589 315.434 261 304 261z"/>
<path style="fill:#f4f2e3; stroke:none;" d="M304 262L304 263L372 262C363.607 258.478 349.907 260.983 341 261.83C328.86 262.986 316.195 262 304 262z"/>
<path style="fill:#57b6e3; stroke:none;" d="M270 276L269 277C276.119 293.801 272 318.037 272 336C272 342.457 269.649 354.676 274.318 359.772C279.544 365.475 288.473 361.617 295 364L295 360L278.718 357.397L277 343L276 307L279 305C270.346 299.546 275.808 283.55 270 276z"/>
<path style="fill:#27a3dd; stroke:none;" d="M270 279L270 341C270 347.203 267.821 358.534 272.899 363.297C277.03 367.171 288.492 364.977 294 366L293 362C273.983 366.528 272 354.567 272 339C272 321.483 276.863 295.318 270 279z"/>
<path style="fill:#60b5cb; stroke:none;" d="M374 290L374 296L375 296L374 290z"/>
<path style="fill:#70bdce; stroke:none;" d="M373 299L373 302L374 302L373 299z"/>
<path style="fill:#141c30; stroke:none;" d="M278 306L284 351C294.322 351.336 300.377 370.897 302 380C300.181 380 280.926 381.239 289.323 385.397C295.555 388.484 306.285 385.019 313 385C312.135 376.369 308.808 367.696 307.439 359C305.942 349.487 304.554 337.945 309.378 329.093C315.956 317.023 328.642 324.474 333.085 334C337.567 343.61 337.737 355.711 336.271 366C335.616 370.594 332.837 380.352 336.028 384.397C340.126 389.592 354.489 388.312 360 387L360 384C356.281 382.821 346.173 383.175 344.283 379.682C341.602 374.727 348.709 364.428 350.766 360C358.714 342.889 366.202 324.948 372 307C359.496 310.446 348.2 315.007 335 315.91C315.536 317.242 296.612 310.306 278 306z"/>
<path style="fill:#78c4e7; stroke:none;" d="M276 307L277 343L278.093 357.397L294 361L291 351C288.133 351.592 285.039 352.125 283.603 348.851C277.955 335.972 286.275 319.539 276 307z"/>
<path style="fill:#adc6c9; stroke:none;" d="M283.667 307.333L284.333 307.667L283.667 307.333z"/>
<path style="fill:#8fa7ad; stroke:none;" d="M286.667 308.333L287.333 308.667L286.667 308.333z"/>
<path style="fill:#447395; stroke:none;" d="M278.333 310.667L278.667 311.333L278.333 310.667z"/>
<path style="fill:#799197; stroke:none;" d="M293 310L293 311L296 311L293 310z"/>
<path style="fill:#4b6069; stroke:none;" d="M362.667 310.333L363.333 310.667L362.667 310.333z"/>
<path style="fill:#91cad7; stroke:none;" d="M400.667 310.333L401.333 310.667L400.667 310.333z"/>
<path style="fill:#92a8ae; stroke:none;" d="M298.667 311.333L299.333 311.667L298.667 311.333z"/>
<path style="fill:#8ea1aa; stroke:none;" d="M358.667 311.333L359.333 311.667L358.667 311.333z"/>
<path style="fill:#d3ffff; stroke:none;" d="M365 326C373.651 322.309 395.039 318.879 400 311C391.216 313.033 369.592 318.057 365 326z"/>
<path style="fill:#5f727c; stroke:none;" d="M302.667 312.333L303.333 312.667L302.667 312.333z"/>
<path style="fill:#a4bcc2; stroke:none;" d="M304.667 312.333L305.333 312.667L304.667 312.333z"/>
<path style="fill:#8fa2ab; stroke:none;" d="M354.667 312.333L355.333 312.667L354.667 312.333z"/>
<path style="fill:#8c9ca9; stroke:none;" d="M309 313L309 314L312 314L309 313z"/>
<path style="fill:#8aa5a9; stroke:none;" d="M349 313L349 314L352 314L349 313z"/>
<path style="fill:#578ca3; stroke:none;" d="M279.333 314.667L279.667 315.333L279.333 314.667z"/>
<path style="fill:#6f7c8e; stroke:none;" d="M314 314L314 315L320 315L314 314z"/>
<path style="fill:#5c747c; stroke:none;" d="M344 314L344 315L347 315L344 314z"/>
<path style="fill:#30454e; stroke:none;" d="M324 315L324 316L339 316L324 315z"/>
<path style="fill:#155471; stroke:none;" d="M306 345L323 339L323 338L310 340L312 338L312 337C299.042 318.29 345.355 328.335 324 337L324 338L334 335C330.249 326.419 318.729 316.114 310.479 326.532C306.62 331.406 306.123 339.023 306 345z"/>
<path style="fill:#5880a0; stroke:none;" d="M282.333 324.667L282.667 325.333L282.333 324.667z"/>
<path style="fill:#0c5a8d; stroke:none;" d="M312 337L312 338L310 340L324 339C325.468 337.533 327.859 336.277 328.958 334.519C337.802 320.377 298.299 324.836 312 337z"/>
<path style="fill:#6394b6; stroke:none;" d="M283 328L283 351L284 351L283 328z"/>
<path style="fill:#7a97a9; stroke:none;" d="M332.667 335.333L333.333 335.667L332.667 335.333z"/>
<path style="fill:#f8fef9; stroke:none;" d="M306 345L306 351L336 351L334 336L306 345z"/>
<path style="fill:#b1b5bd; stroke:none;" d="M360.333 336.667L360.667 337.333L360.333 336.667z"/>
<path style="fill:#98a0a8; stroke:none;" d="M334.333 337.667L334.667 338.333L334.333 337.667z"/>
<path style="fill:#87b2c1; stroke:none;" d="M318.667 340.333L319.333 340.667L318.667 340.333z"/>
<path style="fill:#687079; stroke:none;" d="M335.333 341.667L335.667 342.333L335.333 341.667z"/>
<path style="fill:#88a6b3; stroke:none;" d="M307.667 344.333L308.333 344.667L307.667 344.333z"/>
<path style="fill:#3f5e7d; stroke:none;" d="M336 347L336 365L337 365L336 347z"/>
<path style="fill:#598ea8; stroke:none;" d="M284 351L284 352L290 352L284 351z"/>
<path style="fill:#b9dee6; stroke:none;" d="M307 351L307 352L336 352L307 351z"/>
<path style="fill:#b9dce7; stroke:none;" d="M356 351L356 352L453 352L423 351L356 351z"/>
<path style="fill:#7ec8e8; stroke:none;" d="M307 352L308 362C316.432 359.993 327.568 359.993 336 362L336 352L307 352z"/>
<path style="fill:#6893ae; stroke:none;" d="M292.333 354.667L292.667 355.333L292.333 354.667z"/>
<path style="fill:#4bb0e2; stroke:none;" d="M308 365L336 364C332.567 358.705 310.126 358.594 308 365z"/>
<path style="fill:#0390d4; stroke:none;" d="M265 420L284 419.273L313 400.298L332.973 386.405L336 364C330.338 364 315.04 361.285 310.643 365.028C305.347 369.535 315.005 380.132 310.728 385.239C298.931 399.327 274.937 404.465 265 420z"/>
<path style="fill:#317ead; stroke:none;" d="M347 366L343 380L344 380L347 366z"/>
<path style="fill:#175990; stroke:none;" d="M309 368L309 372L310 372L309 368z"/>
<path style="fill:#0a5484; stroke:none;" d="M334 379C333.895 387.85 327.691 389.82 321 394.241C308.638 402.408 296.684 411.336 284 419L284 420C295.516 420 313.192 423.366 324 419.397C334.728 415.457 351.109 397.516 357 388C347.499 388 338.291 388.169 334 379z"/>
<path style="fill:#157194; stroke:none;" d="M344 381L344 382L355 382L344 381z"/>
<path style="fill:#0d5583; stroke:none;" d="M286 382C279.857 388.721 266.438 391.903 258 395.169C239.489 402.335 219.51 409.665 202 419L202 420L244 420C250.019 420 258.091 421.396 263.83 419.441C279.876 413.973 297.483 396.27 311 386L311 385C302.62 385.069 292.38 388.964 286 382z"/>
</svg>
