<?xml version="1.0" encoding="UTF-8" standalone="no"?>
<svg
   width="750"
   height="550"
   version="1.1"
   id="svg40"
   sodipodi:docname="contacts.svg"
   inkscape:version="1.3-dev (f3df6cc7, 2022-08-24)"
   xmlns:inkscape="http://www.inkscape.org/namespaces/inkscape"
   xmlns:sodipodi="http://sodipodi.sourceforge.net/DTD/sodipodi-0.dtd"
   xmlns="http://www.w3.org/2000/svg"
   xmlns:svg="http://www.w3.org/2000/svg">
  <defs
     id="defs40" />
  <sodipodi:namedview
     id="namedview40"
     pagecolor="#ffffff"
     bordercolor="#000000"
     borderopacity="0.25"
     inkscape:showpageshadow="2"
     inkscape:pageopacity="0.0"
     inkscape:pagecheckerboard="0"
     inkscape:deskcolor="#d1d1d1"
     showgrid="false"
     inkscape:zoom="23.165644"
     inkscape:cx="751.91089"
     inkscape:cy="533.26815"
     inkscape:window-width="1920"
     inkscape:window-height="1177"
     inkscape:window-x="-8"
     inkscape:window-y="-8"
     inkscape:window-maximized="1"
     inkscape:current-layer="svg40" />
  <path
     style="display:inline;fill:#00aff0;stroke:none;stroke-width:2.85648"
     d="M 6.5927613,6.2039059 C 1.6861875,11.873814 0.13513589,20.909056 0.13513589,20.909056 L 0,529.65124 c 0,0 1.1583824,8.41536 6.3533337,14.15321 C 11.548284,549.54227 18.863995,550 18.863995,550 l 711.847935,-0.0173 c 0,0 9.01452,-0.8507 13.55039,-6.11169 4.13637,-4.79764 5.70191,-10.14053 5.70191,-12.80615 l 0.006,-505.755082 c 0,0 -1.5513,-9.400536 -6.8608,-15.6358778 C 735.44487,0.67217601 729.60318,0.20640357 729.60318,0.20640357 L 19.748035,0 c 0,0 -8.248699,0.53399656 -13.1552737,6.2039059 z"
     id="path1"
     sodipodi:nodetypes="zcczccsccsccz" />
  <path
     d="m 490.15109,74.570424 c -0.92269,-7.679316 -6.64981,-13.30277 -14.1091,-13.30277 -8.37244,0 -13.41279,5.160323 -15.24982,13.30277 z m -61.01759,6.305834 c 0,-9.859905 -4.35245,-18.121924 -13.30078,-18.227568 -9.74551,-0.119299 -13.41319,8.712821 -13.41319,18.227568 0,8.59882 3.21207,18.574737 13.41319,18.574737 10.66066,-0.11257 13.30078,-10.779056 13.30078,-18.574737 z m 76.84134,-3.900827 c 0,-13.763529 -11.00979,-27.40512 -30.27405,-27.40512 -16.43701,0 -27.33439,8.989264 -30.59815,23.162303 -2.86693,-15.687916 -13.53352,-23.162303 -25.48587,-23.162303 -8.14007,0 -14.90467,3.442458 -17.66039,10.550627 h -0.2232 v -2.635769 c 0,-5.157551 -2.63734,-7.914858 -7.57566,-7.914858 -3.61485,0 -5.85305,1.387801 -6.88061,3.973511 -1.20465,-2.018532 -3.4909,-3.973511 -7.45331,-3.973511 -4.59074,0 -6.87619,3.210108 -8.02646,7.452529 L 361.59047,94.982535 H 361.3605 L 350.58223,55.880516 c -1.02794,-3.788815 -4.12761,-6.310205 -8.6024,-6.310205 -3.13423,0 -5.84588,1.712697 -7.20509,4.307572 -1.40721,-2.562312 -4.29125,-4.307572 -7.02711,-4.307572 -2.51782,0 -4.69758,1.375872 -6.41308,3.210108 L 302.75504,73.422534 V 35.355178 c 0,-5.507079 -3.32488,-8.37123 -8.36881,-8.37123 -5.04637,0 -8.36848,2.864151 -8.36848,8.37123 V 87.655926 C 283.29022,79.689443 273.98282,76.52143 265.94959,74.680062 l -6.9894,-1.599122 c -5.16473,-1.151052 -8.94647,-2.064587 -8.94647,-5.966614 0,-3.556865 3.78174,-5.157952 9.63003,-5.157952 10.54864,0 10.7814,7.68371 17.31207,7.68371 4.36194,0 7.00208,-3.444091 7.00208,-7.336553 0,-7.682909 -12.84721,-12.73322 -25.57285,-12.73322 -11.58298,0 -25.11335,5.050311 -25.11335,18.691903 0,11.24014 7.56853,15.253774 17.31407,17.663147 l 9.86389,2.40103 c 5.96265,1.491476 9.62793,2.180189 9.62793,6.419854 0,3.44048 -3.78163,6.085775 -9.75225,6.085775 -12.37223,0 -13.06269,-10.32544 -20.28897,-10.32544 -4.70305,0 -6.76467,3.328075 -6.76467,6.997765 0,8.254065 12.61205,15.020225 27.74992,15.020225 10.79249,0 21.98699,-4.64081 24.99613,-14.531705 v 6.159275 c 0,5.50432 3.32211,8.37242 8.36848,8.37242 5.04393,0 8.36881,-2.8681 8.36881,-8.37242 V 91.422115 l 5.85305,-5.159117 15.81899,22.357582 c 1.2623,1.84058 3.44249,3.90399 7.56733,3.90399 4.47041,0 7.91089,-3.90399 7.91089,-8.14365 0,-2.75374 -1.14115,-4.588365 -1.71826,-5.387095 L 320.75979,75.597959 333.14469,62.64869 c 0.508,-0.556878 0.95643,-1.020811 1.33495,-1.517274 0.33684,1.126424 0.81106,2.474504 1.42753,4.264649 l 17.42999,49.647895 c -1.26784,5.16669 -3.67679,5.2795 -5.85618,5.2795 h -1.71551 c -4.47318,0 -7.68009,2.2902 -7.68009,6.76458 0,4.01085 3.09332,7.68369 10.54149,7.68369 10.55857,0 15.14297,-5.96583 19.1586,-17.42921 L 386.5961,64.01303 v 62.39223 c 0,5.49836 3.32613,8.36647 8.36846,8.36647 5.04677,0 8.36291,-2.86812 8.36291,-8.36647 v -22.36908 h 0.24073 c 3.09493,5.38752 8.82408,8.48838 16.50814,8.48838 14.34384,0 22.41159,-9.91589 24.935,-22.25072 2.83157,11.76445 12.22045,22.25072 31.26146,22.25072 10.08869,0 26.26397,-4.70476 26.26397,-14.791425 0,-3.0997 -2.86693,-6.539791 -6.88335,-6.539791 -6.76656,0 -6.76656,8.257651 -19.38062,8.257651 -9.74356,0 -15.48058,-6.42303 -15.48058,-15.253418 h 37.84414 c 5.62026,0 7.33849,-1.486279 7.33849,-7.222146 z m 5.20955,-26.20758 v 10.535533 h 2.16631 v -7.385809 h 0.0316 l 2.58733,7.385809 h 1.79012 l 2.58536,-7.465628 h 0.0252 v 7.465628 h 2.17979 V 50.767851 h -3.26968 l -2.33708,7.250341 h -0.0252 l -2.47051,-7.250341 h -3.26415 z m -6.69305,1.942283 v 8.59325 h 2.33112 v -8.59325 h 3.15769 v -1.942283 h -8.65008 v 1.942283 z m 13.99111,18.248234 c 0.59738,2.961458 0.91713,6.021838 0.91713,9.153686 0,25.351236 -20.55391,45.913096 -45.90759,45.913096 -9.54414,0 -18.41503,-2.91697 -25.75397,-7.90494 -6.45598,5.77955 -14.94279,9.31697 -24.28356,9.31697 -1.71827,0 -3.39758,-0.15524 -5.05789,-0.38805 -2.29618,10.78298 -11.8673,18.87816 -23.33902,18.87816 -9.16959,0 -17.1206,-5.17423 -21.11795,-12.76141 -3.50802,10.50019 -13.40129,18.07742 -25.07003,18.07742 -11.52891,0 -21.30303,-7.38537 -24.92742,-17.68023 -0.309,0.0113 -0.6061,0.0527 -0.91038,0.0527 -12.61323,0 -23.74734,-6.17872 -30.65931,-15.6315 -7.67536,5.41891 -17.03719,8.62266 -27.15765,8.62266 -26.02111,0 -47.10744,-21.0957 -47.10744,-47.116594 0,-1.453349 0.0662,-2.896338 0.20076,-4.311936 -4.7583,-4.354425 -7.76928,-10.589149 -7.76928,-17.549947 0,-13.128834 10.65033,-23.773606 23.77728,-23.773606 4.07182,0 7.89345,1.023179 11.24567,2.826025 5.98405,-2.754107 12.63104,-4.304772 19.65302,-4.304772 2.40737,0 4.7842,0.183548 7.08831,0.529485 -0.01,-0.275182 -0.0355,-0.541382 -0.0355,-0.82339 0,-11.919761 9.66012,-21.576711 21.58307,-21.576711 11.84784,0 21.45795,9.549706 21.5719,21.37812 4.96811,-2.943197 10.74767,-4.664255 16.94586,-4.664255 9.36743,0 17.828,3.873026 23.88719,10.100618 7.25114,-10.504936 19.36036,-17.391882 33.08534,-17.391882 15.0326,0 28.11968,8.272746 34.99707,20.508275 2.89713,-1.815173 6.31813,-2.87728 9.98184,-2.87728 4.94347,0 9.4234,1.909693 12.79082,5.016553 7.46282,-5.255666 16.55103,-8.368861 26.37995,-8.368861 9.72765,0 18.74594,3.036544 26.16864,8.201233 3.19782,-3.36381 7.70478,-5.474888 12.71853,-5.474888 9.70103,0 17.56864,7.87077 17.56864,17.571009 0,7.556973 -4.77864,13.970854 -11.46541,16.454116"
     id="path3034"
     style="display:inline;fill:#ffffff;fill-opacity:1;fill-rule:nonzero;stroke:none;stroke-width:0.397194" />
  <path
     style="display:inline;fill:#ffffff;stroke:none;stroke-width:0.139143"
     d="m 361.85527,278.16367 c -4.7665,0.62578 -9.46273,0.80067 -14.19265,1.8734 -11.82718,2.68238 -23.14944,8.89541 -32.00299,17.14258 -8.33621,7.76534 -14.93135,17.51148 -18.8268,28.23376 -9.19523,25.3106 -3.1565,54.79928 15.49277,74.30261 5.75095,6.01378 12.58179,11.12869 20.03125,14.85357 13.50192,6.75124 28.43493,8.56844 43.27362,6.67331 24.16284,-3.0834 46.03979,-20.79208 55.25944,-43.09411 4.90621,-11.86786 6.47158,-24.57498 5.10518,-37.29045 -3.10708,-28.91543 -25.9223,-53.60378 -53.82488,-60.57938 -4.71487,-1.17871 -9.48679,-1.82849 -14.33177,-2.04067 -1.96472,-0.0861 -4.01748,-0.33267 -5.98317,-0.0747 z"
     id="path7" />
  <path
     style="display:inline;fill:#00abe9;stroke:none;stroke-width:0.139143"
     d="m 319.36155,331.55895 v 0.13919 c 11.1308,8.25093 21.73953,17.33558 32.55959,25.99198 l 8.90519,7.12415 c 0.87117,0.69698 2.36335,2.44752 3.47858,2.61952 0.82512,0.1272 2.18804,-1.48633 2.78287,-1.98142 l 7.79203,-6.51649 c 7.3284,-6.10686 14.66002,-12.20997 21.98468,-18.32142 l 6.95718,-5.79755 c 1.23489,-1.02785 2.74767,-2.00715 3.75687,-3.25792 z"
     id="path31-5" />
  <path
     style="display:inline;fill:#00abe9;stroke:none;stroke-width:0.139143"
     d="m 319.22242,336.56809 v 51.76137 l 4.47624,-4.59174 6.52864,-6.95716 16.82381,-17.94952 v -0.1392 l -18.22779,-14.61005 -6.26147,-5.00917 -3.33943,-2.50457 m 61.50143,22.40208 2.62007,3.06116 6.00139,6.4006 12.65511,13.49691 5.8564,6.12232 v -51.48306 l -2.92202,2.23743 -5.28743,4.40707 z"
     id="path33" />
  <path
     style="display:inline;fill:#00abe9;stroke:none;stroke-width:0.139143"
     d="m 350.11228,361.19647 -17.40545,18.50611 -6.39352,6.81802 -4.44715,4.87005 h 83.62521 c -1.29096,-2.4886 -4.217,-4.59927 -6.09863,-6.67892 -4.77834,-5.28077 -9.76703,-10.373 -14.62134,-15.58407 -1.59446,-1.71172 -3.23567,-3.39397 -4.78305,-5.1483 -0.49844,-0.56506 -1.45894,-1.94091 -2.21017,-2.1218 -0.92155,-0.22207 -2.78663,1.92549 -3.45493,2.48162 l -6.81804,5.68096 c -0.76333,0.63532 -1.93977,2.07907 -2.92201,2.29348 -0.95437,0.20843 -3.03095,-2.07642 -3.75687,-2.65721 -3.44631,-2.75712 -6.8911,-6.26061 -10.71405,-8.45994 z"
     id="path57" />
  <path
     style="display:inline;fill:#00abe9;stroke:none;stroke-width:0.139143"
     d="m 319.39861,331.71748 v -0.1392 c 11.13079,-8.25094 21.73952,-17.3356 32.55957,-25.99198 l 8.9052,-7.12416 c 0.87117,-0.697 2.36336,-2.44754 3.47858,-2.61954 0.82511,-0.12719 2.18803,1.48635 2.78288,1.98143 l 7.79201,6.5165 c 7.32842,6.10686 14.66004,12.20997 21.9847,18.32143 l 6.95715,5.79756 c 1.2349,1.02786 2.74767,2.00716 3.75688,3.25792 z"
     id="path43" />
  <g
     aria-label="@"
     transform="scale(1.0226326,0.97786829)"
     id="text43"
     style="font-size:64.8233px;font-family:Calibri;-inkscape-font-specification:Calibri;display:inline;fill:#ffffff;stroke-width:1.62059">
    <path
       d="m 378.74454,331.73477 q 0,2.15234 -0.28486,4.39963 -0.25322,2.24729 -0.85461,4.36798 -0.60139,2.12068 -1.5826,4.0198 -0.98121,1.86747 -2.40555,3.29181 -1.42434,1.42434 -3.32346,2.24729 -1.86747,0.7913 -4.30467,0.7913 -1.29773,0 -2.40555,-0.28486 -1.10783,-0.31652 -1.96243,-0.88626 -0.8546,-0.56974 -1.45599,-1.45599 -0.56974,-0.91791 -0.7913,-2.08903 -1.26608,1.26608 -2.46886,2.18398 -1.17112,0.88626 -2.31059,1.456 -1.13948,0.56973 -2.2473,0.82295 -1.07616,0.25321 -2.12068,0.25321 -1.36104,0 -2.40555,-0.25321 -1.04452,-0.28487 -1.86747,-0.7913 -0.7913,-0.53809 -1.36104,-1.29773 -0.56973,-0.75965 -0.94956,-1.70921 -0.37982,-0.94956 -0.53808,-2.08903 -0.15826,-1.13948 -0.15826,-2.46886 0,-1.36104 0.22156,-3.1019 0.22157,-1.77251 0.728,-3.63998 0.50643,-1.86747 1.39269,-3.63998 0.88625,-1.80416 2.18399,-3.19685 1.32938,-1.42434 3.13354,-2.27894 1.80417,-0.88626 4.20972,-0.88626 1.01286,0 1.93077,0.25322 0.94956,0.22156 1.80417,0.72799 0.8546,0.50643 1.6459,1.26608 0.7913,0.75965 1.61425,1.80417 l 0.53809,-2.78538 q 0.1266,-0.44313 0.56973,-0.66469 0.44313,-0.22157 1.64591,-0.22157 0.56973,0 0.94956,0.0633 0.41147,0.0633 0.63304,0.18991 0.22156,0.095 0.28487,0.25322 0.0949,0.15826 0.0317,0.37982 l -2.81703,14.55992 q -0.50643,2.75373 0.25322,4.08311 0.75964,1.29773 2.88033,1.29773 1.29773,0 2.34225,-0.63304 1.04451,-0.66469 1.83581,-1.77251 0.7913,-1.10782 1.32939,-2.56381 0.53808,-1.48765 0.88625,-3.1019 0.34817,-1.6459 0.50643,-3.35511 0.15826,-1.70921 0.15826,-3.29181 0,-2.75372 -0.75964,-5.22258 -0.728,-2.50051 -2.53216,-4.36798 -1.80417,-1.89912 -4.84276,-3.00694 -3.00694,-1.13947 -7.56483,-1.13947 -3.73494,0 -6.64692,0.82295 -2.91198,0.82295 -5.12762,2.24729 -2.21565,1.39269 -3.79825,3.22851 -1.5826,1.83582 -2.69042,3.92485 -1.07616,2.05738 -1.74086,4.24137 -0.66469,2.15233 -1.01286,4.17806 -0.34817,1.99408 -0.47478,3.76659 -0.095,1.77251 -0.095,3.00694 0,3.51337 0.7913,6.42536 0.82296,2.91198 2.81703,5.03266 1.99408,2.12069 5.34919,3.29181 3.35511,1.17113 8.45109,1.17113 2.31059,0 4.17806,-0.28487 1.86747,-0.25322 3.2285,-0.56974 1.39269,-0.28486 2.2473,-0.56973 0.8546,-0.25322 1.17112,-0.25322 0.18991,0 0.31652,0.095 0.15826,0.12661 0.22157,0.34817 0.095,0.25322 0.1266,0.60139 0.0317,0.37982 0.0317,0.91791 0,0.44312 -0.0317,0.72799 0,0.28487 -0.0633,0.50643 -0.0633,0.25322 -0.18991,0.44313 -0.095,0.18991 -0.28487,0.34817 -0.18991,0.15826 -1.10782,0.47478 -0.88626,0.31652 -2.43721,0.63304 -1.51929,0.31652 -3.57667,0.53809 -2.05738,0.22156 -4.52624,0.22156 -5.91892,0 -10.03368,-1.39269 -4.08311,-1.39268 -6.67858,-3.98815 -2.56381,-2.59546 -3.70328,-6.23544 -1.13947,-3.63998 -1.13947,-8.13457 0,-1.6459 0.15826,-3.76659 0.18991,-2.15233 0.66469,-4.55789 0.50643,-2.4372 1.39269,-4.93771 0.88625,-2.53216 2.27894,-4.93771 1.42434,-2.40555 3.41842,-4.52624 2.02573,-2.15233 4.7478,-3.73493 2.75372,-1.61426 6.2671,-2.53216 3.54502,-0.91791 8.00795,-0.91791 5.19093,0 8.95752,1.26608 3.79824,1.23443 6.2671,3.51337 2.46885,2.27894 3.67163,5.57075 1.20277,3.26016 1.20277,7.27996 z m -18.35816,2.05738 q -1.20277,-2.02572 -2.46885,-3.10189 -1.26608,-1.07617 -2.88034,-1.07617 -1.32938,0 -2.40555,0.66469 -1.07617,0.63304 -1.86747,1.67756 -0.7913,1.01286 -1.36103,2.31059 -0.53809,1.29774 -0.88626,2.65877 -0.34817,1.36104 -0.50643,2.65877 -0.12661,1.26608 -0.12661,2.24729 0,2.34225 0.82295,3.60833 0.85461,1.26608 2.84868,1.26608 0.75965,0 1.55095,-0.25321 0.7913,-0.28487 1.67756,-0.82296 0.88625,-0.56973 1.86747,-1.45599 1.01286,-0.91791 2.21564,-2.15233 z m -34.05755,-18.67468 z"
       id="path35" />
  </g>
  <g
     aria-label="info@katalogs.net"
     id="text42"
     style="font-size:97.9542px;font-family:'Poiret One';-inkscape-font-specification:'Poiret One';display:inline;fill:#ffffff;stroke-width:1.93331">
    <path
       d="m 34.38366,447.94474 v 43.98144 h -3.134535 v -43.98144 z m -1.567267,-10.77496 q -2.840672,0 -2.840672,-2.64476 0,-2.64477 2.840672,-2.64477 2.840671,0 2.840671,2.64477 0,2.64476 -2.840671,2.64476 z"
       id="path66" />
    <path
       d="m 50.546054,491.92618 h -3.134535 v -44.07939 h 3.134535 v 8.91383 q 4.995664,-9.99133 17.044031,-9.99133 8.228153,0 13.811542,5.68135 5.58339,5.68134 5.58339,13.81154 v 25.664 h -3.134535 v -25.664 q 0,-6.75884 -4.799756,-11.75451 -4.701801,-4.99566 -11.460641,-4.99566 -6.75884,0 -11.950413,4.99566 -5.093618,4.99567 -5.093618,11.75451 z"
       id="path65" />
    <path
       d="m 115.48971,430.01912 v 2.74272 q -5.68135,0 -9.69747,3.91817 -3.91817,3.91817 -3.91817,9.89337 v 25.76196 h 13.71359 v 2.74272 h -13.71359 v 16.84812 h -3.134532 v -45.3528 q 0,-7.24861 4.897712,-11.85246 4.89771,-4.7018 11.85246,-4.7018 z"
       id="path64" />
    <path
       d="m 143.89651,493.00367 q -9.40361,0 -16.16245,-6.95474 -6.75884,-7.05271 -6.75884,-16.35836 0,-9.30564 6.8568,-16.06448 6.85679,-6.8568 16.4563,-6.8568 9.69747,0 16.45631,6.8568 6.85679,6.75884 6.85679,16.16244 0,9.30565 -6.66088,16.2604 -6.66089,6.95474 -16.16245,6.95474 z m 20.57038,-23.01923 q 0,-8.32611 -5.97521,-14.39927 -5.87725,-6.07316 -14.1054,-6.07316 -8.22816,0 -14.30132,6.17111 -5.9752,6.07316 -5.9752,14.30132 0,8.22815 5.9752,14.30131 6.07316,5.97521 14.30132,5.97521 8.3261,0 14.20336,-5.97521 5.87725,-6.07316 5.87725,-14.30131 z"
       id="path63" />
    <path
       d="m 214.8153,493.19958 h -1.46931 q -15.1829,0 -26.34968,-11.46064 -11.06883,-11.46064 -11.06883,-26.7415 0,-15.37881 11.26474,-26.54558 11.26473,-11.26474 27.03536,-11.26474 15.77062,0 26.9374,11.16678 11.16678,11.16678 11.16678,26.64354 0,15.37881 -11.06882,26.83946 -11.06883,11.36268 -26.44764,11.36268 z m 34.28397,-38.00623 q 0,-14.49722 -10.28519,-24.78241 -10.18724,-10.38315 -24.68446,-10.38315 -14.39927,0 -24.68446,10.38315 -10.28519,10.28519 -10.28519,24.78241 0,14.39927 10.28519,24.78242 10.28519,10.38314 24.68446,10.38314 14.39927,0 24.68446,-10.38314 10.28519,-10.38315 10.28519,-24.78242 z m -11.85246,-22.03969 v 44.07939 h -3.13453 v -10.28519 q -3.13454,5.28952 -8.52202,8.3261 -5.38748,3.03658 -11.46064,3.03658 -9.59951,0 -16.4563,-6.75884 -6.8568,-6.85679 -6.8568,-16.35835 0,-9.50155 6.8568,-16.26039 6.85679,-6.8568 16.4563,-6.8568 6.07316,0 11.46064,3.03658 5.38748,3.03658 8.52202,8.32611 v -10.28519 z m -43.29575,22.13765 q 0,8.22815 5.9752,14.30131 6.07316,5.97521 14.30132,5.97521 8.3261,0 14.20336,-5.97521 5.87725,-6.07316 5.87725,-14.30131 0,-8.32611 -5.97521,-14.39927 -5.87725,-6.07316 -14.1054,-6.07316 -8.22816,0 -14.30132,6.17111 -5.9752,6.07316 -5.9752,14.30132 z"
       id="path62" />
    <path
       d="m 263.10664,418.65644 h 3.13454 v 44.4712 l 17.43584,-15.28085 h 4.01613 l -20.17857,17.63175 25.27218,26.44764 h -4.21203 l -22.33355,-23.21515 v 23.21515 h -3.13454 z"
       id="path61" />
    <path
       d="m 345.09436,447.84679 v 44.07939 h -3.13453 v -10.97087 q -2.74272,5.58339 -8.22815,8.81588 -5.48544,3.23248 -11.75451,3.23248 -9.59951,0 -16.4563,-6.75884 -6.8568,-6.85679 -6.8568,-16.35835 0,-9.50155 6.8568,-16.26039 6.85679,-6.8568 16.4563,-6.8568 6.26907,0 11.95042,3.33044 5.77929,3.33045 8.03224,8.81588 v -11.06882 z m -43.29575,22.13765 q 0,8.22815 5.9752,14.30131 6.07316,5.97521 14.30132,5.97521 8.3261,0 14.20336,-5.97521 5.87725,-6.07316 5.87725,-14.30131 0,-8.32611 -5.97521,-14.39927 -5.87725,-6.07316 -14.1054,-6.07316 -8.22816,0 -14.30132,6.17111 -5.9752,6.07316 -5.9752,14.30132 z"
       id="path60" />
    <path
       d="m 372.61952,489.77119 v 2.74271 q -6.95475,0 -11.85246,-4.60384 -4.89771,-4.70181 -4.89771,-11.95042 v -45.84256 h 3.13453 v 17.82766 h 13.51768 v 2.74272 h -13.51768 v 25.27218 q 0,5.97521 3.91817,9.89338 4.01612,3.91817 9.69747,3.91817 z"
       id="path59" />
    <path
       d="m 424.4372,447.84679 v 44.07939 h -3.13454 v -10.97087 q -2.74271,5.58339 -8.22815,8.81588 -5.48543,3.23248 -11.7545,3.23248 -9.59951,0 -16.45631,-6.75884 -6.85679,-6.85679 -6.85679,-16.35835 0,-9.50155 6.85679,-16.26039 6.8568,-6.8568 16.45631,-6.8568 6.26907,0 11.95041,3.33044 5.7793,3.33045 8.03224,8.81588 v -11.06882 z m -43.29576,22.13765 q 0,8.22815 5.97521,14.30131 6.07316,5.97521 14.30131,5.97521 8.32611,0 14.20336,-5.97521 5.87725,-6.07316 5.87725,-14.30131 0,-8.32611 -5.9752,-14.39927 -5.87726,-6.07316 -14.10541,-6.07316 -8.22815,0 -14.30131,6.17111 -5.97521,6.07316 -5.97521,14.30132 z"
       id="path58" />
    <path
       d="m 452.94189,490.06505 v 2.74272 q -6.95475,0 -11.85246,-4.60385 -4.89771,-4.7018 -4.89771,-11.95041 v -57.79298 h 3.13454 v 57.79298 q 0,5.9752 3.91817,9.89337 4.01612,3.91817 9.69746,3.91817 z"
       id="path56" />
    <path
       d="m 477.33237,493.00367 q -9.40361,0 -16.16245,-6.95474 -6.75884,-7.05271 -6.75884,-16.35836 0,-9.30564 6.8568,-16.06448 6.85679,-6.8568 16.4563,-6.8568 9.69747,0 16.45631,6.8568 6.85679,6.75884 6.85679,16.16244 0,9.30565 -6.66088,16.2604 -6.66089,6.95474 -16.16245,6.95474 z m 20.57038,-23.01923 q 0,-8.32611 -5.97521,-14.39927 -5.87725,-6.07316 -14.1054,-6.07316 -8.22816,0 -14.30132,6.17111 -5.9752,6.07316 -5.9752,14.30132 0,8.22815 5.9752,14.30131 6.07316,5.97521 14.30132,5.97521 8.3261,0 14.20336,-5.97521 5.87725,-6.07316 5.87725,-14.30131 z"
       id="path55" />
    <path
       d="m 551.28773,447.84679 h 3.13454 v 39.96531 q 0,11.36269 -6.26907,17.92562 -6.26907,6.56293 -16.45631,6.56293 -5.58339,0 -10.87291,-2.54681 -5.28953,-2.54681 -8.22816,-6.66088 v -4.5059 q 2.54681,4.70181 7.93429,7.83634 5.48544,3.13453 11.16678,3.13453 8.61997,0 14.10541,-5.87725 5.48543,-5.7793 5.48543,-15.86858 v -6.56293 q -2.64476,5.38748 -8.3261,8.61997 -5.68135,3.23249 -11.75451,3.23249 -9.59951,0 -16.4563,-6.75884 -6.8568,-6.8568 -6.8568,-16.35835 0,-9.50156 6.8568,-16.2604 6.85679,-6.85679 16.4563,-6.85679 6.36703,0 11.85246,3.23248 5.58339,3.13454 8.22815,8.71793 z m -40.25917,22.13765 q 0,8.3261 5.9752,14.39926 6.07316,5.97521 14.30132,5.97521 8.3261,0 14.20336,-5.97521 5.87725,-6.07316 5.87725,-14.39926 0,-8.32611 -5.87725,-14.30132 -5.87726,-6.07316 -14.20336,-6.07316 -8.22816,0 -14.30132,6.07316 -5.9752,5.97521 -5.9752,14.30132 z"
       id="path54" />
    <path
       d="m 575.77628,449.41405 q -2.54681,0 -4.50589,1.66523 -1.95908,1.66522 -1.95908,4.11407 0,2.44886 2.15499,4.5059 2.25294,2.05703 5.28952,3.82021 3.13454,1.66522 6.26907,3.62431 3.13454,1.95908 5.28953,4.99566 2.25295,3.03658 2.25295,6.95475 0,5.7793 -4.40794,9.89337 -4.30999,4.01612 -10.4811,4.01612 -3.91817,0 -7.34657,-1.66522 -3.33044,-1.76317 -4.89771,-4.60384 v -4.70181 q 3.72226,8.22816 11.95042,8.22816 5.09361,0 8.52201,-3.13454 3.52635,-3.13453 3.52635,-6.95475 0,-3.91816 -2.25294,-6.56293 -2.155,-2.64476 -5.28953,-4.50589 -3.13454,-1.86113 -6.26907,-3.62431 -3.03658,-1.86113 -5.28953,-4.40794 -2.15499,-2.64476 -2.15499,-6.07316 0,-3.52635 2.74272,-5.87725 2.84067,-2.44885 7.24861,-2.44885 4.40794,0 7.54247,3.42839 v 4.01613 q -3.13453,-4.70181 -7.93429,-4.70181 z"
       id="path53" />
    <path
       d="m 600.75459,492.61186 q -3.33045,0 -3.33045,-3.03658 0,-3.03658 3.33045,-3.03658 3.42839,0 3.42839,3.03658 0,3.03658 -3.42839,3.03658 z"
       id="path52" />
    <path
       d="m 616.62313,491.92618 h -3.13453 v -44.07939 h 3.13453 v 8.91383 q 4.99567,-9.99133 17.04403,-9.99133 8.22816,0 13.81155,5.68135 5.58339,5.68134 5.58339,13.81154 v 25.664 h -3.13454 v -25.664 q 0,-6.75884 -4.79975,-11.75451 -4.70181,-4.99566 -11.46065,-4.99566 -6.75884,0 -11.95041,4.99566 -5.09362,4.99567 -5.09362,11.75451 z"
       id="path51" />
    <path
       d="m 686.8563,493.10163 h -0.88159 q -9.30565,0 -16.2604,-6.95475 -6.85679,-7.0527 -6.85679,-16.35835 0,-9.30565 6.85679,-16.06449 6.8568,-6.85679 16.94608,-6.85679 10.08928,0 17.33789,8.03224 l -30.75762,30.3658 q 6.36703,5.09362 12.24428,5.09362 5.87725,0 10.4811,-2.64476 4.7018,-2.74272 7.73838,-7.24861 v 4.99566 q -6.95475,7.64043 -16.84812,7.64043 z m -1.0775,-43.49167 q -7.73838,0 -13.81154,6.07316 -5.97521,5.97521 -5.97521,13.81155 0,7.83633 5.19158,13.71358 l 28.50467,-28.30876 q -6.07316,-5.28953 -13.9095,-5.28953 z"
       id="path50" />
    <path
       d="m 729.07466,489.77119 v 2.74271 q -6.95475,0 -11.85246,-4.60384 -4.89771,-4.70181 -4.89771,-11.95042 v -45.84256 h 3.13453 v 17.82766 h 13.51768 v 2.74272 h -13.51768 v 25.27218 q 0,5.97521 3.91817,9.89338 4.01612,3.91817 9.69747,3.91817 z"
       id="path49" />
  </g>
  <g
     aria-label="katalogs.net"
     id="text41"
     style="font-weight:300;font-size:128.887px;font-family:Roboto;-inkscape-font-specification:'Roboto Light';display:inline;fill:#ffffff;stroke-width:1.93331">
    <path
       d="M 74.561017,140.36639 H 78.6854 v 58.5147 l 22.94189,-20.10637 h 5.28436 l -26.550719,23.19966 33.252849,34.79948 h -5.54215 L 78.6854,206.22765 v 30.54621 h -4.124383 z"
       style="-inkscape-font-specification:'Poiret One'"
       id="path48" />
    <path
       d="m 182.43949,178.77472 v 57.99914 h -4.12438 v -14.43534 q -3.60884,7.34656 -10.82651,11.59983 -7.21767,4.25327 -15.46644,4.25327 -12.63092,0 -21.65301,-8.8932 -9.02209,-9.02209 -9.02209,-21.52413 0,-12.50204 9.02209,-21.39524 9.02209,-9.02209 21.65301,-9.02209 8.24877,0 15.72422,4.38216 7.60433,4.38216 10.56873,11.59983 v -14.56423 z m -56.96805,29.12846 q 0,10.82651 7.86211,18.8175 7.99099,7.86211 18.8175,7.86211 10.95539,0 18.68861,-7.86211 7.73322,-7.99099 7.73322,-18.8175 0,-10.9554 -7.8621,-18.94639 -7.73322,-7.99099 -18.55973,-7.99099 -10.82651,0 -18.8175,8.11988 -7.86211,7.99099 -7.86211,18.8175 z"
       style="-inkscape-font-specification:'Poiret One'"
       id="path47" />
    <path
       d="m 218.65677,233.93835 v 3.60884 q -9.15098,0 -15.59533,-6.05769 -6.44435,-6.18658 -6.44435,-15.72422 v -60.31911 h 4.12439 v 23.45743 h 17.7864 v 3.60884 h -17.7864 v 33.25284 q 0,7.86211 5.15548,13.01759 5.28436,5.15548 12.75981,5.15548 z"
       style="-inkscape-font-specification:'Poiret One'"
       id="path46" />
    <path
       d="m 286.83789,178.77472 v 57.99914 h -4.12438 v -14.43534 q -3.60884,7.34656 -10.82651,11.59983 -7.21767,4.25327 -15.46644,4.25327 -12.63092,0 -21.65301,-8.8932 -9.02209,-9.02209 -9.02209,-21.52413 0,-12.50204 9.02209,-21.39524 9.02209,-9.02209 21.65301,-9.02209 8.24877,0 15.72422,4.38216 7.60433,4.38216 10.56873,11.59983 v -14.56423 z m -56.96805,29.12846 q 0,10.82651 7.86211,18.8175 7.99099,7.86211 18.8175,7.86211 10.95539,0 18.68861,-7.86211 7.73322,-7.99099 7.73322,-18.8175 0,-10.9554 -7.8621,-18.94639 -7.73322,-7.99099 -18.55973,-7.99099 -10.82651,0 -18.8175,8.11988 -7.86211,7.99099 -7.86211,18.8175 z"
       style="-inkscape-font-specification:'Poiret One'"
       id="path45" />
    <path
       d="m 324.34404,234.32501 v 3.60884 q -9.15098,0 -15.59533,-6.05769 -6.44435,-6.18658 -6.44435,-15.72421 v -76.04333 h 4.12439 v 76.04333 q 0,7.8621 5.15548,13.01758 5.28436,5.15548 12.75981,5.15548 z"
       style="-inkscape-font-specification:'Poiret One'"
       id="path44" />
    <path
       d="m 356.43671,238.19162 q -12.37315,0 -21.26636,-9.15097 -8.8932,-9.27987 -8.8932,-21.52413 0,-12.24427 9.02209,-21.13747 9.02209,-9.02209 21.65301,-9.02209 12.75982,0 21.65302,9.02209 9.02209,8.8932 9.02209,21.26635 0,12.24427 -8.76432,21.39525 -8.76431,9.15097 -21.26635,9.15097 z m 27.06627,-30.28844 q 0,-10.9554 -7.86211,-18.94639 -7.73322,-7.99099 -18.55973,-7.99099 -10.82651,0 -18.8175,8.11988 -7.86211,7.99099 -7.86211,18.8175 0,10.82651 7.86211,18.8175 7.99099,7.86211 18.8175,7.86211 10.9554,0 18.68862,-7.86211 7.73322,-7.99099 7.73322,-18.8175 z"
       style="-inkscape-font-specification:'Poiret One'"
       id="path42" />
    <path
       d="m 453.74633,178.77472 h 4.12438 v 52.58589 q 0,14.95089 -8.24877,23.58632 -8.24876,8.63543 -21.65301,8.63543 -7.34656,0 -14.30646,-3.35106 -6.9599,-3.35106 -10.82651,-8.76432 v -5.9288 q 3.35107,6.18658 10.43985,10.31096 7.21767,4.12438 14.69312,4.12438 11.34205,0 18.55973,-7.73322 7.21767,-7.60433 7.21767,-20.87969 v -8.63543 q -3.47995,7.08879 -10.9554,11.34206 -7.47544,4.25327 -15.46644,4.25327 -12.63092,0 -21.65301,-8.8932 -9.02209,-9.02209 -9.02209,-21.52413 0,-12.50204 9.02209,-21.39524 9.02209,-9.02209 21.65301,-9.02209 8.37766,0 15.59533,4.25327 7.34656,4.12438 10.82651,11.47094 z m -52.97256,29.12846 q 0,10.95539 7.86211,18.94639 7.99099,7.8621 18.8175,7.8621 10.95539,0 18.68861,-7.8621 7.73322,-7.991 7.73322,-18.94639 0,-10.9554 -7.73322,-18.8175 -7.73322,-7.991 -18.68861,-7.991 -10.82651,0 -18.8175,7.991 -7.86211,7.8621 -7.86211,18.8175 z"
       style="-inkscape-font-specification:'Poiret One'"
       id="path41" />
    <path
       d="m 485.96803,180.83691 q -3.35106,0 -5.9288,2.19108 -2.57774,2.19108 -2.57774,5.41325 0,3.22218 2.83552,5.9288 2.9644,2.70663 6.95989,5.0266 4.12439,2.19108 8.24877,4.76882 4.12439,2.57774 6.9599,6.57323 2.9644,3.9955 2.9644,9.15098 0,7.60433 -5.79991,13.01758 -5.67103,5.28437 -13.79091,5.28437 -5.15548,0 -9.66653,-2.19108 -4.38215,-2.31996 -6.44435,-6.05769 v -6.18657 q 4.89771,10.82651 15.72422,10.82651 6.70212,0 11.21316,-4.12439 4.63994,-4.12438 4.63994,-9.15097 0,-5.15548 -2.9644,-8.63543 -2.83552,-3.47995 -6.9599,-5.9288 -4.12439,-2.44886 -8.24877,-4.76882 -3.9955,-2.44886 -6.9599,-5.79992 -2.83551,-3.47995 -2.83551,-7.99099 0,-4.63993 3.60883,-7.73322 3.73773,-3.22218 9.53764,-3.22218 5.79992,0 9.9243,4.51105 v 5.28437 q -4.12438,-6.18658 -10.43985,-6.18658 z"
       style="-inkscape-font-specification:'Poiret One'"
       id="path40" />
    <path
       d="m 518.83419,237.67607 q -4.38216,0 -4.38216,-3.99549 0,-3.9955 4.38216,-3.9955 4.51104,0 4.51104,3.9955 0,3.99549 -4.51104,3.99549 z"
       style="-inkscape-font-specification:'Poiret One'"
       id="path39" />
    <path
       d="m 539.7139,236.77386 h -4.12438 v -57.99914 h 4.12438 v 11.72871 q 6.57324,-13.14647 22.42634,-13.14647 10.82651,0 18.17307,7.47545 7.34656,7.47544 7.34656,18.17306 v 33.76839 h -4.12439 v -33.76839 q 0,-8.8932 -6.31546,-15.46644 -6.18658,-6.57323 -15.07978,-6.57323 -8.8932,0 -15.72421,6.57323 -6.70213,6.57324 -6.70213,15.46644 z"
       style="-inkscape-font-specification:'Poiret One'"
       id="path38" />
    <path
       d="m 632.1259,238.32051 h -1.15999 q -12.24426,0 -21.39524,-9.15098 -9.02209,-9.27986 -9.02209,-21.52413 0,-12.24426 9.02209,-21.13746 9.02209,-9.02209 22.29745,-9.02209 13.27536,0 22.813,10.56873 l -40.47051,39.95497 q 8.37765,6.70212 16.11087,6.70212 7.73322,0 13.79091,-3.47995 6.18657,-3.60883 10.18207,-9.53763 v 6.57323 q -9.15098,10.05319 -22.16856,10.05319 z m -1.41776,-57.22583 q -10.18207,0 -18.17307,7.991 -7.8621,7.8621 -7.8621,18.17306 0,10.31096 6.83101,18.04418 l 37.50611,-37.24834 q -7.99099,-6.9599 -18.30195,-6.9599 z"
       style="-inkscape-font-specification:'Poiret One'"
       id="path37" />
    <path
       d="m 687.67626,233.93835 v 3.60884 q -9.15097,0 -15.59532,-6.05769 -6.44435,-6.18658 -6.44435,-15.72422 v -60.31911 h 4.12438 v 23.45743 h 17.78641 v 3.60884 h -17.78641 v 33.25284 q 0,7.86211 5.15548,13.01759 5.28437,5.15548 12.75981,5.15548 z"
       style="-inkscape-font-specification:'Poiret One'"
       id="path36" />
  </g>
</svg>
