<?xml version="1.0" encoding="UTF-8" standalone="no"?>
<svg
   width="631"
   height="383"
   viewBox="0 0 631 383"
   version="1.1"
   id="svg1"
   sodipodi:docname="katalogs-logo-grey.svg"
   inkscape:version="1.3-dev (f3df6cc7, 2022-08-24)"
   xmlns:inkscape="http://www.inkscape.org/namespaces/inkscape"
   xmlns:sodipodi="http://sodipodi.sourceforge.net/DTD/sodipodi-0.dtd"
   xmlns="http://www.w3.org/2000/svg"
   xmlns:svg="http://www.w3.org/2000/svg">
  <defs
     id="defs1" />
  <sodipodi:namedview
     id="namedview1"
     pagecolor="#ffffff"
     bordercolor="#000000"
     borderopacity="0.25"
     inkscape:showpageshadow="2"
     inkscape:pageopacity="0.0"
     inkscape:pagecheckerboard="0"
     inkscape:deskcolor="#d1d1d1"
     showgrid="false"
     inkscape:zoom="1.232376"
     inkscape:cx="270.61546"
     inkscape:cy="163.50529"
     inkscape:window-width="1920"
     inkscape:window-height="1177"
     inkscape:window-x="-8"
     inkscape:window-y="-8"
     inkscape:window-maximized="1"
     inkscape:current-layer="svg1" />
  <path
     style="display:inline;fill:#ffffff;fill-opacity:0.23529412;stroke:none;stroke-width:0.100845"
     d="M 51.300692,54.969162 V 150.77063 H 148.72504 V 54.969162 Z"
     id="path1"
     sodipodi:nodetypes="ccccc" />
  <path
     style="fill:#000000;fill-opacity:0.333333;stroke:none;stroke-width:0.112707"
     d="m 65.135908,67.971175 c 7.675217,7.85383 16.337623,16.35207 23.461322,23.68375 0.95746,0.9782 1.95305,1.95437 2.83397,2.98835 0.37159,0.43627 1.41881,1.61284 1.83264,1.98869 0.33453,-0.18732 0.58936,-0.30904 0.79427,-0.50156 2.6211,-2.28721 5.60829,-4.84081 7.98345,-6.8564 0.68178,-0.52645 1.97462,-1.57186 2.29673,-2.32355 0.0499,-0.38716 -0.44054,-0.93197 -0.6867,-1.19887 -4.37165,-4.67746 -9.12273,-9.59267 -13.27268,-13.734659 -0.22283,-0.219223 -0.64457,-0.546516 -0.34613,-0.870321 0.52273,-0.566926 2.32856,-1.040677 3.07638,-1.13817 1.1412,-0.187248 2.05735,-0.378017 3.04423,-0.493873 1.51726,-0.178195 2.98564,-0.103248 4.46782,0.0034 1.15829,0.08276 2.42874,0.276516 3.55571,0.588709 1.92885,0.534125 2.8511,0.70824 4.6782,1.577105 0.78162,0.371704 2.7767,1.393288 3.48447,1.867442 1.96698,1.317537 3.7793,3.064657 5.28833,4.869657 0.76966,0.92058 1.62511,1.97954 2.22246,3.03548 1.72982,3.05763 2.36572,6.44661 2.36572,9.91819 3.33522,0 6.99098,0.62428 10.25631,1.29758 1.52424,0.31437 3.05402,0.9242 4.62098,0.95657 V 67.818889 c 0,-0.479793 0.2005,-1.553999 -0.11596,-1.945102 -0.23297,-0.287957 -0.74956,-0.216429 -1.1239,-0.196321 H 132.58501 119.28563 79.162001 67.891349 c -1.174839,0 -3.499671,-0.111872 -4.502657,0.04774 -0.561781,0.220016 -0.21192,0.52424 0.394434,1.054556 0.490403,0.428914 1.146608,1.046855 1.352689,1.19228 z"
     id="path8"
     sodipodi:nodetypes="ccccccccccccccscccccccsccccscsc" />
  <path
     style="fill:#000000;fill-opacity:0.333333;stroke:none;stroke-width:0.112707"
     d="m 62.819633,69.170514 v 40.349006 c 1.55985,-0.73789 2.970759,-1.94894 4.417459,-2.89163 2.077403,-1.20764 4.201863,-2.49666 6.203853,-3.6294 1.077056,-0.55001 2.543186,-1.88033 3.805146,-1.70655 -0.29271,-0.98821 -0.95553,-1.854821 -1.32635,-2.817675 -0.87731,-2.27735 -1.53653,-5.09795 -1.36848,-7.55135 0.12876,-1.88254 0.3272,-3.84915 0.98304,-5.63535 0.21448,-0.58415 1.12841,-2.0632 0.92386,-2.64703 -0.13582,-0.38737 -1.34304,-1.64122 -1.62527,-1.92659 -4.430586,-4.15606 -8.481238,-7.321432 -11.78785,-11.543431 z"
     id="path13"
     sodipodi:nodetypes="cccccccscccc" />
  <path
     style="fill:#000000;fill-opacity:0.333333;stroke:none;stroke-width:0.112707"
     d="m 122.2161,91.373725 c 0,1.98309 -0.21403,4.01676 -1.03511,5.86078 -0.49499,1.11163 -0.92892,2.245114 -1.36083,3.381185 -0.16252,0.4274 -0.51191,0.76191 -0.52284,1.23978 -0.0137,0.5809 0.40609,0.8496 0.76124,1.23516 4.85674,4.63931 16.08696,17.60743 16.75188,18.03385 0.38504,0.17535 0.22237,0.0893 0.28295,0.11663 V 93.627895 c -1.52876,-0.0657 -3.01784,-0.6492 -4.50828,-0.95655 -3.30715,-0.68199 -6.99119,-1.29759 -10.36901,-1.29759 z"
     id="path95"
     sodipodi:nodetypes="cccsccccsc" />
  <path
     style="fill:#000000;fill-opacity:0.333333;stroke:none;stroke-width:0.112707"
     d="m 62.819633,140.06305 h 65.595327 c -0.49377,-0.88586 -1.24857,-1.47633 -1.86349,-2.25852 -7.03295,-8.26331 -13.54385,-16.14167 -20.0677,-23.66853 -0.56261,-0.64829 -1.02382,-1.77053 -1.84995,-2.12361 -0.44385,-0.1897 -1.11905,0.096 -1.57789,0.16408 -1.12335,0.16633 -2.24163,0.35672 -3.38119,0.38457 -3.79902,0.093 -7.62811,-0.21709 -11.15796,-1.7455 -3.100241,-1.34243 -5.935839,-3.24593 -8.316759,-5.64367 -0.78614,-0.79167 -1.54173,-1.70245 -2.14832,-2.63994 -0.25076,-0.38761 -0.57817,-1.12796 -1.05177,-1.2729 -0.86638,-0.26521 -2.745886,1.24213 -3.477556,1.66579 -2.56635,1.48592 -5.113164,2.91122 -7.61222,4.51392 -0.853062,0.54707 -2.56337,1.2093 -3.089043,2.08547 -0.01546,0.74074 -0.0014,1.72931 -0.0014,2.36227 z"
     id="path127"
     sodipodi:nodetypes="cccccccccccccccc" />
  <g
     aria-label="katalogs.net"
     id="text1"
     style="font-size:85.3333px;font-family:'Poiret One';-inkscape-font-specification:'Poiret One';fill-opacity:0.33218">
    <path
       d="m 163.83492,65.032449 h 2.73066 v 38.741321 l 15.18933,-13.311999 h 3.49867 l -17.57866,15.359989 22.01599,23.04 h -3.66933 l -19.456,-20.224 v 20.224 h -2.73066 z"
       id="path2" />
    <path
       d="m 235.25893,90.461771 v 38.399989 h -2.73067 v -9.55733 q -2.38933,4.86399 -7.16799,7.67999 -4.77867,2.816 -10.24,2.816 -8.36266,0 -14.33599,-5.888 -5.97333,-5.97333 -5.97333,-14.25066 0,-8.27733 5.97333,-14.165324 5.97333,-5.973331 14.33599,-5.973331 5.46133,0 10.41066,2.901332 5.03467,2.901332 6.99733,7.679993 V 90.461771 Z M 197.54161,109.7471 q 0,7.16799 5.20533,12.45866 5.29067,5.20533 12.45866,5.20533 7.25333,0 12.37333,-5.20533 5.12,-5.29067 5.12,-12.45866 0,-7.25333 -5.20533,-12.543998 -5.12,-5.290665 -12.288,-5.290665 -7.16799,0 -12.45866,5.375998 -5.20533,5.290665 -5.20533,12.458665 z"
       id="path3" />
    <path
       d="m 259.23761,126.98442 v 2.38934 q -6.05866,0 -10.32533,-4.01067 -4.26666,-4.096 -4.26666,-10.41066 V 75.016445 h 2.73066 v 15.53066 h 11.776 v 2.389332 h -11.776 v 22.015993 q 0,5.20533 3.41333,8.61866 3.49867,3.41333 8.448,3.41333 z"
       id="path4" />
    <path
       d="m 304.37885,90.461771 v 38.399989 h -2.73066 v -9.55733 q -2.38933,4.86399 -7.168,7.67999 -4.77866,2.816 -10.23999,2.816 -8.36267,0 -14.336,-5.888 -5.97333,-5.97333 -5.97333,-14.25066 0,-8.27733 5.97333,-14.165324 5.97333,-5.973331 14.336,-5.973331 5.46133,0 10.41066,2.901332 5.03466,2.901332 6.99733,7.679993 V 90.461771 Z M 266.66154,109.7471 q 0,7.16799 5.20533,12.45866 5.29066,5.20533 12.45866,5.20533 7.25333,0 12.37333,-5.20533 5.12,-5.29067 5.12,-12.45866 0,-7.25333 -5.20534,-12.543998 -5.11999,-5.290665 -12.28799,-5.290665 -7.168,0 -12.45866,5.375998 -5.20533,5.290665 -5.20533,12.458665 z"
       id="path5" />
    <path
       d="m 329.21086,127.24042 v 2.38934 q -6.05866,0 -10.32533,-4.01067 -4.26666,-4.096 -4.26666,-10.41066 V 64.861782 h 2.73066 v 50.346648 q 0,5.20533 3.41334,8.61866 3.49866,3.41333 8.44799,3.41333 z"
       id="path6" />
    <path
       d="m 350.45873,129.80042 q -8.192,0 -14.07999,-6.05866 -5.888,-6.144 -5.888,-14.25066 0,-8.10667 5.97333,-13.994664 5.97333,-5.973331 14.33599,-5.973331 8.448,0 14.336,5.973331 5.97333,5.887994 5.97333,14.079994 0,8.10666 -5.80267,14.16533 -5.80266,6.05866 -14.07999,6.05866 z m 17.91999,-20.05332 q 0,-7.25333 -5.20533,-12.543998 -5.12,-5.290665 -12.28799,-5.290665 -7.168,0 -12.45866,5.375998 -5.20533,5.290665 -5.20533,12.458665 0,7.16799 5.20533,12.45866 5.29066,5.20533 12.45866,5.20533 7.25333,0 12.37333,-5.20533 5.11999,-5.29067 5.11999,-12.45866 z"
       id="path7" />
    <path
       d="m 414.88534,90.461771 h 2.73067 v 34.815989 q 0,9.89866 -5.46134,15.61599 -5.46133,5.71733 -14.33599,5.71733 -4.864,0 -9.472,-2.21866 -4.60799,-2.21867 -7.16799,-5.80267 v -3.92533 q 2.21866,4.096 6.91199,6.82666 4.77867,2.73067 9.728,2.73067 7.50933,0 12.288,-5.12 4.77866,-5.03466 4.77866,-13.82399 v -5.71733 q -2.304,4.69333 -7.25333,7.50933 -4.94933,2.81599 -10.24,2.81599 -8.36266,0 -14.33599,-5.88799 -5.97333,-5.97333 -5.97333,-14.25066 0,-8.27733 5.97333,-14.165331 5.97333,-5.973331 14.33599,-5.973331 5.54667,0 10.32533,2.815999 4.864,2.730666 7.168,7.594663 z M 379.81335,109.7471 q 0,7.25333 5.20534,12.54399 5.29066,5.20533 12.45866,5.20533 7.25333,0 12.37333,-5.20533 5.11999,-5.29066 5.11999,-12.54399 0,-7.25333 -5.11999,-12.458665 -5.12,-5.290664 -12.37333,-5.290664 -7.168,0 -12.45866,5.290664 -5.20534,5.205335 -5.20534,12.458665 z"
       id="path9" />
    <path
       d="m 436.21864,91.827104 q -2.21867,0 -3.92533,1.450666 -1.70667,1.450666 -1.70667,3.583999 0,2.133332 1.87733,3.925331 1.96267,1.792 4.608,3.328 2.73067,1.45067 5.46133,3.15733 2.73067,1.70667 4.608,4.352 1.96267,2.64533 1.96267,6.05866 0,5.03467 -3.84,8.61867 -3.75467,3.49866 -9.13067,3.49866 -3.41333,0 -6.39999,-1.45066 -2.90133,-1.536 -4.26667,-4.01067 v -4.096 q 3.24267,7.168 10.41067,7.168 4.43733,0 7.42399,-2.73067 3.072,-2.73066 3.072,-6.05866 0,-3.41333 -1.96267,-5.71733 -1.87733,-2.304 -4.60799,-3.92533 -2.73067,-1.62134 -5.46133,-3.15734 -2.64534,-1.62133 -4.608,-3.83999 -1.87733,-2.304002 -1.87733,-5.290668 0,-3.071999 2.38933,-5.119998 2.47466,-2.133332 6.31466,-2.133332 3.84,0 6.57067,2.986665 v 3.498665 q -2.73067,-4.095998 -6.912,-4.095998 z"
       id="path10" />
    <path
       d="m 457.97862,129.45909 q -2.90133,0 -2.90133,-2.64533 0,-2.64534 2.90133,-2.64534 2.98666,0 2.98666,2.64534 0,2.64533 -2.98666,2.64533 z"
       id="path11" />
    <path
       d="m 471.80261,128.86176 h -2.73066 V 90.461771 h 2.73066 v 7.76533 q 4.352,-8.703996 14.848,-8.703996 7.16799,0 12.03199,4.949331 4.864,4.949332 4.864,12.031994 v 22.35733 h -2.73067 v -22.35733 q 0,-5.888 -4.18133,-10.239994 -4.096,-4.351999 -9.98399,-4.351999 -5.888,0 -10.41067,4.351999 -4.43733,4.351994 -4.43733,10.239994 z"
       id="path12" />
    <path
       d="m 532.9866,129.88575 h -0.768 q -8.10666,0 -14.16533,-6.05866 -5.97333,-6.144 -5.97333,-14.25066 0,-8.10666 5.97333,-13.994661 5.97333,-5.973331 14.76266,-5.973331 8.78933,0 15.104,6.997331 l -26.79466,26.453321 q 5.54667,4.43733 10.66666,4.43733 5.12,0 9.13067,-2.304 4.096,-2.38933 6.74133,-6.31466 v 4.352 q -6.05867,6.65599 -14.67733,6.65599 z m -0.93867,-37.887979 q -6.74133,0 -12.03199,5.290664 -5.20533,5.205335 -5.20533,12.031995 0,6.82666 4.52266,11.94666 l 24.83199,-24.661321 q -5.29066,-4.607998 -12.11733,-4.607998 z"
       id="path14" />
    <path
       d="m 569.76532,126.98442 v 2.38934 q -6.05866,0 -10.32533,-4.01067 -4.26666,-4.096 -4.26666,-10.41066 V 75.016445 h 2.73066 v 15.53066 h 11.776 v 2.389332 h -11.776 v 22.015993 q 0,5.20533 3.41333,8.61866 3.49867,3.41333 8.448,3.41333 z"
       id="path15" />
  </g>
  <g
     aria-label="Making.Work.Easer."
     transform="scale(0.99972677,1.0002733)"
     id="text4"
     style="font-size:30.8191px;font-family:po;-inkscape-font-specification:po;fill-opacity:0.33218;stroke-width:1.15571">
    <path
       d="m 186.44992,181.57592 h 0.0903 l 8.15623,-19.29204 h 2.19706 v 21.91046 h -1.8058 v -18.40418 l -0.0903,-0.015 -7.85526,18.41923 h -1.29416 l -8.03584,-18.87068 -0.0903,0.0151 v 18.85563 h -1.80581 v -21.91046 h 2.40774 z"
       style="-inkscape-font-specification:'Roboto Light'"
       id="path16" />
    <path
       d="m 212.3783,184.19434 q -0.16554,-0.85776 -0.25583,-1.47475 -0.0752,-0.61698 -0.0752,-1.26406 -0.84271,1.32426 -2.3626,2.19706 -1.51988,0.85776 -3.49122,0.85776 -2.3927,0 -3.71695,-1.26406 -1.30921,-1.27912 -1.30921,-3.46113 0,-2.18202 1.91114,-3.53637 1.91115,-1.35436 4.96597,-1.35436 h 4.00287 v -2.01648 q 0,-1.74562 -1.11358,-2.73881 -1.09853,-0.99319 -3.11502,-0.99319 -1.85095,0 -2.99462,0.9029 -1.12863,0.9029 -1.12863,2.27231 h -1.67037 l -0.0301,-0.0903 q -0.0903,-1.83591 1.56503,-3.22036 1.67037,-1.3995 4.34898,-1.3995 2.67862,0 4.30384,1.36941 1.62523,1.3694 1.62523,3.92762 v 8.00575 q 0,0.85776 0.0903,1.67037 0.10534,0.81261 0.33106,1.61018 z m -5.98926,-1.27912 q 2.07668,0 3.59656,-0.97814 1.51989,-0.9932 2.06163,-2.54318 v -3.11502 h -4.01792 q -2.19706,0 -3.62666,1.05339 -1.4296,1.03834 -1.4296,2.51308 0,1.38445 0.90291,2.22716 0.91795,0.84271 2.51308,0.84271 z"
       style="-inkscape-font-specification:'Roboto Light'"
       id="path17" />
    <path
       d="m 222.35538,176.26384 h -1.8961 v 7.9305 h -1.80581 v -23.47549 h 1.80581 v 13.995 h 1.71552 l 6.24508,-6.80187 h 2.10677 l 0.0301,0.0752 -6.68149,7.38876 7.22323,8.74311 -0.0451,0.0753 h -2.06163 z"
       style="-inkscape-font-specification:'Roboto Light'"
       id="path18" />
    <path
       d="m 235.79359,184.19434 h -1.79076 v -16.28236 h 1.79076 z m 0,-20.94736 h -1.79076 v -2.52813 h 1.79076 z"
       style="-inkscape-font-specification:'Roboto Light'"
       id="path19" />
    <path
       d="m 242.36973,167.91198 0.16553,2.8291 q 0.79757,-1.48979 2.12183,-2.30241 1.32426,-0.82766 3.14511,-0.82766 2.64852,0 4.03297,1.62523 1.38445,1.61018 1.38445,5.04121 v 9.91689 h -1.80581 v -9.90184 q 0,-2.799 -1.05338,-3.95773 -1.03834,-1.15873 -2.96454,-1.15873 -1.92619,0 -3.11501,0.94805 -1.17378,0.94805 -1.70047,2.54318 v 11.52707 h -1.80581 v -16.28236 z"
       style="-inkscape-font-specification:'Roboto Light'"
       id="path20" />
    <path
       d="m 257.28269,176.18859 q 0,-3.89753 1.64027,-6.23003 1.65533,-2.34755 4.60481,-2.34755 1.73056,0 3.00968,0.75242 1.27911,0.73737 2.10677,2.10678 l 0.25582,-2.55823 h 1.4597 v 16.37265 q 0,3.11501 -1.71552,4.80043 -1.71551,1.68542 -4.86063,1.68542 -1.17377,0 -2.51308,-0.28592 -1.32426,-0.28592 -2.31745,-0.78251 l 0.34611,-1.51989 q 0.97815,0.48155 2.07668,0.72232 1.11358,0.25582 2.37765,0.25582 2.40774,0 3.59656,-1.23396 1.18882,-1.23397 1.18882,-3.64171 v -2.30241 q -0.82766,1.21892 -2.10677,1.88105 -1.26407,0.64708 -2.93444,0.64708 -2.91938,0 -4.57471,-2.18201 -1.64027,-2.18202 -1.64027,-5.82373 z m 1.80581,0.31602 q 0,2.94948 1.18882,4.6951 1.18882,1.74561 3.56647,1.74561 1.71551,0 2.87424,-0.76747 1.17377,-0.78251 1.82085,-2.13687 v -7.76497 q -0.61698,-1.3694 -1.76066,-2.22716 -1.12863,-0.87281 -2.90434,-0.87281 -2.37764,0 -3.58151,1.95629 -1.20387,1.9563 -1.20387,5.05626 z"
       style="-inkscape-font-specification:'Roboto Light'"
       id="path21" />
    <path
       d="m 277.28199,184.19434 h -2.06163 v -2.46794 h 2.06163 z"
       style="-inkscape-font-specification:'Roboto Light'"
       id="path22" />
    <path
       d="m 286.68724,177.90411 0.67718,3.53637 h 0.0903 l 0.76746,-3.53637 4.57472,-15.62023 h 1.82085 l 4.58976,15.62023 0.73737,3.55142 h 0.0903 l 0.72232,-3.55142 3.86744,-15.62023 h 1.95629 l -5.61305,21.91046 h -1.71552 l -4.95092,-16.80905 -0.54174,-2.3626 h -0.0903 l -0.51164,2.3626 -5.01112,16.80905 h -1.71551 l -5.61305,-21.91046 h 1.95629 z"
       style="-inkscape-font-specification:'Roboto Light'"
       id="path23" />
    <path
       d="m 308.25157,175.81238 q 0,-3.59656 1.97134,-5.89896 1.97134,-2.30241 5.22179,-2.30241 3.2655,0 5.23684,2.30241 1.97134,2.3024 1.97134,5.89896 v 0.4966 q 0,3.61161 -1.97134,5.91402 -1.95629,2.28735 -5.20674,2.28735 -3.28055,0 -5.25189,-2.28735 -1.97134,-2.30241 -1.97134,-5.91402 z m 1.80581,0.4966 q 0,2.8291 1.4296,4.75529 1.4296,1.92619 3.98782,1.92619 2.51308,0 3.94268,-1.92619 1.44464,-1.92619 1.44464,-4.75529 v -0.4966 q 0,-2.78395 -1.44464,-4.72519 -1.44465,-1.94124 -3.97278,-1.94124 -2.52812,0 -3.95772,1.94124 -1.4296,1.94124 -1.4296,4.72519 z"
       style="-inkscape-font-specification:'Roboto Light'"
       id="path24" />
    <path
       d="m 333.84889,169.46196 -1.27912,-0.0903 q -1.70046,0 -2.799,0.9631 -1.08348,0.94805 -1.54998,2.61842 v 11.24115 h -1.80581 v -16.28236 h 1.58008 l 0.22573,2.70871 v 0.18058 q 0.70727,-1.50484 1.8961,-2.34755 1.18882,-0.84271 2.82909,-0.84271 0.33107,0 0.63204,0.0602 0.30096,0.0451 0.49659,0.10533 z"
       style="-inkscape-font-specification:'Roboto Light'"
       id="path25" />
    <path
       d="m 340.65076,176.26384 h -1.89609 v 7.9305 h -1.80581 v -23.47549 h 1.80581 v 13.995 h 1.71551 l 6.24509,-6.80187 h 2.10677 l 0.0301,0.0752 -6.68149,7.38876 7.22323,8.74311 -0.0452,0.0753 h -2.06163 z"
       style="-inkscape-font-specification:'Roboto Light'"
       id="path26" />
    <path
       d="m 354.26955,184.19434 h -2.06163 v -2.46794 h 2.06163 z"
       style="-inkscape-font-specification:'Roboto Light'"
       id="path27" />
    <path
       d="m 371.4849,173.58522 h -9.8266 v 9.08923 h 11.36154 v 1.51989 H 359.8525 v -21.91046 h 13.0921 v 1.53494 h -11.2863 v 8.23147 h 9.8266 z"
       style="-inkscape-font-specification:'Roboto Light'"
       id="path28" />
    <path
       d="m 386.72893,184.19434 q -0.16553,-0.85776 -0.25582,-1.47475 -0.0753,-0.61698 -0.0753,-1.26406 -0.84271,1.32426 -2.36259,2.19706 -1.51989,0.85776 -3.49123,0.85776 -2.39269,0 -3.71695,-1.26406 -1.30921,-1.27912 -1.30921,-3.46113 0,-2.18202 1.91114,-3.53637 1.91115,-1.35436 4.96597,-1.35436 h 4.00287 v -2.01648 q 0,-1.74562 -1.11358,-2.73881 -1.09853,-0.99319 -3.11501,-0.99319 -1.85096,0 -2.99463,0.9029 -1.12863,0.9029 -1.12863,2.27231 h -1.67037 l -0.0301,-0.0903 q -0.0903,-1.83591 1.56503,-3.22036 1.67037,-1.3995 4.34899,-1.3995 2.67861,0 4.30384,1.36941 1.62522,1.3694 1.62522,3.92762 v 8.00575 q 0,0.85776 0.0903,1.67037 0.10534,0.81261 0.33107,1.61018 z m -5.98926,-1.27912 q 2.07668,0 3.59656,-0.97814 1.51989,-0.9932 2.06163,-2.54318 v -3.11502 h -4.01792 q -2.19706,0 -3.62666,1.05339 -1.42959,1.03834 -1.42959,2.51308 0,1.38445 0.9029,2.22716 0.91795,0.84271 2.51308,0.84271 z"
       style="-inkscape-font-specification:'Roboto Light'"
       id="path29" />
    <path
       d="m 402.74041,180.02593 q 0,-1.14368 -0.94805,-1.98638 -0.933,-0.85776 -3.38589,-1.39951 -2.88929,-0.60193 -4.30384,-1.64027 -1.3995,-1.05339 -1.3995,-2.93444 0,-1.866 1.56503,-3.16016 1.58008,-1.29416 4.16841,-1.29416 2.72375,0 4.34898,1.38445 1.62523,1.36941 1.54998,3.38589 l -0.0301,0.0903 h -1.67037 q 0,-1.33931 -1.15873,-2.3325 -1.14368,-0.99319 -3.03977,-0.99319 -1.95629,0 -2.94949,0.85776 -0.99319,0.85775 -0.99319,2.00143 0,1.11358 0.84271,1.85095 0.85776,0.72233 3.40093,1.27912 2.8592,0.63203 4.31889,1.76066 1.47474,1.12863 1.47474,3.03977 0,2.03153 -1.65532,3.31065 -1.64027,1.26406 -4.34898,1.26406 -2.96454,0 -4.665,-1.41455 -1.68542,-1.41454 -1.59513,-3.37084 l 0.0301,-0.0903 h 1.65533 q 0.10534,1.76067 1.42959,2.55823 1.33931,0.79756 3.14512,0.79756 1.95629,0 3.08492,-0.8728 1.12863,-0.87281 1.12863,-2.09173 z"
       style="-inkscape-font-specification:'Roboto Light'"
       id="path30" />
    <path
       d="m 414.8694,184.51035 q -3.16016,0 -5.1315,-2.22716 -1.97134,-2.24221 -1.97134,-5.74848 v -0.82767 q 0,-3.52132 1.98639,-5.80867 2.00144,-2.28736 4.95092,-2.28736 2.96453,0 4.57471,1.91115 1.62523,1.89609 1.62523,5.11645 v 1.3995 h -11.33144 v 0.4966 q 0,2.78395 1.3995,4.61985 1.41455,1.8359 3.89753,1.8359 1.48979,0 2.73881,-0.48154 1.24902,-0.4966 2.07668,-1.32426 l 0.76746,1.23397 q -0.85775,0.9029 -2.25725,1.50483 -1.38446,0.58689 -3.3257,0.58689 z m -0.16553,-15.3644 q -2.07668,0 -3.41598,1.48979 -1.33931,1.48979 -1.56504,3.77714 l 0.0451,0.0903 h 9.33 v -0.37621 q 0,-2.16696 -1.14368,-3.56646 -1.12863,-1.41455 -3.25045,-1.41455 z"
       style="-inkscape-font-specification:'Roboto Light'"
       id="path31" />
    <path
       d="m 431.97943,169.46196 -1.27912,-0.0903 q -1.70046,0 -2.799,0.9631 -1.08348,0.94805 -1.54998,2.61842 v 11.24115 h -1.80581 v -16.28236 h 1.58008 l 0.22573,2.70871 v 0.18058 q 0.70727,-1.50484 1.8961,-2.34755 1.18882,-0.84271 2.82909,-0.84271 0.33107,0 0.63204,0.0602 0.30096,0.0451 0.49659,0.10533 z"
       style="-inkscape-font-specification:'Roboto Light'"
       id="path32" />
    <path
       d="m 435.41045,184.19434 h -2.06163 v -2.46794 h 2.06163 z"
       style="-inkscape-font-specification:'Roboto Light'"
       id="path33" />
  </g>
</svg>
