<?xml version="1.0" encoding="UTF-8" standalone="no"?>
<svg
   width="5474.1016"
   height="1238.0938"
   version="1.1"
   id="svg230"
   sodipodi:docname="logo.svg"
   inkscape:version="1.3-dev (f3df6cc7, 2022-08-24)"
   inkscape:export-filename="..\..\..\public\logo1.png"
   inkscape:export-xdpi="14.03"
   inkscape:export-ydpi="14.03"
   xmlns:inkscape="http://www.inkscape.org/namespaces/inkscape"
   xmlns:sodipodi="http://sodipodi.sourceforge.net/DTD/sodipodi-0.dtd"
   xmlns="http://www.w3.org/2000/svg"
   xmlns:svg="http://www.w3.org/2000/svg">
  <defs
     id="defs230">
    <clipPath
       clipPathUnits="userSpaceOnUse"
       id="clipPath16">
      <g
         inkscape:label="Clip"
         id="use16" />
    </clipPath>
  </defs>
  <sodipodi:namedview
     id="namedview230"
     pagecolor="#ffffff"
     bordercolor="#000000"
     borderopacity="0.25"
     inkscape:showpageshadow="2"
     inkscape:pageopacity="0.0"
     inkscape:pagecheckerboard="0"
     inkscape:deskcolor="#d1d1d1"
     showgrid="false"
     inkscape:zoom="0.24634656"
     inkscape:cx="2794.8432"
     inkscape:cy="233.41101"
     inkscape:window-width="1920"
     inkscape:window-height="1177"
     inkscape:window-x="-8"
     inkscape:window-y="-8"
     inkscape:window-maximized="1"
     inkscape:current-layer="g17" />
  <g
     id="g17"
     style="display:inline;fill:#21159f;fill-opacity:0.439446"
     transform="translate(-4.9775995e-6,-2.9650326e-5)">
    <rect
       style="font-size:733.333px;font-family:'Electro Static Rain';-inkscape-font-specification:'Electro Static Rain';display:inline;fill:#666666;fill-opacity:1;stroke-width:1.13637"
       id="rect68"
       width="5338.4507"
       height="765.88885"
       x="72.624763"
       y="70.331345" />
    <path
       id="path70"
       style="display:inline;fill:#333333;fill-opacity:1;stroke-width:1.06652"
       d="m 5430.8622,661.85301 c 0,58.30602 15.3385,103.50989 -157.0117,155.59189 C 4970.0888,829.30979 1052.99,862.17639 36.530052,827.82773 20.089497,721.75511 65.014023,522.83792 617.91821,446.93768 1170.8223,371.03744 1920.7214,344.63442 2702.646,344.63442 c 781.9246,0 1531.8234,26.40302 2084.7277,102.30327 552.9041,75.90023 643.4885,107.57618 643.4885,214.91532 z"
       sodipodi:nodetypes="sccssss" />
    <path
       id="path52"
       style="font-size:733.333px;font-family:'Electro Static Rain';-inkscape-font-specification:'Electro Static Rain';display:inline;fill:#ffffff;fill-opacity:1;stroke-width:1.05717"
       d="M 4.9775995e-6,2.9650326e-5 V 958.00003 H 0.94336435 V 1238.0938 H 5473.8711 V 958.00003 h 0.2305 V 2.9650326e-5 Z M 173.45313,139.68167 c 7.57213,0.071 15.33503,0.31836 20.54687,0.31836 h 100 356 118 29 c 3.32148,-0.1784 7.90567,-0.81282 9.97266,1.74219 2.80701,3.46999 1.02734,13.00081 1.02734,17.25781 v 229 245 c -0.53748,-0.24331 0.9067,0.52241 -2.50976,-1.0332 -5.89943,-3.78365 -105.54109,-118.84524 -148.63281,-160.00782 -3.151,-3.42096 -6.8719,-5.80499 -6.75391,-10.95898 0.097,-4.24 3.19668,-7.208 4.63867,-11 3.832,-10.07996 7.68222,-20.13704 12.07422,-30 7.28495,-16.36092 9.18359,-34.40507 9.18359,-52 0,-30.80188 -5.64227,-60.87112 -20.99023,-88 -5.29995,-9.36896 -12.88976,-18.76369 -19.71875,-26.93164 -13.38893,-16.01492 -29.46993,-31.51706 -46.92187,-43.20703 -6.27998,-4.20699 -23.98104,-13.27233 -30.91602,-16.57031 -16.21092,-7.70898 -24.39388,-9.2532 -41.50781,-13.99219 -9.99895,-2.77001 -21.26993,-4.48866 -31.54688,-5.22266 -13.15095,-0.93901 -26.18062,-1.60449 -39.64258,-0.0234 -8.75596,1.02801 -16.88426,2.72139 -27.00976,4.38282 -6.63496,0.865 -22.65693,5.06769 -27.29492,10.09765 -2.64797,2.873 1.09334,5.77766 3.07031,7.72266 36.82075,36.75011 78.97604,80.36032 117.76367,121.86133 2.18396,2.36799 6.53476,7.20173 6.09375,10.63672 -2.85798,6.66937 -14.32994,15.94426 -20.37891,20.61523 -21.07374,17.88339 -47.57812,40.54044 -70.83398,60.83398 -1.81799,1.70799 -4.07888,2.7891 -7.04687,4.45118 -3.67189,-3.33466 -12.96277,-13.77354 -16.25977,-17.64453 -7.81596,-9.17397 -16.64957,-17.83667 -25.14453,-26.51563 -63.20523,-65.05086 -140.06549,-140.4514 -208.16406,-210.13477 -1.82854,-1.2903 -7.65078,-6.77449 -12.00196,-10.58007 -5.37984,-4.70526 -8.48244,-7.40339 -3.49804,-9.35547 4.44952,-0.70776 11.83017,-0.81323 19.40234,-0.74219 z M 149,171.00003 h 2 c 29.33801,37.45997 65.27735,65.54512 104.5879,102.41992 2.50398,2.532 13.21787,13.65678 14.42187,17.09375 1.81497,5.18 -6.29428,18.30332 -8.19727,23.48633 -5.81897,15.84791 -7.57965,33.29705 -8.72265,50 -1.491,21.76788 4.3586,46.79408 12.14258,67 3.28999,8.54296 9.17058,16.23205 11.76757,25 -0.56035,-0.0772 -1.14216,0.0167 -1.71093,0.004 3.93165,1.63162 6.72458,7.69656 8.85937,10.99609 5.38196,8.31796 12.08558,16.39987 19.06055,23.42383 21.12491,21.27393 46.28414,38.16328 73.79101,50.07422 31.31888,13.56094 65.29317,16.31233 99,15.48632 10.11096,-0.247 20.03303,-1.93611 30,-3.4121 4.07099,-0.604 10.06205,-3.13808 14,-1.45508 7.33,3.13299 11.42208,13.09176 16.41407,18.84375 57.88278,66.78238 115.6525,136.68326 178.05273,210 5.45601,6.93996 12.15225,12.1791 16.5332,20.03906 H 149 v -250 c 0,-5.61596 -0.12789,-14.38675 0.0137,-20.95898 0.0176,-0.0294 0.0485,-0.0566 0.0664,-0.0859 -0.0274,0.013 -0.0527,0.0319 -0.0801,0.0449 z m 825.07032,27.06055 h 71.17578 v 242.88086 c 18.3443,-14.67773 46.1053,-22.01563 83.2832,-22.01563 h 48.7969 c 22.747,0 42.3136,-7.68973 58.7011,-23.06641 16.3875,-15.60964 24.5821,-34.36357 24.5821,-56.26367 V 305.6973 h 71.1758 v 33.89843 c 0,24.69587 -5.8711,47.52792 -17.6114,68.4961 -11.7405,20.96818 -24.3365,35.87919 -37.789,44.73242 13.4525,9.08621 26.0485,24.11385 37.789,45.08203 11.7403,20.96819 17.6114,43.6836 17.6114,68.14648 v 149.92188 h -71.1758 V 566.05276 c 0,-21.66711 -8.1946,-40.30637 -24.5821,-55.91601 -16.1429,-15.60965 -35.7095,-23.41406 -58.7011,-23.41406 h -48.7969 c -22.747,0 -42.3135,7.80441 -58.7012,23.41406 -16.3876,15.60964 -24.582,34.2489 -24.582,55.91601 v 149.92188 h -71.17578 z m 825.49418,0 h 71.1777 v 126.50781 c 18.3444,-14.44476 46.1054,-21.66797 83.2832,-21.66797 h 35.5879 v 67.79688 h -35.5879 c -22.7469,0 -42.3155,7.80637 -58.7031,23.41601 -16.3876,15.37668 -24.5801,34.01396 -24.5801,55.91406 v 121.61719 c 0,21.66713 8.1925,40.30442 24.5801,55.91406 16.3876,15.60966 35.9562,23.41407 58.7031,23.41407 h 48.7949 c 22.9915,0 42.5602,-7.80441 58.7031,-23.41407 16.3876,-15.60964 24.5801,-37.16073 24.5801,-64.65234 h 71.1758 c 0,32.85016 -6.9705,60.45816 -20.9121,82.82422 -13.9416,22.13308 -32.652,39.84125 -56.1328,53.12109 -23.2362,13.27986 -49.0415,19.91992 -77.4141,19.91992 h -48.7949 c -28.3725,0 -54.3006,-6.64006 -77.7813,-19.91992 -23.236,-13.27984 -41.824,-30.98801 -55.7656,-53.12109 -13.9418,-22.36606 -20.914,-47.06029 -20.914,-74.08594 z m 808.2519,0 h 71.1777 v 373.58398 c 0,21.66713 8.1925,40.30442 24.5801,55.91406 16.3876,15.60966 35.9562,23.41407 58.7031,23.41407 h 35.5879 v 67.79882 h -35.5879 c -28.3725,0 -54.3006,-6.64006 -77.7812,-19.91992 -23.2363,-13.27984 -41.8239,-30.98801 -55.7656,-53.12109 -13.9417,-22.36606 -20.9141,-47.06029 -20.9141,-74.08594 z m 2388.0664,0 h 71.1778 v 126.50781 c 18.3442,-14.44476 46.1054,-21.66797 83.2832,-21.66797 h 35.5878 v 67.79688 h -35.5878 c -22.7469,0 -42.3156,7.80637 -58.7032,23.41601 -16.3877,15.37668 -24.58,34.01396 -24.58,55.91406 v 121.61719 c 0,21.66713 8.1923,40.30442 24.58,55.91406 16.3876,15.60966 35.9563,23.41407 58.7032,23.41407 h 48.7949 c 22.9916,0 42.5601,-7.80441 58.7031,-23.41407 16.3876,-15.60964 24.5801,-37.16073 24.5801,-64.65234 h 71.1758 c 0,32.85016 -6.9705,60.45816 -20.9121,82.82422 -13.9417,22.13308 -32.6521,39.84125 -56.1329,53.12109 -23.236,13.27986 -49.0415,19.91992 -77.414,19.91992 h -48.7949 c -28.3725,0 -54.3006,-6.64006 -77.7813,-19.91992 -23.2362,-13.27984 -41.8239,-30.98801 -55.7656,-53.12109 -13.9417,-22.36606 -20.9141,-47.06029 -20.9141,-74.08594 z M 1541.2773,302.90042 h 48.795 c 21.2793,0 41.2138,3.84486 59.8027,11.5332 18.8335,7.68835 35.2224,18.17133 49.1641,31.45118 30.3291,29.35545 45.4941,64.07004 45.4941,104.14257 v 121.61719 c 0,20.26925 -4.0359,39.25642 -12.1074,56.96289 -8.0715,17.70645 -19.2005,33.31531 -33.3867,46.82813 -13.9417,13.51283 -30.3306,24.11439 -49.1641,31.80273 -18.5889,7.68833 -38.5234,11.5332 -59.8027,11.5332 h -48.795 c -21.2792,0 -41.3363,-3.84487 -60.1699,-11.5332 -18.5889,-7.68834 -34.8533,-18.2899 -48.7949,-31.80273 -14.1864,-13.51282 -25.3152,-29.12168 -33.3867,-46.82813 -8.0715,-17.70647 -12.1074,-37.62669 -12.1074,-59.75976 l 18.7109,-27.25782 265.2578,-112.52929 c -2.446,-11.88197 -9.7822,-23.64788 -22.0117,-35.29688 -16.3877,-15.37666 -35.9562,-23.0664 -58.7031,-23.0664 h -48.795 c -22.7468,0 -42.3155,7.68974 -58.7031,23.0664 -16.3875,15.60966 -24.5801,37.27541 -24.5801,65 h -71.1757 c 0,-26.09372 4.0359,-47.99274 12.1074,-65.69922 8.0715,-17.93944 19.2003,-33.66687 33.3867,-47.17968 13.9416,-13.27985 30.206,-23.76283 48.7949,-31.45118 18.8336,-7.68834 38.8907,-11.5332 60.1699,-11.5332 z m 808.252,0 h 48.7949 c 21.2794,0 41.2139,3.84486 59.8028,11.5332 18.8334,7.68835 35.2222,18.17133 49.164,31.45118 30.3292,29.35545 45.4922,64.07004 45.4922,104.14257 v 121.61719 c 0,20.26925 -4.034,39.25642 -12.1055,56.96289 -8.0715,17.70645 -19.2005,33.31531 -33.3867,46.82813 -13.9418,13.51283 -30.3306,24.11439 -49.164,31.80273 -18.5889,7.68833 -38.5234,11.5332 -59.8028,11.5332 h -48.7949 c -21.2794,0 -41.3364,-3.84487 -60.1699,-11.5332 -18.5889,-7.68834 -34.8552,-18.2899 -48.7969,-31.80273 -14.1862,-13.51282 -25.3152,-29.12168 -33.3867,-46.82813 -8.0715,-17.70647 -12.1074,-37.62669 -12.1074,-59.75976 l 18.7129,-27.25782 265.2578,-112.52929 c -2.446,-11.88197 -9.7822,-23.64788 -22.0118,-35.29688 -16.3875,-15.37666 -35.9563,-23.0664 -58.7031,-23.0664 h -48.7949 c -22.747,0 -42.3155,7.68974 -58.7031,23.0664 -16.3876,15.60966 -24.5801,37.27541 -24.5801,65 h -71.1777 c 0,-26.09372 4.0359,-47.99274 12.1074,-65.69922 8.0715,-17.93944 19.2005,-33.66687 33.3867,-47.17968 13.9417,-13.27985 30.208,-23.76283 48.7969,-31.45118 18.8335,-7.68834 38.8905,-11.5332 60.1699,-11.5332 z m 610.5,0 h 48.7949 c 28.3726,0 54.178,6.64008 77.4141,19.91992 23.4807,13.27986 42.191,31.10269 56.1328,53.46875 13.9416,22.13309 20.9121,46.71263 20.9121,73.73828 v 121.61719 c 0,27.02565 -6.9705,51.71988 -20.9121,74.08594 -13.9418,22.13308 -32.6521,39.84125 -56.1328,53.12109 -23.2361,13.27986 -49.0415,19.91992 -77.4141,19.91992 h -48.7949 c -28.3725,0 -54.3005,-6.64006 -77.7812,-19.91992 -23.2362,-13.27984 -41.8239,-30.98801 -55.7657,-53.12109 -13.9416,-22.36606 -20.914,-47.06029 -20.914,-74.08594 V 450.02737 c 0,-27.02565 6.9724,-51.60519 20.914,-73.73828 13.9418,-22.36606 32.5295,-40.18889 55.7657,-53.46875 23.4807,-13.27984 49.4087,-19.91992 77.7812,-19.91992 z m 412.7461,0 h 48.7969 c 28.3724,0 54.1759,6.64008 77.4121,19.91992 23.4808,13.27986 42.1931,31.10269 56.1347,53.46875 13.9417,22.13309 20.9122,46.71263 20.9122,73.73828 v 112.87891 c 0.2447,33.78208 0.3671,71.64177 0.3671,113.57812 0,27.02566 -6.9704,51.6052 -20.9121,73.73829 -13.9417,22.36606 -32.654,40.1889 -56.1347,53.46875 -23.4807,13.27985 -49.2842,19.91992 -77.4121,19.91992 h -84.3848 v -67.79688 h 84.3848 c 22.7469,0 42.0684,-7.45453 57.9668,-22.36523 16.1428,-14.67773 24.3374,-26.79353 24.582,-36.3457 -18.0997,14.44473 -45.7383,21.66796 -82.916,21.66796 h -48.7969 c -28.3725,0 -54.2986,-6.64006 -77.7793,-19.91992 -23.2361,-13.27984 -41.8259,-30.98801 -55.7676,-53.12109 -13.9418,-22.36606 -20.9121,-47.06029 -20.9121,-74.08594 V 450.02737 c 0,-27.02565 6.9703,-51.60519 20.9121,-73.73828 13.9417,-22.36606 32.5315,-40.18889 55.7676,-53.46875 23.4807,-13.27984 49.4068,-19.91992 77.7793,-19.91992 z m 413.1152,0 h 48.7969 c 28.3726,0 54.1759,6.64008 77.4121,19.91992 23.4807,13.27986 42.1931,31.10269 56.1348,53.46875 13.9417,22.13309 20.9121,49.62446 20.9121,82.47461 h -71.1758 c 0,-27.72459 -8.1945,-49.27371 -24.582,-64.65039 -16.143,-15.60964 -35.7095,-23.41601 -58.7012,-23.41601 h -48.7969 c -20.3009,0 -38.0345,6.1755 -53.1992,18.52343 -15.1646,12.11494 -24.3359,25.50977 -27.5156,40.1875 l 265.2598,112.53125 18.7109,27.25782 c 0,21.90009 -4.0359,41.82032 -12.1074,59.75976 -8.0715,17.70647 -19.2006,33.19868 -33.3868,46.47852 -13.9416,13.51283 -30.3286,24.11439 -49.1621,31.80273 -18.5889,7.68833 -38.5233,11.5332 -59.8027,11.5332 h -48.7969 c -28.3724,0 -54.2985,-6.64006 -77.7793,-19.91992 -23.236,-13.27984 -41.826,-30.98801 -55.7675,-53.12109 -13.9418,-22.36606 -20.9122,-49.97406 -20.9122,-82.82422 h 71.1758 c 0,27.49161 8.1945,49.0427 24.5821,64.65234 16.3875,15.60966 35.9543,23.41407 58.7011,23.41407 h 48.7969 c 20.3011,0 38.0327,-6.05694 53.1973,-18.17188 15.1646,-12.34794 24.3379,-25.86134 27.5175,-40.53906 l -265.2597,-112.5293 -18.711,-27.25781 c 0,-21.9001 4.0361,-41.70368 12.1075,-59.41016 8.0716,-17.93944 19.2004,-33.55023 33.3867,-46.83008 13.9418,-13.51281 30.206,-24.11243 48.7949,-31.80078 18.8335,-7.68834 38.8907,-11.5332 60.1699,-11.5332 z m 538.9571,0 h 48.7949 c 28.3725,0 54.1779,6.64008 77.414,19.91992 23.4807,13.27986 42.1912,31.10269 56.1329,53.46875 13.9416,22.13309 20.914,46.71263 20.914,73.73828 v 268.74414 h -71.1758 V 450.02737 c 0,-21.9001 -8.1944,-40.53738 -24.582,-55.91406 -16.1431,-15.60964 -35.7116,-23.41601 -58.7031,-23.41601 h -48.7949 c -22.7469,0 -42.3136,7.80637 -58.7012,23.41601 -16.3876,15.37668 -24.582,34.01396 -24.582,55.91406 v 268.74414 h -71.1758 V 450.02737 c 0,-27.02565 6.9705,-51.60519 20.9121,-73.73828 13.9417,-22.36606 32.5314,-40.18889 55.7676,-53.46875 23.4807,-13.27984 49.4067,-19.91992 77.7793,-19.91992 z m 412.748,0 h 48.7949 c 21.2794,0 41.2139,3.84486 59.8028,11.5332 18.8334,7.68835 35.2223,18.17133 49.164,31.45118 14.1863,13.51281 25.3153,29.24024 33.3867,47.17968 8.0715,17.70648 12.1075,37.51006 12.1075,59.41016 l -18.7129,27.25781 -265.2578,112.5293 c 2.4459,12.11495 9.7822,23.88086 22.0117,35.29687 16.3876,15.60966 35.9561,23.41407 58.7031,23.41407 h 48.7949 c 22.7469,0 42.3156,-7.80441 58.7032,-23.41407 16.3876,-15.60964 24.58,-37.16073 24.58,-64.65234 h 71.1778 c 0,26.09374 -4.036,47.9947 -12.1075,65.70117 -8.0714,17.70645 -19.2004,33.31531 -33.3867,46.82813 -13.9417,13.51283 -30.3306,24.11439 -49.164,31.80273 -18.5889,7.68833 -38.5234,11.5332 -59.8028,11.5332 h -48.7949 c -21.2794,0 -41.3364,-3.84487 -60.1699,-11.5332 -18.5889,-7.68834 -34.8532,-18.2899 -48.7949,-31.80273 -30.3293,-29.12246 -45.4942,-63.71849 -45.4942,-103.79102 V 450.02737 c 0,-20.26925 4.036,-39.25641 12.1074,-56.96289 8.0716,-17.93944 19.2005,-33.66687 33.3868,-47.17968 13.9417,-13.27985 30.206,-23.76283 48.7949,-31.45118 18.8335,-7.68834 38.8905,-11.5332 60.1699,-11.5332 z M 2960.0293,370.6973 c -22.747,0 -42.3155,7.80637 -58.7031,23.41601 -16.3876,15.37668 -24.5801,34.01396 -24.5801,55.91406 v 121.61719 c 0,21.66713 8.1925,40.30442 24.5801,55.91406 16.3876,15.60966 35.9561,23.41407 58.7031,23.41407 h 48.7949 c 22.9916,0 42.5602,-7.80441 58.7031,-23.41407 16.3876,-15.60964 24.5801,-34.24693 24.5801,-55.91406 V 450.02737 c 0,-21.9001 -8.1925,-40.53738 -24.5801,-55.91406 -16.1429,-15.60964 -35.7115,-23.41601 -58.7031,-23.41601 z m 412.7461,0 c -22.747,0 -42.3137,7.80637 -58.7012,23.41601 -16.3876,15.37668 -24.582,34.01396 -24.582,55.91406 v 121.61719 c 0,21.66713 8.1944,40.30442 24.582,55.91406 16.3875,15.60966 35.9542,23.41407 58.7012,23.41407 h 48.7969 c 22.9915,0 42.5582,-7.80441 58.7011,-23.41407 16.3876,-15.60964 24.5821,-34.24693 24.5821,-55.91406 V 450.02737 c 0,-21.9001 -8.1945,-40.53738 -24.5821,-55.91406 -16.1429,-15.60964 -35.7096,-23.41601 -58.7011,-23.41601 z m 1364.8203,0 c -22.747,0 -42.3155,7.68974 -58.7031,23.0664 -16.3876,15.60966 -24.5801,34.36357 -24.5801,56.26367 v 69.54493 l 212.7949,-90.51172 c -2.4459,-11.88197 -9.7841,-23.64788 -22.0136,-35.29688 -16.3876,-15.37666 -35.9563,-23.0664 -58.7032,-23.0664 z m -3064.2402,131.40234 -212.793,90.16211 c 2.4459,12.11495 9.7822,23.88086 22.0117,35.29687 16.3876,15.60966 35.9563,23.41407 58.7031,23.41407 h 48.795 c 22.7469,0 42.3154,-7.80441 58.7031,-23.41407 16.3876,-15.60964 24.5801,-34.24693 24.5801,-55.91406 z m 808.2519,0 -212.7929,90.16211 c 2.4459,12.11495 9.7822,23.88086 22.0117,35.29687 16.3876,15.60966 35.9561,23.41407 58.7031,23.41407 h 48.7949 c 22.7468,0 42.3156,-7.80441 58.7031,-23.41407 16.3876,-15.60964 24.5801,-34.24693 24.5801,-55.91406 z M 189.45704,502.6055 c -0.42342,0.24663 -0.84068,0.49239 -1.26368,0.73828 -0.10496,0.0684 -0.20953,0.152 -0.31445,0.2207 0.5246,-0.32316 1.05311,-0.63713 1.57813,-0.95898 z M 4044.1797,650.97269 h 71.1758 v 67.79882 h -71.1758 z" />
    <path
       style="display:inline;fill:#fe9903;fill-opacity:1;stroke:none"
       d="m 675.99167,367.73424 c 0,17.595 -1.899,35.639 -9.184,52 -4.392,9.863 -8.242,19.92 -12.074,30 -1.442,3.792 -4.542,6.76 -4.639,11 -0.118,5.154 3.603,7.538 6.754,10.959 43.0919,41.16273 142.733,156.22318 148.6324,160.00687 3.4165,1.55561 1.9731,0.79082 2.5106,1.03413 v -245 c -13.564,-0.582 -26.776,-5.76 -40,-8.487 -29.343,-6.051 -62.03,-11.513 -92,-11.513 z"
       id="path36-5"
       sodipodi:nodetypes="cccsccccsc"
       transform="translate(4.9775995e-6,2.9650326e-5)" />
    <path
       style="display:inline;fill:#ffb605;fill-opacity:1;stroke:none"
       d="m 169.54317,160.09304 c 68.0988,69.68368 144.957,145.08507 208.1625,210.1362 8.495,8.679 17.3286,17.34012 25.1446,26.51412 3.297,3.871 12.5885,14.31022 16.2604,17.64488 2.968,-1.66208 5.229,-2.742 7.047,-4.45 23.2559,-20.29361 49.7602,-42.95053 70.834,-60.834 6.049,-4.671 17.52,-13.94659 20.378,-20.616 0.441,-3.435 -3.909,-8.269 -6.093,-10.637 -38.7878,-41.50116 -80.9421,-85.11173 -117.763,-121.862 -1.977,-1.945 -5.719,-4.849 -3.071,-7.722 4.638,-5.03 20.6603,-9.23337 27.2953,-10.09837 10.1255,-1.66142 18.2543,-3.35402 27.0103,-4.38202 13.462,-1.581 26.4902,-0.91598 39.6412,0.023 10.277,0.734 21.5492,2.45337 31.5482,5.22337 17.114,4.739 25.2968,6.2839 41.5078,13.9929 6.935,3.298 24.6362,12.3621 30.9162,16.5691 17.452,11.69 33.532,27.19142 46.921,43.20642 6.829,8.168 14.419,17.56358 19.719,26.93258 15.348,27.129 20.99,57.198 20.99,88 29.592,0 62.028,5.539 91,11.513 13.524,2.789 27.097,8.2 41,8.487 V 158.73424 c 0,-4.257 1.779,-13.788 -1.028,-17.258 -2.067,-2.555 -6.6505,-1.9204 -9.972,-1.742 h -29 -118 -356 -100 c -10.4238,0 -31.051,-0.99192 -39.9501,0.4236 -4.9844,1.95208 -1.8803,4.65135 3.4996,9.35665 4.3512,3.80558 10.1735,9.28825 12.002,10.57855 z"
       id="path34-0"
       sodipodi:nodetypes="ccccccccccccccscccccccsccccscsc"
       transform="translate(4.9775995e-6,2.9650326e-5)" />
    <rect
       style="display:inline;fill:#ffb605;fill-opacity:1;stroke-width:0.628387"
       id="rect2"
       width="5473.9951"
       height="377.51694"
       x="2.0296531"
       y="860.57623" />
    <text
       xml:space="preserve"
       style="font-size:733.333px;line-height:8.5;font-family:'Electro Static Rain';-inkscape-font-specification:'Electro Static Rain';display:inline;fill:#000000;fill-opacity:1"
       x="1169.0847"
       y="1156.9069"
       id="text1"><tspan
         sodipodi:role="line"
         id="tspan1"
         x="1169.0847"
         y="1156.9069" /></text>
    <text
       xml:space="preserve"
       style="font-size:333.333px;line-height:8.5;font-family:'Electro Static Rain';-inkscape-font-specification:'Electro Static Rain';display:inline;fill:#ffffff;fill-opacity:1"
       x="1217.7966"
       y="1146.9067"
       id="text2"><tspan
         sodipodi:role="line"
         id="tspan2"
         x="1217.7966"
         y="1146.9067"
         style="font-style:normal;font-variant:normal;font-weight:normal;font-stretch:normal;font-size:333.333px;font-family:Arial;-inkscape-font-specification:Arial;fill:#ffffff;fill-opacity:1">Making.Work.Easier.</tspan></text>
  </g>
</svg>
