<?xml version="1.0" encoding="UTF-8" standalone="no"?>
<svg
   width="5474.1016"
   height="958"
   version="1.1"
   id="svg230"
   sodipodi:docname="logo3.svg"
   inkscape:version="1.3-dev (f3df6cc7, 2022-08-24)"
   inkscape:export-filename="AnyConv.com__LOGO2.png"
   inkscape:export-xdpi="51.306889"
   inkscape:export-ydpi="51.306889"
   xmlns:inkscape="http://www.inkscape.org/namespaces/inkscape"
   xmlns:sodipodi="http://sodipodi.sourceforge.net/DTD/sodipodi-0.dtd"
   xmlns="http://www.w3.org/2000/svg"
   xmlns:svg="http://www.w3.org/2000/svg">
  <defs
     id="defs230">
    <clipPath
       clipPathUnits="userSpaceOnUse"
       id="clipPath16">
      <g
         inkscape:label="Clip"
         id="use16" />
    </clipPath>
  </defs>
  <sodipodi:namedview
     id="namedview230"
     pagecolor="#ffffff"
     bordercolor="#000000"
     borderopacity="0.25"
     inkscape:showpageshadow="2"
     inkscape:pageopacity="0.0"
     inkscape:pagecheckerboard="0"
     inkscape:deskcolor="#d1d1d1"
     showgrid="false"
     inkscape:zoom="0.24634656"
     inkscape:cx="2571.5805"
     inkscape:cy="-71.038134"
     inkscape:window-width="1920"
     inkscape:window-height="1177"
     inkscape:window-x="-8"
     inkscape:window-y="-8"
     inkscape:window-maximized="1"
     inkscape:current-layer="g17" />
  <g
     id="g17"
     style="display:inline;fill:#21159f;fill-opacity:0.43944636"
     transform="translate(-4.9775995e-6,-2.9650326e-5)">
    <rect
       style="font-size:733.333px;font-family:'Electro Static Rain';-inkscape-font-specification:'Electro Static Rain';display:inline;fill:#666666;fill-opacity:1;stroke-width:1.13637"
       id="rect68"
       width="5338.4507"
       height="765.88885"
       x="72.624763"
       y="70.331345" />
    <path
       id="path70"
       style="display:inline;fill:#333333;fill-opacity:1;stroke-width:1.06652"
       d="m 5447.0995,669.97165 c 0,58.30602 72.169,192.81498 -100.1812,244.89698 -144.9399,43.799 -270.666,-4.86795 -601.5944,-16.12225 -559.1858,-19.017 -1234.9199,-7.75585 -2016.8445,-7.75585 -781.9246,0 -987.9613,14.76716 -1606.1645,-3.72564 -173.30775,-5.1843 -820.70463,40.10224 -945.71063,24.87716 C 40.965352,895.62194 27.714938,836.95591 16.233442,762.87858 -0.20711313,656.80596 65.014023,522.83792 617.91821,446.93768 1170.8223,371.03744 1920.7214,328.39713 2702.646,328.39713 c 781.9246,0 1531.8234,42.64031 2084.7277,118.54056 552.9041,75.90023 659.7258,115.69482 659.7258,223.03396 z"
       sodipodi:nodetypes="sssssssssss" />
    <path
       id="path52"
       style="font-size:733.333px;font-family:'Electro Static Rain';-inkscape-font-specification:'Electro Static Rain';display:inline;fill:#ffffff;fill-opacity:1;stroke-width:1.05717"
       d="M 4.94316e-6,2.964316e-5 V 958.00003 H 5474.1015 V 2.964316e-5 Z M 173.45314,139.68167 c 7.57214,0.071 15.33502,0.31836 20.54687,0.31836 h 100 356 H 768 797.00001 c 3.32148,-0.1784 7.90566,-0.81282 9.97265,1.74219 2.80701,3.47 1.02735,13.00081 1.02735,17.25781 v 229.00001 244.99999 c -0.53749,-0.24331 0.90669,0.52241 -2.50977,-1.03321 -5.89944,-3.78365 -105.54104,-118.84519 -148.63281,-160.00781 -3.151,-3.42097 -6.8719,-5.80498 -6.75391,-10.95898 0.097,-4.24 3.19668,-7.208 4.63867,-11 3.832,-10.07997 7.68222,-20.13703 12.07423,-30 7.28496,-16.36094 9.18358,-34.40505 9.18358,-52 0,-30.80191 -5.64226,-60.87109 -20.99023,-88 -5.29996,-9.36897 -12.88975,-18.76368 -19.71875,-26.93164 -13.38894,-16.01494 -29.46991,-31.51705 -46.92187,-43.20703 -6.27998,-4.20699 -23.98103,-13.27232 -30.91602,-16.57031 -16.21094,-7.70898 -24.39386,-9.25319 -41.50781,-13.99219 -9.99896,-2.77001 -21.26991,-4.48865 -31.54687,-5.22265 -13.15097,-0.93901 -26.18062,-1.60446 -39.64259,-0.0234 -8.75597,1.02801 -16.88425,2.72139 -27.00976,4.38282 -6.63497,0.865 -22.65692,5.06768 -27.29492,10.09765 -2.64797,2.873 1.09334,5.77766 3.07031,7.72266 36.82079,36.75015 78.97601,80.36028 117.76368,121.86133 2.18396,2.368 6.53475,7.20173 6.09374,10.63672 -2.85798,6.66938 -14.32993,15.94426 -20.3789,20.61523 -21.07377,17.88341 -47.57811,40.54043 -70.83399,60.83399 -1.81799,1.70799 -4.07887,2.78909 -7.04687,4.45117 -3.67189,-3.33466 -12.96277,-13.77353 -16.25977,-17.64453 -7.81597,-9.17397 -16.64956,-17.83666 -25.14453,-26.51563 C 314.50956,305.44329 237.64943,230.0429 169.55079,160.35946 c -1.82854,-1.29031 -7.65078,-6.7745 -12.00196,-10.58009 -5.37985,-4.70526 -8.48245,-7.40338 -3.49805,-9.35546 4.44953,-0.70776 11.83018,-0.81323 19.40236,-0.74219 z M 149,171.00003 h 2.00001 c 29.33803,37.46001 65.27731,65.54508 104.58789,102.41992 2.50399,2.532 13.21788,13.65678 14.42188,17.09375 1.81497,5.18 -6.29428,18.30333 -8.19727,23.48634 -5.81898,15.84793 -7.57966,33.29703 -8.72266,50 -1.491,21.7679 4.3586,46.79405 12.14258,66.99999 3.29,8.54297 9.17058,16.23204 11.76758,25 -0.56036,-0.0772 -1.14217,0.0168 -1.71094,0.004 3.93166,1.63163 6.72459,7.69656 8.85938,10.99609 5.38196,8.31797 12.08556,16.39987 19.06054,23.42383 21.12493,21.27395 46.28411,38.16327 73.79101,50.07422 31.31891,13.56096 65.29313,16.31233 99,15.48632 10.11097,-0.247 20.03303,-1.93611 30.00001,-3.41211 4.07099,-0.604 10.06203,-3.13807 13.99999,-1.45507 7.33,3.133 11.42208,13.09176 16.41407,18.84375 57.88284,66.78245 115.65244,136.68319 178.05273,210 5.45601,6.93997 12.15224,12.17909 16.5332,20.03906 H 149 V 550.00003 c 0,-5.61597 -0.12787,-14.38675 0.0137,-20.95899 0.0176,-0.0294 0.0485,-0.0566 0.0664,-0.0859 -0.0274,0.013 -0.0527,0.0319 -0.0801,0.0449 z m 825.07031,27.06055 h 71.17589 v 242.88086 c 18.3443,-14.67774 46.1053,-22.01563 83.2832,-22.01563 h 48.7968 c 22.747,0 42.3136,-7.68972 58.7012,-23.06641 16.3875,-15.60966 24.5821,-34.36354 24.5821,-56.26366 V 305.6973 h 71.1757 v 33.89844 c 0,24.69589 -5.871,47.52789 -17.6113,68.49609 -11.7405,20.9682 -24.3366,35.87918 -37.7891,44.73242 13.4525,9.08622 26.0486,24.11383 37.7891,45.08203 11.7403,20.96821 17.6113,43.68358 17.6113,68.14649 v 149.92187 h -71.1757 V 566.05277 c 0,-21.66714 -8.1946,-40.30636 -24.5821,-55.91602 -16.143,-15.60966 -35.7096,-23.41406 -58.7012,-23.41406 h -48.7968 c -22.747,0 -42.3136,7.8044 -58.7013,23.41406 -16.3876,15.60966 -24.5819,34.24888 -24.5819,55.91602 v 149.92187 h -71.17589 z m 825.49419,0 h 71.1777 v 126.50781 c 18.3444,-14.44477 46.1054,-21.66796 83.2832,-21.66796 h 35.5879 v 67.79687 h -35.5879 c -22.7469,0 -42.3155,7.80635 -58.7031,23.41601 -16.3876,15.37669 -24.5801,34.01394 -24.5801,55.91407 v 121.61718 c 0,21.66715 8.1925,40.3044 24.5801,55.91406 16.3876,15.60967 35.9562,23.41407 58.7031,23.41407 h 48.795 c 22.9915,0 42.56,-7.8044 58.703,-23.41407 16.3876,-15.60966 24.5802,-37.1607 24.5802,-64.65234 h 71.1757 c 0,32.85019 -6.9705,60.45814 -20.9121,82.82422 -13.9416,22.1331 -32.652,39.84123 -56.1328,53.12109 -23.2362,13.27987 -49.0414,19.91992 -77.414,19.91992 h -48.795 c -28.3725,0 -54.3005,-6.64005 -77.7812,-19.91992 -23.2361,-13.27986 -41.824,-30.98799 -55.7656,-53.12109 -13.9418,-22.36608 -20.9141,-47.06026 -20.9141,-74.08594 z m 808.2519,0 h 71.1778 v 373.58398 c 0,21.66715 8.1925,40.3044 24.5801,55.91406 16.3876,15.60967 35.9561,23.41407 58.7031,23.41407 h 35.5878 v 67.79882 h -35.5878 c -28.3726,0 -54.3006,-6.64005 -77.7812,-19.91992 -23.2363,-13.27986 -41.824,-30.98799 -55.7657,-53.12109 -13.9417,-22.36608 -20.9141,-47.06026 -20.9141,-74.08594 z m 2388.0664,0 h 71.1778 v 126.50781 c 18.3443,-14.44477 46.1054,-21.66796 83.2832,-21.66796 h 35.5878 v 67.79687 h -35.5878 c -22.7469,0 -42.3155,7.80635 -58.7031,23.41601 -16.3877,15.37669 -24.5801,34.01394 -24.5801,55.91407 v 121.61718 c 0,21.66715 8.1924,40.3044 24.5801,55.91406 16.3876,15.60967 35.9562,23.41407 58.7031,23.41407 h 48.7949 c 22.9916,0 42.5601,-7.8044 58.7031,-23.41407 16.3876,-15.60966 24.5801,-37.1607 24.5801,-64.65234 h 71.1758 c 0,32.85019 -6.9704,60.45814 -20.9121,82.82422 -13.9417,22.1331 -32.6521,39.84123 -56.1329,53.12109 -23.2361,13.27987 -49.0414,19.91992 -77.414,19.91992 h -48.7949 c -28.3725,0 -54.3005,-6.64005 -77.7812,-19.91992 -23.2362,-13.27986 -41.824,-30.98799 -55.7657,-53.12109 -13.9417,-22.36608 -20.9141,-47.06026 -20.9141,-74.08594 z M 1541.2773,302.90043 h 48.795 c 21.2794,0 41.2138,3.84484 59.8027,11.53319 18.8335,7.68835 35.2224,18.17132 49.1641,31.45118 30.3292,29.35548 45.4942,64.07001 45.4942,104.14258 v 121.61718 c 0,20.26927 -4.036,39.25641 -12.1075,56.9629 -8.0715,17.70647 -19.2005,33.31528 -33.3867,46.82811 -13.9417,13.51285 -30.3306,24.1144 -49.1641,31.80275 -18.5889,7.68834 -38.5233,11.53319 -59.8027,11.53319 h -48.795 c -21.2793,0 -41.3363,-3.84485 -60.1699,-11.53319 -18.5889,-7.68835 -34.8532,-18.2899 -48.7948,-31.80275 -14.1864,-13.51283 -25.3153,-29.12164 -33.3868,-46.82811 -8.0715,-17.70649 -12.1074,-37.62667 -12.1074,-59.75977 l 18.7109,-27.25781 265.2579,-112.52931 c -2.446,-11.88198 -9.7822,-23.64786 -22.0117,-35.29687 -16.3877,-15.37668 -35.9562,-23.0664 -58.7032,-23.0664 h -48.795 c -22.7469,0 -42.3155,7.68972 -58.7031,23.0664 -16.3875,15.60967 -24.5801,37.27538 -24.5801,65 h -71.1757 c 0,-26.09375 4.0359,-47.99273 12.1074,-65.69922 8.0715,-17.93946 19.2004,-33.66685 33.3868,-47.17968 13.9416,-13.27986 30.2059,-23.76283 48.7948,-31.45118 18.8336,-7.68835 38.8906,-11.53319 60.1699,-11.53319 z m 808.252,0 h 48.795 c 21.2794,0 41.2138,3.84484 59.8027,11.53319 18.8335,7.68835 35.2223,18.17132 49.1641,31.45118 30.3292,29.35548 45.4921,64.07001 45.4921,104.14258 v 121.61718 c 0,20.26927 -4.0339,39.25641 -12.1054,56.9629 -8.0715,17.70647 -19.2005,33.31528 -33.3867,46.82811 -13.9418,13.51285 -30.3306,24.1144 -49.1641,31.80275 -18.5889,7.68834 -38.5233,11.53319 -59.8027,11.53319 h -48.795 c -21.2794,0 -41.3364,-3.84485 -60.1699,-11.53319 -18.5889,-7.68835 -34.8552,-18.2899 -48.7969,-31.80275 -14.1862,-13.51283 -25.3152,-29.12164 -33.3867,-46.82811 -8.0715,-17.70649 -12.1074,-37.62667 -12.1074,-59.75977 l 18.7129,-27.25781 265.2578,-112.52931 c -2.446,-11.88198 -9.7822,-23.64786 -22.0118,-35.29687 -16.3876,-15.37668 -35.9562,-23.0664 -58.703,-23.0664 h -48.795 c -22.747,0 -42.3155,7.68972 -58.7031,23.0664 -16.3876,15.60967 -24.5801,37.27538 -24.5801,65 h -71.1777 c 0,-26.09375 4.0359,-47.99273 12.1074,-65.69922 8.0715,-17.93946 19.2005,-33.66685 33.3867,-47.17968 13.9417,-13.27986 30.208,-23.76283 48.7969,-31.45118 18.8335,-7.68835 38.8905,-11.53319 60.1699,-11.53319 z m 610.5,0 h 48.7949 c 28.3726,0 54.178,6.64005 77.4141,19.91991 23.4807,13.27987 42.1911,31.10267 56.1329,53.46875 13.9416,22.13311 20.9121,46.71261 20.9121,73.73829 v 121.61718 c 0,27.02568 -6.9705,51.71986 -20.9121,74.08594 -13.9418,22.1331 -32.6522,39.84123 -56.1329,53.12109 -23.2361,13.27987 -49.0415,19.91992 -77.4141,19.91992 h -48.7949 c -28.3725,0 -54.3004,-6.64005 -77.7812,-19.91992 -23.2362,-13.27986 -41.8239,-30.98799 -55.7657,-53.12109 -13.9416,-22.36608 -20.914,-47.06026 -20.914,-74.08594 V 450.02738 c 0,-27.02568 6.9724,-51.60518 20.914,-73.73829 13.9418,-22.36608 32.5295,-40.18888 55.7657,-53.46875 23.4808,-13.27986 49.4087,-19.91991 77.7812,-19.91991 z m 412.7461,0 h 48.7969 c 28.3725,0 54.1759,6.64005 77.4121,19.91991 23.4808,13.27987 42.193,31.10267 56.1347,53.46875 13.9417,22.13311 20.9121,46.71261 20.9121,73.73829 v 112.8789 c 0.2447,33.78211 0.3673,71.64173 0.3673,113.57813 0,27.02568 -6.9704,51.60517 -20.9121,73.73828 -13.9417,22.36609 -32.654,40.18888 -56.1348,53.46874 -23.4807,13.27987 -49.2841,19.91993 -77.4121,19.91993 h -84.3848 v -67.79687 h 84.3848 c 22.747,0 42.0684,-7.45452 57.9668,-22.36524 16.1429,-14.67774 24.3374,-26.79352 24.582,-36.3457 -18.0997,14.44475 -45.7382,21.66796 -82.916,21.66796 h -48.7969 c -28.3725,0 -54.2986,-6.64005 -77.7793,-19.91992 -23.2361,-13.27986 -41.8258,-30.98799 -55.7675,-53.12109 -13.9418,-22.36608 -20.9121,-47.06026 -20.9121,-74.08594 V 450.02738 c 0,-27.02568 6.9703,-51.60518 20.9121,-73.73829 13.9417,-22.36608 32.5314,-40.18888 55.7675,-53.46875 23.4807,-13.27986 49.4068,-19.91991 77.7793,-19.91991 z m 413.1152,0 h 48.7969 c 28.3726,0 54.176,6.64005 77.4122,19.91991 23.4807,13.27987 42.193,31.10267 56.1347,53.46875 13.9417,22.13311 20.9121,49.62443 20.9121,82.47461 h -71.1758 c 0,-27.72462 -8.1945,-49.2737 -24.582,-64.65039 -16.143,-15.60966 -35.7095,-23.41601 -58.7012,-23.41601 h -48.7969 c -20.301,0 -38.0345,6.17549 -53.1992,18.52344 -15.1646,12.11495 -24.3359,25.50975 -27.5156,40.1875 l 265.2598,112.53124 18.7109,27.25782 c 0,21.90012 -4.0359,41.8203 -12.1074,59.75976 -8.0715,17.70649 -19.2005,33.19866 -33.3867,46.47851 -13.9417,13.51285 -30.3286,24.1144 -49.1621,31.80275 -18.589,7.68834 -38.5234,11.53319 -59.8028,11.53319 h -48.7969 c -28.3725,0 -54.2985,-6.64005 -77.7793,-19.91992 -23.2361,-13.27986 -41.8259,-30.98799 -55.7675,-53.12109 -13.9418,-22.36608 -20.9121,-49.97403 -20.9121,-82.82422 h 71.1757 c 0,27.49164 8.1945,49.04268 24.5821,64.65234 16.3876,15.60967 35.9542,23.41407 58.7011,23.41407 h 48.7969 c 20.3011,0 38.0327,-6.05692 53.1973,-18.17187 15.1646,-12.34795 24.3379,-25.86133 27.5176,-40.53907 l -265.2598,-112.52929 -18.7109,-27.25782 c 0,-21.90012 4.0359,-41.70367 12.1073,-59.41016 8.0716,-17.93946 19.2005,-33.55022 33.3868,-46.83008 13.9418,-13.51283 30.206,-24.11243 48.7949,-31.80078 18.8335,-7.68835 38.8906,-11.53319 60.1699,-11.53319 z m 538.9571,0 h 48.7949 c 28.3725,0 54.1779,6.64005 77.4141,19.91991 23.4807,13.27987 42.1911,31.10267 56.1328,53.46875 13.9417,22.13311 20.9141,46.71261 20.9141,73.73829 v 268.74413 h -71.1759 V 450.02738 c 0,-21.90013 -8.1943,-40.53738 -24.5819,-55.91407 -16.1431,-15.60966 -35.7117,-23.41601 -58.7032,-23.41601 h -48.7949 c -22.7469,0 -42.3136,7.80635 -58.7012,23.41601 -16.3876,15.37669 -24.5821,34.01394 -24.5821,55.91407 v 268.74413 h -71.1757 V 450.02738 c 0,-27.02568 6.9705,-51.60518 20.9121,-73.73829 13.9417,-22.36608 32.5314,-40.18888 55.7676,-53.46875 23.4808,-13.27986 49.4067,-19.91991 77.7793,-19.91991 z m 412.748,0 h 48.795 c 21.2794,0 41.2138,3.84484 59.8027,11.53319 18.8335,7.68835 35.2224,18.17132 49.1641,31.45118 14.1863,13.51283 25.3152,29.24022 33.3867,47.17968 8.0715,17.70649 12.1074,37.51004 12.1074,59.41016 l -18.7129,27.25782 -265.2578,112.52929 c 2.4459,12.11496 9.7822,23.88085 22.0117,35.29687 16.3876,15.60967 35.9561,23.41407 58.7031,23.41407 h 48.795 c 22.7469,0 42.3154,-7.8044 58.703,-23.41407 16.3877,-15.60966 24.5802,-37.1607 24.5802,-64.65234 h 71.1777 c 0,26.09377 -4.0359,47.99469 -12.1074,65.70118 -8.0715,17.70647 -19.2004,33.31528 -33.3867,46.82811 -13.9417,13.51285 -30.3306,24.1144 -49.1641,31.80275 -18.5889,7.68834 -38.5233,11.53319 -59.8027,11.53319 h -48.795 c -21.2794,0 -41.3364,-3.84485 -60.1699,-11.53319 -18.5889,-7.68835 -34.8532,-18.2899 -48.7949,-31.80275 -30.3293,-29.12249 -45.4941,-63.71844 -45.4941,-103.79101 V 450.02738 c 0,-20.26927 4.0358,-39.25641 12.1073,-56.9629 8.0716,-17.93946 19.2005,-33.66685 33.3868,-47.17968 13.9417,-13.27986 30.206,-23.76283 48.7949,-31.45118 18.8335,-7.68835 38.8905,-11.53319 60.1699,-11.53319 z M 2960.0293,370.6973 c -22.747,0 -42.3155,7.80635 -58.7031,23.41601 -16.3876,15.37669 -24.5801,34.01394 -24.5801,55.91407 v 121.61718 c 0,21.66715 8.1925,40.3044 24.5801,55.91406 16.3876,15.60967 35.9561,23.41407 58.7031,23.41407 h 48.7949 c 22.9916,0 42.5602,-7.8044 58.7032,-23.41407 16.3876,-15.60966 24.58,-34.24691 24.58,-55.91406 V 450.02738 c 0,-21.90013 -8.1924,-40.53738 -24.58,-55.91407 -16.143,-15.60966 -35.7116,-23.41601 -58.7032,-23.41601 z m 412.7461,0 c -22.747,0 -42.3136,7.80635 -58.7011,23.41601 -16.3876,15.37669 -24.5821,34.01394 -24.5821,55.91407 v 121.61718 c 0,21.66715 8.1945,40.3044 24.5821,55.91406 16.3875,15.60967 35.9541,23.41407 58.7011,23.41407 h 48.7969 c 22.9916,0 42.5581,-7.8044 58.7011,-23.41407 16.3876,-15.60966 24.5821,-34.24691 24.5821,-55.91406 V 450.02738 c 0,-21.90013 -8.1945,-40.53738 -24.5821,-55.91407 -16.143,-15.60966 -35.7095,-23.41601 -58.7011,-23.41601 z m 1364.8203,0 c -22.747,0 -42.3155,7.68972 -58.7031,23.0664 -16.3876,15.60967 -24.5801,34.36355 -24.5801,56.26368 v 69.54492 l 212.7949,-90.51173 c -2.4459,-11.88198 -9.7841,-23.64786 -22.0137,-35.29687 -16.3876,-15.37668 -35.9561,-23.0664 -58.703,-23.0664 z m -3064.2402,131.40234 -212.793,90.16211 c 2.4459,12.11496 9.7822,23.88085 22.0117,35.29687 16.3876,15.60967 35.9562,23.41407 58.7031,23.41407 h 48.795 c 22.747,0 42.3155,-7.8044 58.7032,-23.41407 16.3876,-15.60966 24.58,-34.24691 24.58,-55.91406 z m 808.252,0 -212.793,90.16211 c 2.4459,12.11496 9.7822,23.88085 22.0117,35.29687 16.3876,15.60967 35.9561,23.41407 58.7031,23.41407 h 48.795 c 22.7468,0 42.3154,-7.8044 58.703,-23.41407 16.3876,-15.60966 24.5802,-34.24691 24.5802,-55.91406 z M 189.45704,502.6055 c -0.42342,0.24663 -0.84067,0.49239 -1.26367,0.73828 -0.10496,0.0684 -0.20954,0.152 -0.31446,0.2207 0.5246,-0.32316 1.05311,-0.63713 1.57813,-0.95898 z M 4044.1798,650.97269 h 71.1757 v 67.79882 h -71.1757 z" />
    <path
       style="display:inline;fill:#fe9903;stroke:none;fill-opacity:1"
       d="m 675.99167,367.73424 c 0,17.595 -1.899,35.639 -9.184,52 -4.392,9.863 -8.242,19.92 -12.074,30 -1.442,3.792 -4.542,6.76 -4.639,11 -0.118,5.154 3.603,7.538 6.754,10.959 43.0919,41.16273 142.733,156.22318 148.6324,160.00687 3.4165,1.55561 1.9731,0.79082 2.5106,1.03413 v -245 c -13.564,-0.582 -26.776,-5.76 -40,-8.487 -29.343,-6.051 -62.03,-11.513 -92,-11.513 z"
       id="path36-5"
       sodipodi:nodetypes="cccsccccsc"
       transform="translate(4.9775995e-6,2.9650326e-5)" />
    <path
       style="display:inline;fill:#ffb605;fill-opacity:1;stroke:none"
       d="m 169.54317,160.09304 c 68.0988,69.68368 144.957,145.08507 208.1625,210.1362 8.495,8.679 17.3286,17.34012 25.1446,26.51412 3.297,3.871 12.5885,14.31022 16.2604,17.64488 2.968,-1.66208 5.229,-2.742 7.047,-4.45 23.2559,-20.29361 49.7602,-42.95053 70.834,-60.834 6.049,-4.671 17.52,-13.94659 20.378,-20.616 0.441,-3.435 -3.909,-8.269 -6.093,-10.637 -38.7878,-41.50116 -80.9421,-85.11173 -117.763,-121.862 -1.977,-1.945 -5.719,-4.849 -3.071,-7.722 4.638,-5.03 20.6603,-9.23337 27.2953,-10.09837 10.1255,-1.66142 18.2543,-3.35402 27.0103,-4.38202 13.462,-1.581 26.4902,-0.91598 39.6412,0.023 10.277,0.734 21.5492,2.45337 31.5482,5.22337 17.114,4.739 25.2968,6.2839 41.5078,13.9929 6.935,3.298 24.6362,12.3621 30.9162,16.5691 17.452,11.69 33.532,27.19142 46.921,43.20642 6.829,8.168 14.419,17.56358 19.719,26.93258 15.348,27.129 20.99,57.198 20.99,88 29.592,0 62.028,5.539 91,11.513 13.524,2.789 27.097,8.2 41,8.487 V 158.73424 c 0,-4.257 1.779,-13.788 -1.028,-17.258 -2.067,-2.555 -6.6505,-1.9204 -9.972,-1.742 h -29 -118 -356 -100 c -10.4238,0 -31.051,-0.99192 -39.9501,0.4236 -4.9844,1.95208 -1.8803,4.65135 3.4996,9.35665 4.3512,3.80558 10.1735,9.28825 12.002,10.57855 z"
       id="path34-0"
       sodipodi:nodetypes="ccccccccccccccscccccccsccccscsc"
       transform="translate(4.9775995e-6,2.9650326e-5)" />
  </g>
</svg>
