<?xml version="1.0" encoding="UTF-8" standalone="no"?>
<svg
   width="1201"
   height="1201"
   version="1.1"
   id="svg112"
   sodipodi:docname="mail.svg"
   inkscape:version="1.3-dev (f3df6cc7, 2022-08-24)"
   xmlns:inkscape="http://www.inkscape.org/namespaces/inkscape"
   xmlns:sodipodi="http://sodipodi.sourceforge.net/DTD/sodipodi-0.dtd"
   xmlns="http://www.w3.org/2000/svg"
   xmlns:svg="http://www.w3.org/2000/svg">
  <defs
     id="defs112" />
  <sodipodi:namedview
     id="namedview112"
     pagecolor="#ffffff"
     bordercolor="#000000"
     borderopacity="0.25"
     inkscape:showpageshadow="2"
     inkscape:pageopacity="0.0"
     inkscape:pagecheckerboard="0"
     inkscape:deskcolor="#d1d1d1"
     showgrid="false"
     inkscape:zoom="0.55579417"
     inkscape:cx="407.52496"
     inkscape:cy="704.39745"
     inkscape:window-width="1920"
     inkscape:window-height="1177"
     inkscape:window-x="-8"
     inkscape:window-y="-8"
     inkscape:window-maximized="1"
     inkscape:current-layer="svg112" />
  <path
     style="display:inline;fill:#00abe9;stroke:none"
     d="M 565,0.424438 C 531.082,4.87744 497.53,6.93518 464,14.8843 362.554,38.9341 270.275,88.249 193,158.17 139.53,206.55 94.9689,266.577 62.7531,331 c -93.382,186.74 -82.2946,417.11 30.939,593 43.2839,67.234 99.1159,124.3 164.3079,170.42 48.072,34.02 102.744,61.07 159,78.55 86.132,26.77 176.654,34.5 266,22.75 192.746,-25.35 363.91,-149.62 452.74,-321.72 47.13,-91.303 69.71,-196.436 65.22,-299 C 1189.26,307.916 995.418,73.4973 734,14.3495 691.836,4.80957 649.177,0 606,0 592.563,0 578.327,-1.32532 565,0.424438 Z"
     id="path2" />
  <path
     style="display:inline;fill:#ffffff;stroke:none"
     d="M 581,83.4244 C 546.744,87.9218 512.993,89.1787 479,96.8882 394,116.166 312.629,160.818 249,220.089 189.089,275.897 141.691,345.941 113.695,423 47.6104,604.903 91.0099,816.833 225.039,957 c 41.331,43.22 90.423,79.98 143.961,106.75 97.036,48.52 204.357,61.58 311,47.96 173.654,-22.16 330.88,-149.429 397.14,-309.71 35.26,-85.292 46.51,-176.616 36.69,-268 C 1091.5,326.19 927.531,148.759 727,98.6266 693.115,90.1554 658.82,85.4856 624,83.9607 609.88,83.3423 595.127,81.5698 581,83.4244 Z"
     id="path7" />
  <path
     style="fill:#00abe9; stroke:none;"
     d="M290 376L290 377C369.995 436.298 446.238 501.588 524 563.8L588 615C594.261 620.009 604.985 632.59 613 633.826C618.93 634.74 628.725 623.144 633 619.586L689 572.753C741.668 528.864 794.359 485.002 847 441.08L897 399.414C905.875 392.027 916.747 384.989 924 376L290 376z"
     id="path31" />
  <path
     style="display:inline;fill:#00abe9;stroke:none"
     d="M 289,412 V 784 L 321.17,751 368.09,701 489,572 v -1 L 358,466 313,430 289,412 m 442,161 18.83,22 43.131,46 90.95,97 L 926,782 V 412 l -21,16.08 -38,31.673 z"
     id="path33" />
  <path
     style="fill:#00abe9; stroke:none;"
     d="M511 589L385.91 722L339.961 771L308 806L909 806C899.722 788.115 878.693 772.946 865.17 758C830.829 720.048 794.976 683.451 760.089 646C748.63 633.698 736.835 621.608 725.714 609C722.132 604.939 715.229 595.051 709.83 593.751C703.207 592.155 689.803 607.589 685 611.586L636 652.414C630.514 656.98 622.059 667.356 615 668.897C608.141 670.395 593.217 653.974 588 649.8C563.232 629.985 538.475 604.806 511 589z"
     id="path57" />
</svg>
