<?xml version="1.0" encoding="UTF-8" standalone="no"?>
<svg
   width="310"
   height="163"
   version="1.1"
   id="svg40"
   sodipodi:docname="skype.svg"
   inkscape:version="1.3-dev (f3df6cc7, 2022-08-24)"
   xmlns:inkscape="http://www.inkscape.org/namespaces/inkscape"
   xmlns:sodipodi="http://sodipodi.sourceforge.net/DTD/sodipodi-0.dtd"
   xmlns="http://www.w3.org/2000/svg"
   xmlns:svg="http://www.w3.org/2000/svg">
  <defs
     id="defs40" />
  <sodipodi:namedview
     id="namedview40"
     pagecolor="#ffffff"
     bordercolor="#000000"
     borderopacity="0.25"
     inkscape:showpageshadow="2"
     inkscape:pageopacity="0.0"
     inkscape:pagecheckerboard="0"
     inkscape:deskcolor="#d1d1d1"
     showgrid="false"
     inkscape:zoom="4.095146"
     inkscape:cx="74.356323"
     inkscape:cy="78.751771"
     inkscape:window-width="1920"
     inkscape:window-height="1177"
     inkscape:window-x="-8"
     inkscape:window-y="-8"
     inkscape:window-maximized="1"
     inkscape:current-layer="svg40" />
  <path
     style="fill:#00aff0; stroke:none;"
     d="M0 0L0 163L310 163L310 0L0 0z"
     id="path1" />
  <path
     style="fill:#ffffff;stroke:none"
     d="m 117,63 c -3.37305,3.53e-4 -5.34765,-1.106008 -11.24624,1.573536 -4.05498,-2.243542 -7.890291,-0.257817 -9.40966,1.29673 -1.780817,1.822049 -3.526547,6.007442 -0.625829,11.05093 -2.066714,7.54738 -0.452213,15.46735 6.634049,20.65616 4.92243,3.585074 10.78055,3.165594 15.28677,-0.03827 2.59802,-0.241349 5.48236,2.660394 11.05935,0.78974 3.73447,4.449814 7.14616,4.655554 8.34799,4.384774 3.3326,6.17852 13.96919,9.02271 18.95357,0.2864 2.41464,1.92743 5.87176,3.66323 8.90333,3.41226 3.61964,-0.29964 6.7796,-2.99068 8.8474,-5.52973 C 180.68128,101.18559 182.19524,98.710238 185,96 h 1 c 6.852,6.421 19.941,2.555 24.467,-5.0401 2.278,-3.8228 1.73464,-12.135439 1.73464,-12.135439 0,0 5.49535,-6.769669 3.67635,-11.233669 -1.41901,-3.4811 -7.512,-5.575917 -12.94128,-2.289582 -3.72952,-1.435055 -6.19825,-2.290807 -8.51943,-2.433799 C 192.18622,62.72997 189.50889,63.684194 186,64.814 c -3.48905,-2.105173 -4.89197,-3.370928 -10.96034,-0.726027 -2.65897,-4.383206 -7.54451,-7.027855 -11.76048,-7.499821 -7.079,-1.1137 -13.85518,5.743648 -13.85518,5.743648 0,0 -3.6165,-2.706286 -8.01671,-2.889717 C 138.59176,59.324712 135.25141,61.463953 133,62 131.308,51.072 117.81,52.2677 117,63 Z"
     id="path2"
     sodipodi:nodetypes="ccsccccccscccscccsccccscc" />
  <path
     style="fill:#00aeef;stroke:none"
     d="m 122,82 -14,-5 c 3.332,-5.9783 9.49,0.9275 11.824,-2.6427 1.544,-2.3609 -2.111,-4.4283 -3.843,-4.9237 -6.185,-1.7686 -18.8398,1.9364 -12.378,10.338 1.128,1.4655 2.69,2.2619 4.402,2.838 2.642,0.8892 5.358,1.4276 7.995,2.3904 -4.549,5.3058 -8.304,0.8273 -14,0 0.833,10.7908 13.603,8.8764 20,4 2.988,8.9911 7.188,-3.6582 10,-6 0.76,2.0045 8.043,14.5367 10.263,7.6775 C 144.633,83.356 132.849,80.8732 142,74 l 7,21 c -2.335,0.7566 -9.202,5.644 -2.855,6.493 C 154.938,102.669 159.003,81.1369 161,75 h 1 c 0,7.1848 -1.755,16.9627 0.318,23.8472 C 164.873,107.332 168,92.3897 168,90 c 6.725,4.8369 12.988,2.6069 16,-5 4.586,7.7658 21.003,12.9125 22,0 -2.08511,0.297145 -3.56834,1.412427 -5.24821,1.907328 C 197.66995,87.815256 193.09561,87.773812 190,82 h 9 c 21.437,-0.0442 -7.967,-26.2993 -14,-5 h -1 c -2.802,-8.2118 -10.193,-9.8965 -17,-5 -0.769,-3.5892 -7.784,-4.4083 -10.361,-1.6667 C 153.429,73.7478 152.469,81.532 152,86 h -1 C 149.441,68.1196 140.024,65.4464 128,78 V 60 c -9.324,0.7265 -6,15.0058 -6,22 z"
     id="path4"
     sodipodi:nodetypes="ccccccccccccccccccccsccccccccccc" />
  <path
     style="fill:#7dcdf5; stroke:none;"
     d="M198.667 63.3333L199.333 63.6667L198.667 63.3333z"
     id="path9" />
  <path
     style="fill:#88d1f6; stroke:none;"
     d="M143.667 68.3333L144.333 68.6667L143.667 68.3333z"
     id="path12" />
  <path
     style="fill:#8ed3f6; stroke:none;"
     d="M158.667 68.3333L159.333 68.6667L158.667 68.3333z"
     id="path13" />
  <path
     style="fill:#aaddf8; stroke:none;"
     d="M140.667 69.3333L141.333 69.6667L140.667 69.3333z"
     id="path15" />
  <path
     style="fill:#96d6f7; stroke:none;"
     d="M214 69L213 73L214 69z"
     id="path18" />
  <path
     style="fill:#36b8f1; stroke:none;"
     d="M212.333 71.6667L212.667 72.3333L212.333 71.6667z"
     id="path21" />
  <path
     style="fill:#ffffff; stroke:none;"
     d="M191 78L202 78C199.253 72.5538 192.989 71.4481 191 78z"
     id="path23" />
  <path
     style="fill:#ffffff; stroke:none;"
     d="M170.317 75.0324C165.679 78.0324 168.219 90.6785 174.775 86.9529C180.65 83.6151 177.302 70.5145 170.317 75.0324z"
     id="path25" />
  <path
     style="fill:#96d6f7; stroke:none;"
     d="M190.333 82.6667L190.667 83.3333L190.333 82.6667z"
     id="path30" />
  <path
     style="fill:#57c1f3; stroke:none;"
     d="M111.667 83.3333L112.333 83.6667L111.667 83.3333z"
     id="path31" />
  <path
     style="fill:#a0dcf8; stroke:none;"
     d="M103.667 84.3333L104.333 84.6667L103.667 84.3333z"
     id="path32" />
  <path
     style="fill:#9bd8f7; stroke:none;"
     d="M101.333 86.6667L101.667 87.3333L101.333 86.6667z"
     id="path34" />
  <path
     style="fill:#57c1f3; stroke:none;"
     d="M191.667 92.3333L192.333 92.6667L191.667 92.3333z"
     id="path37" />
  <path
     style="fill:#62c4f4; stroke:none;"
     d="M148.333 93.6667L148.667 94.3333L148.333 93.6667z"
     id="path38" />
</svg>
