<?xml version="1.0" encoding="UTF-8" standalone="no"?>
<svg
   width="631"
   height="383"
   viewBox="0 0 631 383"
   version="1.1"
   id="svg1"
   sodipodi:docname="katalogs-logo-grey.svg"
   inkscape:version="1.3-dev (f3df6cc7, 2022-08-24)"
   xmlns:inkscape="http://www.inkscape.org/namespaces/inkscape"
   xmlns:sodipodi="http://sodipodi.sourceforge.net/DTD/sodipodi-0.dtd"
   xmlns="http://www.w3.org/2000/svg"
   xmlns:svg="http://www.w3.org/2000/svg">
  <defs
     id="defs1" />
  <sodipodi:namedview
     id="namedview1"
     pagecolor="#ffffff"
     bordercolor="#000000"
     borderopacity="0.25"
     inkscape:showpageshadow="2"
     inkscape:pageopacity="0.0"
     inkscape:pagecheckerboard="0"
     inkscape:deskcolor="#d1d1d1"
     showgrid="false"
     inkscape:zoom="1.232376"
     inkscape:cx="185.4142"
     inkscape:cy="-55.583688"
     inkscape:window-width="1920"
     inkscape:window-height="1177"
     inkscape:window-x="-8"
     inkscape:window-y="-8"
     inkscape:window-maximized="1"
     inkscape:current-layer="svg1" />
  <path
     style="fill:#ffffff;fill-opacity:0.799308;stroke:none;stroke-width:0.100845"
     d="M 51.300692,54.969162 V 150.77063 H 148.72504 V 54.969162 Z m 15.367714,14.418105 0.12943,64.873963 66.442754,0.5091 c 0,-33.00658 -0.59924,-32.94015 -0.59924,-64.873973 z"
     id="path1"
     sodipodi:nodetypes="cccccccccc" />
  <path
     style="fill:#000000;fill-opacity:0.333333;stroke:none;stroke-width:0.112707"
     d="m 65.135908,67.971175 c 7.675217,7.85383 16.337623,16.35207 23.461322,23.68375 0.95746,0.9782 1.95305,1.95437 2.83397,2.98835 0.37159,0.43627 1.41881,1.61284 1.83264,1.98869 0.33453,-0.18732 0.58936,-0.30904 0.79427,-0.50156 2.6211,-2.28721 5.60829,-4.84081 7.98345,-6.8564 0.68178,-0.52645 1.97462,-1.57186 2.29673,-2.32355 0.0499,-0.38716 -0.44054,-0.93197 -0.6867,-1.19887 -4.37165,-4.67746 -9.12273,-9.59267 -13.27268,-13.734659 -0.22283,-0.219223 -0.64457,-0.546516 -0.34613,-0.870321 0.52273,-0.566926 2.32856,-1.040677 3.07638,-1.13817 1.1412,-0.187248 2.05735,-0.378017 3.04423,-0.493873 1.51726,-0.178195 2.98564,-0.103248 4.46782,0.0034 1.15829,0.08276 2.42874,0.276516 3.55571,0.588709 1.92885,0.534125 2.8511,0.70824 4.6782,1.577105 0.78162,0.371704 2.7767,1.393288 3.48447,1.867442 1.96698,1.317537 3.7793,3.064657 5.28833,4.869657 0.76966,0.92058 1.62511,1.97954 2.22246,3.03548 1.72982,3.05763 2.36572,6.44661 2.36572,9.91819 3.33522,0 6.99098,0.62428 10.25631,1.29758 1.52424,0.31437 3.05402,0.9242 4.62098,0.95657 V 67.818889 c 0,-0.479793 0.2005,-1.553999 -0.11596,-1.945102 -0.23297,-0.287957 -0.74956,-0.216429 -1.1239,-0.196321 H 132.58501 119.28563 79.162001 67.891349 c -1.174839,0 -3.499671,-0.111872 -4.502657,0.04774 -0.561781,0.220016 -0.21192,0.52424 0.394434,1.054556 0.490403,0.428914 1.146608,1.046855 1.352689,1.19228 z"
     id="path8"
     sodipodi:nodetypes="ccccccccccccccscccccccsccccscsc" />
  <path
     style="fill:#000000;fill-opacity:0.333333;stroke:none;stroke-width:0.112707"
     d="m 62.819633,69.170514 v 40.349006 c 1.55985,-0.73789 2.970759,-1.94894 4.417459,-2.89163 2.077403,-1.20764 4.201863,-2.49666 6.203853,-3.6294 1.077056,-0.55001 2.543186,-1.88033 3.805146,-1.70655 -0.29271,-0.98821 -0.95553,-1.854821 -1.32635,-2.817675 -0.87731,-2.27735 -1.53653,-5.09795 -1.36848,-7.55135 0.12876,-1.88254 0.3272,-3.84915 0.98304,-5.63535 0.21448,-0.58415 1.12841,-2.0632 0.92386,-2.64703 -0.13582,-0.38737 -1.34304,-1.64122 -1.62527,-1.92659 -4.430586,-4.15606 -8.481238,-7.321432 -11.78785,-11.543431 z"
     id="path13"
     sodipodi:nodetypes="cccccccscccc" />
  <path
     style="fill:#000000;fill-opacity:0.333333;stroke:none;stroke-width:0.112707"
     d="m 122.2161,91.373725 c 0,1.98309 -0.21403,4.01676 -1.03511,5.86078 -0.49499,1.11163 -0.92892,2.245114 -1.36083,3.381185 -0.16252,0.4274 -0.51191,0.76191 -0.52284,1.23978 -0.0137,0.5809 0.40609,0.8496 0.76124,1.23516 4.85674,4.63931 16.08696,17.60743 16.75188,18.03385 0.38504,0.17535 0.22237,0.0893 0.28295,0.11663 V 93.627895 c -1.52876,-0.0657 -3.01784,-0.6492 -4.50828,-0.95655 -3.30715,-0.68199 -6.99119,-1.29759 -10.36901,-1.29759 z"
     id="path95"
     sodipodi:nodetypes="cccsccccsc" />
  <path
     style="fill:#000000;fill-opacity:0.333333;stroke:none;stroke-width:0.112707"
     d="m 62.819633,140.06305 h 65.595327 c -0.49377,-0.88586 -1.24857,-1.47633 -1.86349,-2.25852 -7.03295,-8.26331 -13.54385,-16.14167 -20.0677,-23.66853 -0.56261,-0.64829 -1.02382,-1.77053 -1.84995,-2.12361 -0.44385,-0.1897 -1.11905,0.096 -1.57789,0.16408 -1.12335,0.16633 -2.24163,0.35672 -3.38119,0.38457 -3.79902,0.093 -7.62811,-0.21709 -11.15796,-1.7455 -3.100241,-1.34243 -5.935839,-3.24593 -8.316759,-5.64367 -0.78614,-0.79167 -1.54173,-1.70245 -2.14832,-2.63994 -0.25076,-0.38761 -0.57817,-1.12796 -1.05177,-1.2729 -0.86638,-0.26521 -2.745886,1.24213 -3.477556,1.66579 -2.56635,1.48592 -5.113164,2.91122 -7.61222,4.51392 -0.853062,0.54707 -2.56337,1.2093 -3.089043,2.08547 -0.01546,0.74074 -0.0014,1.72931 -0.0014,2.36227 z"
     id="path127"
     sodipodi:nodetypes="cccccccccccccccc" />
  <text
     xml:space="preserve"
     style="font-style:normal;font-variant:normal;font-weight:normal;font-stretch:normal;font-size:85.3333px;line-height:0;font-family:'Poiret One';-inkscape-font-specification:'Poiret One';fill:#000000;fill-opacity:0.33218"
     x="158.71492"
     y="128.86176"
     id="text1"><tspan
       sodipodi:role="line"
       x="158.71492"
       y="128.86176"
       style="font-style:normal;font-variant:normal;font-weight:normal;font-stretch:normal;font-size:85.3333px;line-height:2.5;font-family:'Poiret One';-inkscape-font-specification:'Poiret One'"
       id="tspan3">katalogs.net</tspan></text>
  <text
     xml:space="preserve"
     style="font-style:normal;font-variant:normal;font-weight:normal;font-stretch:normal;font-size:26.6667px;line-height:0;font-family:po;-inkscape-font-specification:po;fill:#000000;fill-opacity:0.33218"
     x="208.33806"
     y="181.0753"
     id="text4"><tspan
       sodipodi:role="line"
       id="tspan4"
       x="208.33806"
       y="181.0753"
       style="font-style:normal;font-variant:normal;font-weight:300;font-stretch:normal;font-size:26.6667px;line-height:5.9;font-family:Roboto;-inkscape-font-specification:'Roboto Light'">Making.Work.Easer.</tspan></text>
</svg>
