<?xml version="1.0" encoding="UTF-8" standalone="no"?>
<svg
   width="750"
   height="550"
   version="1.1"
   id="svg584"
   sodipodi:docname="Pay2.svg"
   inkscape:version="1.3-dev (f3df6cc7, 2022-08-24)"
   xmlns:inkscape="http://www.inkscape.org/namespaces/inkscape"
   xmlns:sodipodi="http://sodipodi.sourceforge.net/DTD/sodipodi-0.dtd"
   xmlns="http://www.w3.org/2000/svg"
   xmlns:svg="http://www.w3.org/2000/svg">
  <defs
     id="defs584" />
  <sodipodi:namedview
     id="namedview584"
     pagecolor="#ffffff"
     bordercolor="#000000"
     borderopacity="0.25"
     inkscape:showpageshadow="2"
     inkscape:pageopacity="0.0"
     inkscape:pagecheckerboard="0"
     inkscape:deskcolor="#d1d1d1"
     showgrid="false"
     inkscape:zoom="26.348016"
     inkscape:cx="753.70002"
     inkscape:cy="8.8621475"
     inkscape:window-width="1920"
     inkscape:window-height="1177"
     inkscape:window-x="-8"
     inkscape:window-y="-8"
     inkscape:window-maximized="1"
     inkscape:current-layer="svg584" />
  <path
     style="fill:#00bbf0;fill-opacity:1;stroke:none;stroke-width:0.294226"
     d="M 4.4679259,3.6947634 C 1.2992607,7.1755495 0,11.772843 0,11.772843 L 0.2499539,446.0679 H 15.675791 v 27.36394 h 8.149497 v -35.69208 h 5.238964 v -8.03072 H 47.98273 v 24.68702 h 9.022658 l 3.501375,-0.4759 0.864429,-4.58048 V 438.63206 394.3144 h 13.388462 v -13.68197 h 10.76898 v -5.65125 l 12.224247,-0.0445 c 1.197394,0 3.432679,0.5116 4.453409,-0.26174 1.22359,-0.92799 1.81879,-3.92315 2.33366,-5.34488 1.58101,-4.36633 3.23303,-8.70293 4.76543,-13.0871 4.74766,-13.58678 10.5111,-28.18187 12.51763,-42.53306 0.63537,-4.5448 0.19325,-9.68445 0.083,-14.27683 -0.44764,-18.6729 -0.92003,-37.39339 -3.52641,-55.91757 -1.40927,-10.01758 -6.25357,-21.37064 -3.89021,-31.52801 1.464,-6.29072 6.97684,-11.26679 10.89034,-16.06143 8.48247,-10.38936 17.25656,-20.4932 26.0103,-30.6357 2.31823,-2.68613 4.91327,-5.27201 7.48414,-7.70651 0.86647,-0.82033 2.57408,-1.64095 3.01444,-2.80035 0.76925,-2.02402 -0.77508,-6.13814 -1.14471,-8.23148 -1.20583,-6.83235 -2.15554,-13.71586 -3.48537,-20.52294 -3.54445,-18.14228 -6.10775,-36.516266 -9.32099,-54.72785 -1.1319,-6.415949 -1.7987,-13.001732 -3.32498,-19.333208 8.27872,-1.074926 16.50738,-2.927939 24.73955,-4.338373 1.82111,-0.312305 7.26003,-0.338181 8.43239,-1.831002 1.27394,-1.621312 0.2992,-7.233 0.2992,-9.297192 h 25.0306 c 1.94947,0 7.2711,0.960416 8.80671,-0.305761 1.45293,-1.198064 1.43925,-7.040263 1.67122,-8.914691 8.1303,0.656734 16.40407,2.502609 24.4485,3.890733 1.84877,0.319147 7.29146,2.181083 8.87421,1.145716 1.67851,-1.098126 2.89221,-7.249358 3.05898,-9.200525 l 21.24691,6.939135 36.67274,12.096342 12.5153,2.355973 4.84314,0.968148 0.39582,2.624855 c 8.22227,1.756347 16.45617,5.27053 24.4485,7.932564 1.6299,0.542519 7.06388,1.460401 7.75657,3.155179 0.39585,0.967554 -0.4715,2.567747 -0.77128,3.486521 -0.99832,3.06357 -1.91223,6.155693 -2.91054,9.220453 -3.8681,11.858097 -7.38693,23.834573 -11.25504,35.692073 -12.88785,39.51648 -25.58943,79.19477 -37.67687,118.97358 -3.29183,10.84148 -7.02895,21.55207 -10.23345,32.42031 -0.8819,2.99515 -1.86856,5.95165 -2.82904,8.92302 -0.33471,1.04102 -0.50642,2.92972 -1.36882,3.65844 -1.18867,1.00829 -5.15107,-1.13917 -6.48961,-1.53476 -6.556,-1.92738 -13.02553,-4.28901 -19.5006,-6.48703 -3.96211,-1.34441 -8.29181,-2.76614 -12.51529,-2.76614 -5.02941,0 -10.49045,1.65076 -15.42585,2.59064 -10.74627,2.04636 -22.00073,4.84818 -32.88904,5.72858 -1.822,14.72001 -5.66536,29.13664 -12.0083,42.53306 -3.4839,7.35852 -9.01305,13.89611 -12.01759,21.41524 -5.80769,14.53263 -8.7581,30.31447 -13.61694,45.20997 -1.74079,5.33596 -3.34071,10.71357 -5.04599,16.06143 -0.7547,2.36758 -2.32377,5.51442 -2.29409,8.01882 0.0251,2.09692 3.341,1.62399 3.33955,3.59597 -0.003,4.25926 -3.1038,8.49174 -3.46994,12.77479 h 15.71689 v 19.03578 h 13.09741 v -38.07155 h 8.14949 v -5.35381 h 18.91849 v 8.03072 h 13.38846 v -8.03072 h 10.76899 v -27.36395 h 8.14949 v -8.32815 h 27.06798 v 112.13251 h 10.47792 v -41.04588 h 5.23897 v -5.35382 h 32.59799 l 0.0436,-18.4409 3.6469,-5.05638 0.0932,-14.8717 h 33.76221 v -11.00506 h 29.68745 v 13.68197 h 8.1495 V 443.391 h 13.09741 v -39.26129 l 0.0175,-19.3332 3.75751,-5.35381 0.29978,-7.13842 h 28.52324 v 5.65124 h 7.85845 v 32.71774 h 13.38846 V 399.6682 h 16.29899 v -16.35886 h 20.95586 c -2.86688,-5.5055 -5.01485,-11.89141 -8.56571,-16.95375 -5.32337,-7.59347 -12.13984,-14.16081 -18.49936,-20.82036 -10.11119,-10.59461 -20.61532,-20.76685 -30.85458,-31.23058 -5.42232,-5.54119 -10.95526,-11.40361 -17.17216,-16.01682 -2.81449,-2.08798 -7.56448,-4.03319 -8.52496,-7.77789 -0.49188,-1.91547 0.15717,-3.88746 0.87898,-5.65124 4.60156,-11.25789 15.65868,-6.23719 24.23603,-5.05637 v -0.29745 c -8.02726,-2.77506 -15.73145,-6.71307 -23.57534,-9.9789 -12.44254,-5.17832 -24.90836,-10.38936 -37.25485,-15.81457 -4.82567,-2.1207 -9.68917,-4.18489 -14.55268,-6.21042 -3.11426,-1.29681 -6.47593,-2.35865 -8.61809,-5.17534 -4.18826,-5.51145 1.90931,-14.22032 3.9787,-19.63065 4.93627,-12.89377 10.55942,-25.53172 15.64122,-38.36898 1.75214,-4.42582 3.25106,-10.8147 7.0435,-13.86339 1.82199,-1.46636 5.01194,-2.24861 7.27634,-2.65312 1.95296,-0.34799 4.06601,0.76738 5.82106,1.51989 3.39078,1.45148 6.80193,2.86131 10.18688,4.33362 9.17983,3.99453 18.41205,7.88794 27.65008,11.73376 4.03109,1.6805 8.49876,4.51505 12.80636,5.17535 0.42202,-4.17597 4.17661,-4.75894 7.56739,-4.75894 7.50336,0 14.91941,1.18973 22.41112,1.18973 -1.75214,-5.50549 -2.68352,-10.31798 0.75383,-15.46656 1.07981,-1.61507 3.18412,-4.03023 5.35829,-3.35506 1.77834,0.55025 3.45771,2.17723 4.94791,3.2688 3.65563,2.67394 7.18029,5.53526 10.76898,8.30436 9.0343,6.96293 17.90852,14.24113 26.48587,21.78406 4.64523,4.08376 9.695,8.114 13.41757,13.12576 8.00107,10.77008 14.96015,22.58714 22.18992,33.90747 6.32168,9.89266 13.84542,20.35046 17.81829,31.52801 2.97458,8.36684 3.66146,18.06613 5.47181,26.76905 3.25398,15.64206 6.19363,31.35552 9.4476,46.99457 2.57582,12.3792 5.17493,24.74654 7.50918,37.17923 0.92264,4.91362 2.63112,9.87187 3.02113,14.87171 1.56878,-0.33012 3.66146,-1.19867 5.23897,-0.62161 2.13051,0.77925 3.47518,3.45021 4.43565,5.38055 2.35463,4.72329 4.66851,9.54169 6.33332,14.57427 h 0.29106 v -91.0148 h 37.83696 v 117.48643 h 10.76898 v 5.3538 h 5.23896 v -27.36392 h 8.14951 v -5.35382 h 32.30693 V 443.391 h 10.76898 v 16.35886 H 741.8544 V 429.70904 L 750,430.30753 c -0.79004,0.49532 -0.74738,-235.79159 0.014,-420.5341623 0,0 -0.67221,-3.9861029 -3.27122,-6.6853564 C 744.14372,0.38875778 739.95255,0 739.95255,0 L 13.12258,0.02290659 c 0,0 -5.8510954,0.59214129 -8.6546541,3.67185681 z"
     id="path1"
     sodipodi:nodetypes="scccccccccccccccccccccccsccccscccccccccssccccccccccccccccccccscccccccccccccccccccccccccccccccccccccccccccccccccccccccscccccccccccccccccsccccccccccsscscccccccccccccccccccczccs" />
  <path
     style="fill:#3d7d58;stroke:none;stroke-width:0.294226"
     d="m 249.97387,23.116812 c -0.28931,2.002028 -1.48932,8.152963 -3.28251,9.200526 -1.80656,1.055295 -6.35719,-0.868805 -8.35963,-1.123408 -8.27844,-1.053214 -16.46169,-2.843767 -24.73955,-3.913042 -0.3868,2.1213 -0.18016,7.191062 -1.67122,8.743667 -1.34759,1.402697 -6.66718,0.476786 -8.51566,0.476786 h -25.0306 v 9.517887 c -8.27027,1.073736 -16.51146,2.925263 -24.73954,4.338372 -1.78358,0.306357 -7.29818,0.3825 -8.43241,1.831002 -0.60364,0.770653 -0.17143,2.194171 -0.008,3.051078 0.50993,2.670363 0.8784,5.361247 1.39676,8.030717 2.03185,10.463727 3.41378,21.066652 5.45754,31.528001 5.68429,29.095292 9.56869,58.582002 14.8842,87.743012 2.30107,12.62311 3.55115,25.58528 6.49339,38.07156 h 0.29107 l 1.91134,-3.86665 -1.54113,-10.41018 -4.60126,-27.0665 -11.5103,-68.11237 -3.59159,-21.415249 -1.91397,-11.302491 c 8.32063,-0.742396 15.76956,-9.577969 18.07879,-17.251171 0.74102,-2.462158 1.22329,-4.863937 1.39589,-7.435848 0.0681,-1.017224 -0.26456,-2.590948 0.70056,-3.264636 1.29373,-0.903307 4.18011,-1.012465 5.72851,-1.23554 3.70308,-0.533597 7.37385,-1.237028 11.06004,-1.869075 13.76742,-2.360138 27.47749,-5.522158 41.3296,-7.312711 1.77718,13.421409 15.98786,19.928074 27.65009,19.928074 1.13889,14.746181 4.76978,29.789796 7.43349,44.317657 5.03727,27.47338 9.40657,55.12403 13.94002,82.68664 1.30421,7.92959 2.58222,15.88596 4.02411,23.79472 0.94213,5.16643 2.32231,10.49943 2.54351,15.764 -12.82555,1.9363 -19.50058,16.47487 -19.50058,28.25623 l -41.62066,7.31986 -11.06002,1.90059 -5.17349,0.68707 -3.84918,-7.23062 h -0.29105 l -0.87316,11.59993 c 3.71006,-0.16359 7.39596,-1.37415 11.06003,-1.95712 7.86427,-1.24625 15.75211,-2.63229 23.57533,-4.12838 4.48921,-0.85661 9.38997,-2.34675 13.97057,-2.23967 5.48374,0.13086 10.86416,2.40921 16.00795,4.16109 5.60802,1.90953 11.26145,3.68224 16.88111,5.55309 1.16508,0.38667 4.4828,2.20696 5.50412,1.10349 0.76807,-0.82985 0.94271,-2.61743 1.28615,-3.68224 0.99831,-3.06653 1.95297,-6.14202 2.91344,-9.22046 3.38205,-10.81171 6.72626,-21.65318 10.23927,-32.42029 12.66957,-38.85083 24.33498,-78.04162 37.00745,-116.89155 3.96416,-12.155827 7.59359,-24.424383 11.54318,-36.584376 1.03033,-3.164697 1.97918,-6.355569 3.00949,-9.517887 0.34636,-1.067489 1.37378,-2.951139 1.03033,-4.081389 -0.50061,-1.647486 -6.11794,-2.652218 -7.62851,-3.155179 -7.99233,-2.661736 -16.45615,-6.493579 -24.73955,-7.932563 l 0.29106,-2.676906 C 307.19194,42.990458 289.417,36.019795 271.51167,30.055947 264.58461,27.748752 257.1834,24.205123 249.97372,23.116812 Z"
     id="path69" />
  <path
     style="fill:#90ad94;stroke:none;stroke-width:0.294226"
     d="m 214.65948,27.379934 0.19383,0.09934 z"
     id="path74" />
  <path
     style="fill:#a5baa4;stroke:none;stroke-width:0.294226"
     d="m 218.44317,27.974801 0.19384,0.09935 z"
     id="path77" />
  <path
     style="fill:#90ad94;stroke:none;stroke-width:0.294226"
     d="m 220.18949,28.272236 0.19384,0.09934 z"
     id="path78" />
  <path
     style="fill:#a5baa4;stroke:none;stroke-width:0.294226"
     d="m 223.97318,28.867103 0.19385,0.09935 z"
     id="path79" />
  <path
     style="fill:#bccab9;stroke:none;stroke-width:0.294226"
     d="m 229.5032,29.759405 0.19384,0.09934 z"
     id="path81" />
  <path
     style="fill:#90ad94;stroke:none;stroke-width:0.294226"
     d="m 231.24952,30.056839 0.19385,0.09935 z"
     id="path82" />
  <path
     style="fill:#bccab9;stroke:none;stroke-width:0.294226"
     d="m 235.03323,30.651708 0.19382,0.09934 z"
     id="path83" />
  <path
     style="fill:#a5baa4;stroke:none;stroke-width:0.294226"
     d="m 236.77953,30.949141 0.19385,0.09934 z"
     id="path84" />
  <path
     style="fill:#bdcdbb;stroke:none;stroke-width:0.294226"
     d="m 242.30957,31.841443 0.19382,0.09934 z"
     id="path85" />
  <path
     style="fill:#8eaf94;stroke:none;stroke-width:0.294226"
     d="m 243.57069,32.039832 v 0.297434 h 0.87317 z"
     id="path86" />
  <path
     style="fill:#80a689;stroke:none;stroke-width:0.294226"
     d="m 245.51115,32.436311 0.19384,0.09935 z"
     id="path88" />
  <path
     style="fill:#61ad83;stroke:none;stroke-width:0.294226"
     d="m 275.00447,34.716737 -0.87315,1.784604 h 6.11212 z"
     id="path91" />
  <path
     style="fill:#598c6b;stroke:none;stroke-width:0.294226"
     d="m 178.08365,36.501341 v 9.517887 h 0.29105 z"
     id="path94" />
  <path
     style="fill:#50936c;stroke:none;stroke-width:0.294226"
     d="m 205.15163,39.475681 v 0.297434 h 10.47792 c -2.78246,-1.193008 -7.45475,-0.297434 -10.47792,-0.297434 z"
     id="path97" />
  <path
     style="fill:#61ad83;stroke:none;stroke-width:0.294226"
     d="m 205.15163,39.773115 v 1.487169 l 7.85845,-1.189735 -7.85845,-0.297434 m 52.97173,0 3.07382,18.738339 6.0609,35.98951 13.59191,80.604606 7.54293,44.61509 h 0.29107 V 64.1627 C 276.90301,63.204367 265.33713,52.106809 264.8176,39.773115 h -6.69424 m -105.65242,38.666415 2.0138,12.194792 4.65598,27.661358 10.34609,61.27139 6.26841,37.17925 h 0.29106 c 4.38268,-10.39235 9.17604,-20.26716 12.26528,-31.23057 0.77945,-2.76614 2.87154,-6.34724 2.89104,-9.20856 0.009,-1.32059 -1.81385,-2.66202 -2.59474,-3.5811 -1.88487,-2.21588 -3.28717,-4.7738 -4.47263,-7.43585 -4.44962,-9.99526 -1.9646,-21.6627 4.55733,-30.04082 15.52857,-19.9483 52.28455,-22.10441 64.55479,2.97434 1.81879,3.71732 3.02521,7.71275 3.12533,11.89736 0.31725,13.23521 -8.78137,25.22834 -20.07833,30.8558 -2.88695,1.43957 -5.91071,2.45383 -9.02266,3.23905 -1.27249,0.31825 -3.41551,0.35097 -4.30351,1.45148 -2.92742,3.62571 -4.35678,10.07409 -6.05799,14.42257 -5.68835,14.54452 -8.96008,28.94329 -11.30423,44.31766 -0.80768,5.2973 -1.26957,11.50474 1.07196,16.35887 0.50409,1.04399 0.98376,3.4651 2.08801,3.97966 1.28092,0.59784 3.80669,-0.28851 5.11731,-0.58296 3.6469,-0.81498 7.39158,-1.19272 11.06002,-1.90954 13.92867,-2.72151 27.97782,-4.78273 41.91172,-7.43584 0,-12.26023 6.98702,-25.29676 19.50057,-28.25623 l -2.79003,-17.5486 -5.80681,-34.2049 -11.86014,-70.49186 -7.48414,-44.317657 c -12.06244,0 -24.96745,-6.814509 -27.65009,-19.928074 -14.09776,1.137089 -28.25228,5.055187 -42.20277,7.412054 -3.9589,0.668632 -8.00542,1.178135 -11.93318,2.005894 -1.10514,0.232891 -3.31395,0.273045 -4.1903,0.999378 -0.74568,0.618069 -0.43513,2.110295 -0.49246,2.967202 -0.1726,2.571911 -0.65487,4.97369 -1.39589,7.435849 -2.37267,7.883487 -9.75845,16.292838 -18.0788,17.548604 z"
     id="path98" />
  <path
     style="fill:#a5baa4;stroke:none;stroke-width:0.294226"
     d="m 312.16327,43.143934 0.19209,0.09934 z"
     id="path99" />
  <path
     style="fill:#61ad83;stroke:none;stroke-width:0.294226"
     d="m 291.88557,43.342323 c 0,49.874915 -0.29104,99.759637 -0.29104,149.609277 v 35.09722 8.03071 c 0.002,1.21651 -0.15135,2.58172 1.16421,2.97434 l 3.36457,-21.41524 4.65686,-30.04084 11.31617,-73.76362 6.56616,-41.640753 C 306.18212,69.241385 298.5798,56.757486 298.5798,44.234624 Z"
     id="path100" />
  <path
     style="fill:#bccab9;stroke:none;stroke-width:0.294226"
     d="m 317.69328,44.036235 0.19211,0.09935 z"
     id="path101" />
  <path
     style="fill:#90ad94;stroke:none;stroke-width:0.294226"
     d="m 319.43961,44.33367 0.19209,0.09935 z"
     id="path102" />
  <path
     style="fill:#bccab9;stroke:none;stroke-width:0.294226"
     d="m 323.22331,44.928538 0.1921,0.09935 z"
     id="path103" />
  <path
     style="fill:#a5baa4;stroke:none;stroke-width:0.294226"
     d="m 324.96962,45.22597 0.1921,0.09935 z"
     id="path104" />
  <path
     style="fill:#90ad94;stroke:none;stroke-width:0.294226"
     d="m 325.74384,46.217617 0.099,0.19809 z"
     id="path105" />
  <path
     style="fill:#8eaf94;stroke:none;stroke-width:0.294226"
     d="m 174.0089,46.614096 v 0.297433 h 0.87317 z"
     id="path106" />
  <path
     style="fill:#90ad94;stroke:none;stroke-width:0.294226"
     d="m 164.01616,48.497744 0.19385,0.09935 z"
     id="path107" />
  <path
     style="fill:#bdcdbb;stroke:none;stroke-width:0.294226"
     d="m 327.29806,48.497744 0.19209,0.09935 z"
     id="path108" />
  <path
     style="fill:#90ad94;stroke:none;stroke-width:0.294226"
     d="m 157.32193,49.687481 0.19384,0.09935 -0.19384,-0.09935 m -6.69423,1.189735 0.19385,0.09935 z"
     id="path109" />
  <path
     style="fill:#61ad83;stroke:none;stroke-width:0.294226"
     d="m 296.25137,245.00254 c 2.68934,-11.87652 7.51211,-23.45564 11.05131,-35.0972 8.19897,-26.95347 17.02372,-53.71717 25.42935,-80.6046 3.10262,-9.92151 6.18779,-19.86235 9.40976,-29.743399 1.42615,-4.38269 4.29012,-9.960766 4.55789,-14.561475 0.0873,-1.480923 -1.9908,-2.168293 -3.00658,-2.816104 -2.91054,-1.85688 -5.303,-4.230998 -7.37821,-7.012005 -4.97702,-6.675609 -5.18075,-14.046914 -4.84603,-22.010115 -1.3796,-0.325987 -4.95665,-2.326826 -6.22856,-1.452072 -0.61702,0.425926 -0.52971,1.679312 -0.64323,2.344375 -0.37836,2.178109 -0.65195,4.364248 -1.00995,6.543547 -1.4378,8.712733 -2.64567,17.470081 -4.12423,26.174189 -6.45264,37.973979 -11.44131,76.208529 -17.70478,114.214639 -1.83655,11.13593 -3.99034,22.39083 -5.23023,33.61003 -0.24158,2.18912 -2.66605,9.42867 -0.27651,10.41019 z"
     id="path110" />
  <path
     style="fill:#90ad94;stroke:none;stroke-width:0.294226"
     d="m 144.70941,52.166296 0.0973,0.198091 z"
     id="path111" />
  <path
     style="fill:#bccab9;stroke:none;stroke-width:0.294226"
     d="m 146.74679,64.361087 0.0973,0.198091 z"
     id="path112" />
  <path
     style="fill:#50936c;stroke:none;stroke-width:0.294226"
     d="m 291.59453,64.1627 v 102.01985 h 0.29104 V 94.20353 73.383153 Z"
     id="path113" />
  <path
     style="fill:#a5baa4;stroke:none;stroke-width:0.294226"
     d="m 147.61995,69.417465 0.0973,0.198091 z"
     id="path114" />
  <path
     style="fill:#bccab9;stroke:none;stroke-width:0.294226"
     d="m 147.91101,71.202069 0.0973,0.198091 z"
     id="path115" />
  <path
     style="fill:#a5baa4;stroke:none;stroke-width:0.294226"
     d="m 148.78416,76.258447 0.0973,0.198091 z"
     id="path116" />
  <path
     style="fill:#bccab9;stroke:none;stroke-width:0.294226"
     d="m 149.07522,78.04305 0.0973,0.198091 z"
     id="path117" />
  <path
     style="fill:#abc2ad;stroke:none;stroke-width:0.294226"
     d="m 149.36628,79.53022 0.0973,0.198091 z"
     id="path118" />
  <path
     style="fill:#8eaf94;stroke:none;stroke-width:0.294226"
     d="m 149.5604,80.819001 v 0.892303 h 0.29106 z"
     id="path119" />
  <path
     style="fill:#9cb79f;stroke:none;stroke-width:0.294226"
     d="m 149.85146,82.603605 v 0.892302 h 0.29106 z"
     id="path120" />
  <path
     style="fill:#3d7d58;stroke:none;stroke-width:0.294226"
     d="m 206.89796,83.68924 c -5.81701,1.767054 -3.16289,10.816482 2.61947,9.044074 5.63596,-1.727497 2.96031,-10.739449 -2.61947,-9.044074 z"
     id="path121" />
  <path
     style="fill:#8eaf94;stroke:none;stroke-width:0.294226"
     d="m 150.72463,87.659982 v 0.892302 h 0.29104 z"
     id="path122" />
  <path
     style="fill:#9cb79f;stroke:none;stroke-width:0.294226"
     d="m 151.01567,89.444587 v 0.892301 h 0.29106 z"
     id="path123" />
  <path
     style="fill:#8eaf94;stroke:none;stroke-width:0.294226"
     d="m 151.88884,94.500964 v 0.892302 h 0.29105 l -0.29105,-0.892302 m 0.29105,1.784603 v 0.892303 h 0.29105 z"
     id="path124" />
  <path
     style="fill:#9cb79f;stroke:none;stroke-width:0.294226"
     d="m 152.56786,98.26856 0.0973,0.198091 z"
     id="path125" />
  <path
     style="fill:#80a689;stroke:none;stroke-width:0.294226"
     d="m 153.05306,101.34194 v 0.89231 h 0.29104 z"
     id="path126" />
  <path
     style="fill:#8eaf94;stroke:none;stroke-width:0.294226"
     d="m 153.3441,103.12655 v 0.8923 h 0.29106 z"
     id="path127" />
  <path
     style="fill:#9cb79f;stroke:none;stroke-width:0.294226"
     d="m 153.73207,105.10954 0.0973,0.19809 z"
     id="path128" />
  <path
     style="fill:#80a689;stroke:none;stroke-width:0.294226"
     d="m 154.21726,108.18293 v 0.8923 h 0.29105 z"
     id="path129" />
  <path
     style="fill:#8eaf94;stroke:none;stroke-width:0.294226"
     d="m 154.50831,109.96753 v 0.8923 h 0.29106 z"
     id="path130" />
  <path
     style="fill:#9cb79f;stroke:none;stroke-width:0.294226"
     d="m 154.79937,111.75214 v 0.89229 h 0.29106 z"
     id="path131" />
  <path
     style="fill:#80a689;stroke:none;stroke-width:0.294226"
     d="m 155.38147,115.02391 v 0.8923 h 0.29106 z"
     id="path132" />
  <path
     style="fill:#8eaf94;stroke:none;stroke-width:0.294226"
     d="m 155.67253,116.80851 v 0.8923 h 0.29105 z"
     id="path140" />
  <path
     style="fill:#9cb79f;stroke:none;stroke-width:0.294226"
     d="m 155.96358,118.59311 v 0.8923 h 0.29106 z"
     id="path143" />
  <path
     style="fill:#3d7d58;stroke:none;stroke-width:0.294226"
     d="m 191.76317,175.70044 c 1.03294,-3.8607 3.16345,-7.64703 5.25468,-11.00506 0.47674,-0.7653 2.52082,-2.9434 1.50183,-3.85713 -1.16421,-1.04399 -4.61728,0.82716 -5.88335,1.18023 l -0.58212,-4.46151 5.53003,-1.48718 c 0.023,-8.47865 9.07679,-16.10486 16.8811,-10.57585 3.43239,2.43182 6.29344,9.10176 10.76898,9.37303 7.90123,0.47857 7.57293,-10.20495 0.87315,-12.18171 0.3906,-0.7171 0.81497,-1.39972 1.26144,-2.08263 3.46266,-5.29402 5.257,2.42884 8.39689,3.33543 1.35922,0.39261 3.60063,-0.8227 4.89435,-1.2528 l 0.58211,4.46151 -4.65685,1.18975 c -0.005,6.34961 -3.13377,10.0012 -8.73161,12.19479 2.30311,9.09552 -2.69893,16.26368 -4.65684,24.68701 12.09588,-2.54901 23.58172,-8.24487 29.59431,-19.92808 1.55276,-3.01716 2.70418,-6.44331 3.21468,-9.81532 3.42308,-22.60111 -19.41123,-38.54744 -39.79429,-35.56477 -16.03239,2.34616 -31.71261,13.0636 -34.0911,30.5084 -0.93952,6.89066 0.74015,14.12572 4.50726,19.92807 1.28384,1.97794 2.91693,4.45854 5.13535,5.35382 z"
     id="path145" />
  <path
     style="fill:#80a689;stroke:none;stroke-width:0.294226"
     d="m 156.54568,121.86489 v 0.8923 h 0.29106 z"
     id="path147" />
  <path
     style="fill:#8eaf94;stroke:none;stroke-width:0.294226"
     d="m 156.83674,123.6495 v 0.89229 h 0.29106 z"
     id="path148" />
  <path
     style="fill:#9cb79f;stroke:none;stroke-width:0.294226"
     d="m 157.1278,125.4341 v 0.89229 h 0.29105 z"
     id="path152" />
  <path
     style="fill:#8eaf94;stroke:none;stroke-width:0.294226"
     d="m 158.00097,130.49047 v 0.8923 h 0.29104 z"
     id="path155" />
  <path
     style="fill:#bdcdbb;stroke:none;stroke-width:0.294226"
     d="m 335.34859,131.28373 0.099,0.19809 z"
     id="path156" />
  <path
     style="fill:#9cb79f;stroke:none;stroke-width:0.294226"
     d="m 158.29201,132.27508 v 0.8923 h 0.29106 z"
     id="path157" />
  <path
     style="fill:#8eaf94;stroke:none;stroke-width:0.294226"
     d="m 159.16518,137.33146 v 0.8923 h 0.29104 z"
     id="path170" />
  <path
     style="fill:#61ad83;stroke:none;stroke-width:0.294226"
     d="m 226.10747,142.68526 c 7.14655,3.06149 6.41162,12.1939 -1.74631,12.1948 l 3.49264,5.65125 c 5.93605,-1.72245 8.73103,-5.95077 8.73161,-12.19479 l 4.65685,-1.18975 -0.58211,-4.46151 c -1.31731,0.31142 -3.57442,1.6008 -4.89435,1.08474 -3.18878,-1.24653 -5.08878,-8.62677 -8.58986,-3.16737 -0.43658,0.68112 -0.7873,1.32477 -1.06847,2.08263 z"
     id="path172" />
  <path
     style="fill:#8eaf94;stroke:none;stroke-width:0.294226"
     d="m 159.45622,139.11605 v 0.8923 h 0.29106 z"
     id="path175" />
  <path
     style="fill:#9cb79f;stroke:none;stroke-width:0.294226"
     d="m 159.8442,141.09905 0.0973,0.19809 z"
     id="path178" />
  <path
     style="fill:#61ad83;stroke:none;stroke-width:0.294226"
     d="m 197.58424,156.06979 -5.53003,1.48718 0.58212,4.46151 c 2.03126,-0.35722 4.65395,-2.26288 6.40318,-0.59487 h 0.29104 c 0.99832,-1.33905 2.81391,-2.59184 3.40155,-4.16409 0.82484,-2.20696 -0.11001,-3.94992 1.86798,-5.89275 3.61082,-3.54661 5.78992,-0.64039 9.28316,0.65704 2.45357,0.91162 5.79807,0.94464 8.44055,1.6665 -2.21812,-3.21822 -5.62578,-7.71097 -9.31371,-9.18505 -8.1789,-3.26939 -15.4206,3.27624 -15.42584,11.56453 z"
     id="path186" />
  <path
     style="fill:#80a689;stroke:none;stroke-width:0.294226"
     d="m 160.32939,144.17243 v 0.8923 h 0.29105 z"
     id="path187" />
  <path
     style="fill:#8eaf94;stroke:none;stroke-width:0.294226"
     d="m 160.62044,145.95704 v 0.8923 h 0.29105 z"
     id="path189" />
  <path
     style="fill:#9cb79f;stroke:none;stroke-width:0.294226"
     d="m 161.00841,147.94002 0.0973,0.1981 z"
     id="path190" />
  <path
     style="fill:#3d7d58;stroke:none;stroke-width:0.294226"
     d="m 202.8232,156.9621 c 3.7866,-1.6359 6.34933,-4.66527 10.76898,-4.75895 -2.30369,-3.26344 -7.22337,-3.67986 -9.71012,-0.28553 -1.12318,1.53357 -1.05886,3.22805 -1.05886,5.04448 z"
     id="path193" />
  <path
     style="fill:#bdcdbb;stroke:none;stroke-width:0.294226"
     d="m 329.23647,150.61694 0.099,0.19808 z"
     id="path195" />
  <path
     style="fill:#80a689;stroke:none;stroke-width:0.294226"
     d="m 161.49361,151.01342 v 0.89231 h 0.29104 z"
     id="path196" />
  <path
     style="fill:#d79c8b;stroke:none;stroke-width:0.294226"
     d="m 173.71785,220.61297 h -0.29106 l -7.60959,-44.91253 -3.45044,-21.11782 h -0.29105 c -3.09477,3.46035 -6.98965,6.33653 -10.16097,9.81532 -8.07325,8.85759 -15.62928,18.18511 -23.34802,27.36393 -4.68887,5.57689 -11.34003,11.6713 -13.73017,18.73834 -3.64689,10.78496 2.47251,24.2825 3.78924,35.0972 2.67915,22.00417 3.82094,44.42475 3.28017,66.62521 -0.12254,5.02961 -2.31155,10.64218 -3.65679,15.46657 -3.13786,11.24895 -6.71403,22.35513 -10.72388,33.31261 -1.82344,4.98201 -4.92811,10.51429 -5.69766,15.76399 13.73656,5.44602 27.05633,12.56063 40.45644,18.83054 4.91734,2.29917 11.20644,6.78149 16.59004,7.34365 2.41372,-11.91818 7.4306,-23.44672 10.85049,-35.09721 3.39805,-11.57613 5.61179,-24.05348 10.48723,-35.0972 2.22133,-5.0326 5.75821,-9.45543 8.38991,-14.27683 4.17458,-7.64703 7.59505,-15.72533 10.13914,-24.09215 7.03942,-23.1493 4.46535,-47.22359 10.45173,-70.49186 2.95712,-11.49284 7.17622,-22.718 11.79932,-33.61002 3.62535,-8.54231 8.33548,-17.75384 7.3942,-27.36394 -0.85365,-8.72195 -10.41884,-12.56183 -17.99555,-10.27961 -3.83433,1.15493 -6.88719,3.8134 -9.5934,6.71041 -9.23717,9.88968 -11.60489,24.49368 -16.03472,36.8818 -1.98964,5.56499 -4.14315,11.06455 -6.75099,16.35888 -1.32633,2.69475 -3.28104,5.20509 -4.29362,8.03072 z"
     id="path199" />
  <path
     style="fill:#8eaf94;stroke:none;stroke-width:0.294226"
     d="m 161.78465,152.79801 v 0.8923 h 0.29106 z"
     id="path200" />
  <path
     style="fill:#d4cddc;stroke:none;stroke-width:0.294226"
     d="m 393.17221,167.66972 v 0.29744 h 2.32842 z"
     id="path213" />
  <path
     style="fill:#b3a8c8;stroke:none;stroke-width:0.294226"
     d="m 381.82112,250.65379 3.49264,-7.73328 -15.13479,-6.24611 1.16421,-2.97434 16.00795,6.54355 2.91054,-5.05638 c -4.72963,-1.64482 -9.38066,-3.83988 -13.97058,-5.8654 -1.28646,-0.56809 -4.02526,-2.64419 -1.34175,-3.87854 1.10018,-0.50563 3.51884,1.04994 4.54334,1.49906 3.8652,1.69835 7.87882,3.83988 11.9332,4.9731 l -0.87317,2.6769 h 0.29106 c 1.83364,-2.61741 4.8635,-8.97655 8.14949,-9.51787 -3.71384,4.67863 -8.71705,10.03838 -10.76898,15.76399 l 1.16422,0.29743 c 4.31632,-6.45134 10.96107,-9.46136 16.59005,-14.27682 -3.06188,-2.16829 2.88725,-4.66973 4.94791,-4.16408 l -0.87315,2.08203 c 10.05297,-2.81074 19.03489,-6.24611 29.68745,-6.24611 0.18336,-4.11054 4.00198,-8.94383 8.44056,-7.80465 2.37209,0.60973 3.51883,2.60254 5.57949,3.46212 2.00535,0.83282 3.84772,0.24687 5.77159,1.78162 1.37668,1.09753 2.1276,3.7001 3.57123,4.42285 3.74003,1.86789 8.77817,1.4604 12.72776,2.53712 9.32827,2.54008 18.20831,6.71307 27.35904,9.87777 1.83654,-4.21464 5.13128,-9.79152 3.91175,-14.57426 -0.85569,-3.35208 -3.96706,-4.82735 -6.82229,-6.00816 -4.96537,-2.0523 -9.90455,-4.19383 -14.84373,-6.31156 -6.5749,-2.82264 -13.46705,-6.76067 -20.37374,-8.57204 -12.75106,-3.34316 -27.44052,-0.40748 -39.00118,5.49956 -6.94744,3.54838 -13.2895,8.12292 -18.91847,13.5957 -1.13803,1.10645 -5.02941,6.16282 -6.40318,5.96058 h -0.29105 c -0.59958,3.94398 -4.77911,1.96009 -4.94791,-1.18974 l 2.61656,1.89168 1.4058,-3.50972 -2.5671,-0.464 c 1.73468,-2.23373 4.57245,-1.06779 4.3658,1.7846 h 0.29107 c 9.62804,-12.91159 27.37358,-23.08087 43.07591,-25.19562 5.36411,-0.72276 10.64965,-0.0862 16.00794,-0.0862 -4.45311,-3.67627 -12.1573,-5.49955 -17.46321,-7.73625 -11.75273,-4.95823 -23.44145,-10.083 -35.21747,-14.98769 -5.08471,-2.11477 -12.68703,-7.37042 -18.04533,-3.71792 -4.15623,2.83751 -5.64643,10.33581 -7.52372,14.84195 -5.31173,12.74206 -10.53032,25.54362 -15.64413,38.36898 -1.87729,4.70838 -6.57199,11.72186 -4.782,16.95373 1.75795,5.15156 7.83806,6.37104 12.23296,8.28353 2.4565,1.07076 4.96538,2.3884 7.56741,3.01896 z"
     id="path214" />
  <path
     style="fill:#fabfae;stroke:none;stroke-width:0.294226"
     d="m 479.90614,187.00292 c -7.00565,0 -13.94437,-1.18973 -20.95585,-1.18973 -4.51715,0 -8.00106,-0.0655 -9.31371,5.05638 8.50749,2.48654 16.86655,7.07892 25.03059,10.58269 6.00736,2.57579 12.01179,5.16643 18.04533,7.67975 3.61197,1.50205 7.77695,2.76019 11.06003,4.92849 5.98406,3.94992 11.65961,10.42802 16.11855,16.07035 3.67308,4.64592 4.59864,12.8432 6.59818,18.4409 2.7097,7.57267 7.27342,16.61169 7.81769,24.68702 0.99832,14.82709 -7.12498,26.37349 -17.72806,35.41844 -3.73713,3.18849 -7.71001,6.65954 -12.22424,8.64045 -6.5458,2.87024 -13.74356,-5.31217 -18.62743,-9.15502 -13.92983,-10.96936 -27.11164,-23.68466 -44.24014,-28.87191 -7.98942,-2.4211 -18.77586,-3.97369 -22.43732,5.8654 -0.56464,1.52286 -0.97502,3.12008 -0.79748,4.75895 0.51225,4.71433 7.1541,7.33177 10.42844,9.94027 8.72287,6.94802 16.63372,15.68369 24.4485,23.66976 13.33898,13.6314 27.85965,26.66499 39.45813,41.93819 5.98696,7.87903 7.84971,17.69733 14.96888,24.98445 3.96706,4.06 8.4813,7.37339 13.38846,10.15442 2.76791,1.56749 5.87637,2.65312 8.44055,4.56559 7.61396,5.67802 14.55559,16.44512 17.17216,25.73101 5.54458,-1.63291 11.03093,-4.91952 16.29899,-7.34364 9.48253,-4.36931 19.11058,-8.50364 28.8143,-12.34351 3.73131,-1.47825 7.52664,-2.88511 11.35109,-4.09864 1.00124,-0.31822 3.41407,-0.52647 3.88848,-1.624 0.51515,-1.19865 -0.41621,-3.44428 -0.72764,-4.63104 -0.80912,-3.10819 -1.26317,-6.37698 -1.98498,-9.51788 -2.85232,-12.40895 -4.71507,-25.0618 -7.56739,-37.47668 -4.24939,-18.49147 -7.38985,-37.33094 -11.25796,-55.91759 -1.20204,-5.77616 -1.76377,-11.92112 -3.52464,-17.54861 -1.79873,-5.75828 -5.31465,-11.2073 -8.33869,-16.35886 -5.39613,-9.19071 -11.14154,-18.14942 -16.95969,-27.06649 -5.58532,-8.56015 -10.73697,-18.85136 -17.87651,-26.14742 -10.38479,-10.61542 -22.45769,-19.79125 -34.02707,-29.00279 -5.46308,-4.35145 -11.62467,-10.7909 -18.04531,-13.53027 -2.64859,-1.13321 -5.05852,1.43661 -6.31005,3.54244 -2.86978,4.83331 -2.56418,10.14249 -0.38419,15.16913 z"
     id="path215" />
  <path
     style="fill:#877da1;stroke:none;stroke-width:0.294226"
     d="m 474.37613,289.91508 v -0.29745 c -2.82904,-0.13383 -5.55912,-1.84409 -8.14951,-2.91484 -5.74829,-2.37649 -11.42966,-4.92551 -17.17215,-7.31688 -19.75962,-8.22702 -39.36208,-16.84963 -59.08387,-25.16589 -6.31585,-2.665 -12.63172,-5.33597 -18.91847,-8.07235 -3.05898,-1.3325 -6.33624,-2.23373 -8.16987,-5.3092 -3.25107,-5.44303 1.72594,-12.70935 3.80116,-17.84603 5.1691,-12.80156 10.28582,-25.64476 15.6383,-38.36898 2.11014,-5.01474 3.55377,-12.04311 7.93995,-15.46658 -1.78999,-0.71086 -3.99908,0.80902 -5.20987,2.09394 -2.79993,2.98029 -4.03691,8.12292 -5.55621,11.88547 -5.40776,13.3875 -11.15899,26.6709 -16.31937,40.15358 -1.7696,4.61915 -5.88219,10.65408 -5.16038,15.764 0.56756,4.01535 3.89139,5.9338 7.21522,7.31687 5.74248,2.39137 11.47624,4.83925 17.17216,7.34067 22.10551,9.71122 44.46716,18.78594 66.65125,28.29788 5.04978,2.16828 10.0821,4.37822 15.13478,6.54354 3.28892,1.41282 6.65058,2.88808 10.18688,1.36225 z"
     id="path216" />
  <path
     style="fill:#f9d57f;stroke:none;stroke-width:0.294226"
     d="m 390.84377,187.59779 v 0.29744 c -2.75046,0.45805 -4.27848,7.39421 -5.28263,9.81532 -0.43948,1.06184 -1.08271,2.38839 -0.65195,3.5573 0.46569,1.2641 1.92387,1.69241 3.02404,2.17722 2.89599,1.27897 5.81816,2.48953 8.73161,3.72685 1.17004,0.49671 2.52634,1.32656 3.71966,0.43127 1.04779,-0.79116 1.39997,-2.47761 1.89185,-3.64652 1.25444,-2.98327 3.14629,-6.32643 3.7022,-9.5179 l -9.31371,-3.86664 c -1.31847,2.86429 1.95588,2.88809 3.49264,4.46151 -2.40119,-1.39794 -4.50551,-1.50203 -4.07476,-4.75893 l -1.7463,-0.59487 c -1.2137,2.78695 -4.24066,7.62322 -4.0864,10.69274 0.12515,2.46275 6.17615,1.98091 3.21323,5.36868 1.64737,-4.0213 -4.55789,-2.76911 -3.20158,-6.84097 l -2.91054,-1.18974 v -0.29744 l 3.20158,0.89231 0.87317,-2.37947 -4.07475,-2.08205 4.3658,1.7846 c 0.33471,-1.29383 0.87316,-2.37352 -0.58211,-2.97434 v -0.29742 l 1.74632,0.29742 1.16421,-3.27176 -3.20158,-1.18974 v -0.29743 c 1.50183,0.41938 5.82981,3.20931 6.98528,2.08203 h 0.29106 c 0.70144,2.09096 5.57658,3.3848 7.56739,3.86664 -0.44822,-1.5407 -2.42448,-1.91844 -3.7837,-2.47762 -3.27143,-1.34738 -6.52541,-3.21229 -9.89582,-4.2652 -0.50351,-0.15764 -2.23819,0.0208 -1.16421,0.49671 z"
     id="path226" />
  <path
     style="fill:#e6a73f;stroke:none;stroke-width:0.294226"
     d="m 389.9706,187.30036 0.87317,0.59487 v -0.29744 z"
     id="path227" />
  <path
     style="fill:#e7aa43;stroke:none;stroke-width:0.294226"
     d="m 390.84377,187.89523 v 0.29743 l 3.20158,1.18974 -1.16421,3.27176 -1.74632,-0.29742 v 0.29742 c 1.23989,0.80011 0.79458,1.66564 0.58211,2.97434 l -4.3658,-1.7846 4.07475,2.08205 -0.87317,2.37947 -3.20158,-0.89231 v 0.29744 l 2.91054,1.18974 c -1.82783,3.95289 4.38908,2.86429 3.20158,6.84097 0.7451,-0.56214 1.34467,-1.65076 0.68398,-2.5609 -0.8819,-1.2165 -3.12591,-0.9964 -3.73713,-2.45086 -0.36091,-0.85066 0.4424,-2.23373 0.74218,-3.01895 1.02742,-2.69179 2.30516,-5.27946 3.18414,-8.03071 l 1.7463,0.59487 c -0.71016,3.23013 1.46983,3.66735 4.07476,4.75893 -1.25153,-1.93332 -4.48514,-1.41876 -3.49264,-4.46151 l 9.60476,3.86664 v -0.29743 c -2.31386,-1.05292 -6.85722,-1.84111 -8.14949,-4.16408 h -0.29106 z"
     id="path229" />
  <path
     style="fill:#edb552;stroke:none;stroke-width:0.294226"
     d="m 388.51534,191.16699 v 0.29745 l 2.61948,0.8923 v -0.29744 z"
     id="path232" />
  <path
     style="fill:#e3a036;stroke:none;stroke-width:0.294226"
     d="m 400.15748,195.03364 v 1.18973 h 0.29106 z"
     id="path235" />
  <path
     style="fill:#c7bfd7;stroke:none;stroke-width:0.294226"
     d="m 400.73959,222.99244 c 5.71338,-4.11351 10.16359,-10.16629 16.00794,-14.36012 9.55529,-6.85287 20.88018,-11.56126 32.598,-12.38216 5.14873,-0.35991 10.05589,0.85066 15.13478,0.86552 -3.55376,-2.41219 -8.70542,-1.7846 -12.80636,-1.7846 -14.23252,0 -27.47544,5.9338 -38.71011,14.61293 -3.36749,2.59957 -6.64767,5.5055 -9.60187,8.58691 -1.22241,1.27897 -2.9309,2.54306 -2.62238,4.46152 z"
     id="path236" />
  <path
     style="fill:#e9ae49;stroke:none;stroke-width:0.294226"
     d="m 394.70605,196.29476 c -1.81327,0.81795 -0.43949,3.76849 1.26317,2.86429 1.67647,-0.89231 0.47442,-3.64952 -1.26317,-2.86429 z"
     id="path237" />
  <path
     style="fill:#e7aa43;stroke:none;stroke-width:0.294226"
     d="m 399.86643,196.22337 -2.03738,5.65125 h 0.29106 c 1.11473,-1.80542 3.08807,-0.16061 4.65686,0.29744 v -0.29744 c -2.16253,-1.28491 -3.63817,-1.32952 -3.2016,-4.16407 l 3.7837,1.18974 v -0.29744 z"
     id="path238" />
  <path
     style="fill:#f9d57f;stroke:none;stroke-width:0.294226"
     d="m 395.79168,199.19771 0.87316,-2.08203 c -2.3226,-0.97558 -3.15793,1.0202 -0.87316,2.08203 z"
     id="path240" />
  <path
     style="fill:#e6a73f;stroke:none;stroke-width:0.294226"
     d="m 386.18691,196.81825 v 0.29743 l 1.16422,0.29743 v -0.29743 z"
     id="path241" />
  <path
     style="fill:#e3a036;stroke:none;stroke-width:0.294226"
     d="m 403.55407,198.99844 0.19211,0.10114 z"
     id="path243" />
  <path
     style="fill:#bdcdbb;stroke:none;stroke-width:0.294226"
     d="m 313.81063,199.397 0.099,0.19631 z"
     id="path244" />
  <path
     style="fill:#8c79a7;stroke:none;stroke-width:0.294226"
     d="m 448.47236,200.68488 -1.16421,2.97434 30.85168,12.92351 19.79164,8.1943 0.54717,-3.12305 -3.16666,-1.63588 -7.85844,-3.3164 -26.48587,-11.07942 z"
     id="path245" />
  <path
     style="fill:#e5a33a;stroke:none;stroke-width:0.294226"
     d="m 397.538,201.87462 -0.29106,1.48718 2.32843,0.59487 v -0.29745 z"
     id="path246" />
  <path
     style="fill:#eeb857;stroke:none;stroke-width:0.294226"
     d="m 396.95589,203.3618 -0.5821,2.08203 h 0.29105 z"
     id="path247" />
  <path
     style="fill:#ebb14e;stroke:none;stroke-width:0.294226"
     d="m 399.57537,203.95667 v 0.29742 l 2.03739,0.59487 v -0.29743 l -2.03739,-0.59486 m -3.49265,1.48716 -0.29104,1.18973 h 0.29104 z"
     id="path248" />
  <path
     style="fill:#736a95;stroke:none;stroke-width:0.294226"
     d="m 381.82403,210.69949 c -3.32093,0.98451 -3.61781,7.92958 0.57919,6.80827 3.44608,-0.91908 3.47227,-8.00693 -0.57919,-6.80827 z"
     id="path252" />
  <path
     style="fill:#cf7874;stroke:none;stroke-width:0.294226"
     d="m 445.85288,210.50021 v 0.29743 h 2.32844 z"
     id="path253" />
  <path
     style="fill:#e33531;stroke:none;stroke-width:0.294226"
     d="m 448.76342,225.3719 c -0.82077,-4.95822 -0.15718,-8.27461 4.65685,-10.70762 -1.25444,-3.77145 -6.67967,-4.97904 -9.89582,-3.11413 -3.53921,2.05527 -4.55207,7.04026 -2.47977,10.54998 0.66942,1.13026 1.63573,1.99578 2.77082,2.6204 1.53096,0.84173 3.26854,0.65137 4.94792,0.65137 z"
     id="path254" />
  <path
     style="fill:#b3a8c8;stroke:none;stroke-width:0.294226"
     d="m 382.16165,212.31158 c -1.45527,0.74656 -1.92387,4.76489 0.14262,3.52757 1.10598,-0.66031 1.78996,-4.51802 -0.14262,-3.52757 z"
     id="path255" />
  <path
     style="fill:#736a95;stroke:none;stroke-width:0.294226"
     d="m 387.35113,220.0181 2.32842,-6.54355 c -0.5821,-0.18739 -1.55131,-0.67221 -2.13633,-0.27364 -0.52681,0.35692 -0.1659,1.51394 -0.29978,2.07013 -0.39002,1.62994 -2.40701,4.18491 0.10769,4.74706 z"
     id="path256" />
  <path
     style="fill:#3d7d58;stroke:none;stroke-width:0.294226"
     d="m 228.43591,213.43291 c -5.57803,2.31105 -2.03883,11.00803 3.49148,8.71481 5.51051,-2.28429 1.94947,-10.96936 -3.49148,-8.71481 z"
     id="path257" />
  <path
     style="fill:#ec6d33;stroke:none;stroke-width:0.294226"
     d="m 453.42027,214.36685 c -4.36871,2.87619 -6.03062,5.69884 -4.65685,11.00505 4.09221,-1.64777 7.4859,-6.62385 4.65685,-11.00505 z"
     id="path258" />
  <path
     style="fill:#f3a035;stroke:none;stroke-width:0.294226"
     d="m 453.71133,214.36685 c 0.76838,4.63402 0.34636,8.80702 -4.65686,10.70763 3.27727,9.84804 18.58958,0.61865 12.11074,-7.7333 -0.75965,-0.97855 -1.69684,-1.72511 -2.79704,-2.26347 -1.53384,-0.74655 -2.99493,-0.71086 -4.65684,-0.71086 z"
     id="path259" />
  <path
     style="fill:#736a95;stroke:none;stroke-width:0.294226"
     d="m 390.84377,216.74632 c 0.57337,0.10412 1.99371,-0.1517 2.4012,0.2558 1.26316,1.27003 -3.7546,3.21228 -4.43858,3.61085 l 4.94792,2.08203 0.29104,-1.18973 -1.74631,-1.18975 c 0.69852,-0.1963 1.4087,-0.39558 2.00536,-0.83876 3.4839,-2.57874 -2.2906,-6.75472 -3.46063,-2.73044 z"
     id="path260" />
  <path
     style="fill:#f0b4a3;stroke:none;stroke-width:0.294226"
     d="m 505.80991,215.85402 c 3.1492,5.86837 -0.5006,11.98361 -2.97748,17.5486 -3.21324,7.2217 -5.99861,14.67539 -8.95863,22.01012 -1.56005,3.86663 -3.70802,7.82251 -4.65394,11.89735 l 14.84373,10.89501 6.62729,5.77319 1.83654,8.31626 2.59619,17.5486 c 3.05607,-1.61209 5.73376,-4.66972 8.14951,-7.13842 7.46552,-7.62918 12.48329,-19.60387 10.93488,-30.63569 -1.30683,-9.33051 -6.12668,-18.7324 -9.03721,-27.66136 -1.3563,-4.15218 -2.17127,-9.27101 -4.24648,-13.0871 -1.93258,-3.55433 -5.62605,-6.66252 -8.42017,-9.51788 -1.8773,-1.91845 -4.08057,-5.19914 -6.69423,-5.94868 z"
     id="path261" />
  <path
     style="fill:#cf7874;stroke:none;stroke-width:0.294226"
     d="m 439.74076,216.74632 v 1.7846 h 0.29105 z"
     id="path262" />
  <path
     style="fill:#736a95;stroke:none;stroke-width:0.294226"
     d="m 396.95589,219.12579 2.35171,0.48483 -1.20495,3.32232 -2.60202,-1.72511 c 0.0494,2.08204 1.99663,4.96715 4.27266,3.05167 0.68106,-0.57107 1.58333,-3.34613 1.64737,-4.2414 0.18918,-2.64122 -3.46645,-2.83752 -4.46477,-0.89231 z"
     id="path263" />
  <path
     style="fill:#c7bfd7;stroke:none;stroke-width:0.294226"
     d="m 409.4712,226.26421 c 2.97747,-0.87744 5.7483,-2.43598 8.7316,-3.35506 7.08424,-2.18019 14.45372,-3.18849 21.82901,-3.18849 v -1.18974 c -7.78277,0 -15.88861,1.1481 -23.28428,3.66737 -2.36917,0.80902 -6.2431,1.51691 -7.27633,4.06592 z"
     id="path264" />
  <path
     style="fill:#b3a8c8;stroke:none;stroke-width:0.294226"
     d="m 414.71015,224.18218 2.61949,1.18972 -0.58211,1.18974 -2.61948,-0.29743 v 0.29743 c 5.58532,3.32829 -3.47808,7.03134 -2.91053,1.7846 h 0.5821 c 1.49893,3.03681 4.0602,-0.68112 0.29106,-0.8923 l 1.45526,-2.67691 -4.07474,1.48718 0.58211,0.59487 -1.74633,2.37947 -1.45527,-0.59486 0.29106,-1.48718 h -0.29106 c -1.2719,1.51692 -3.32092,2.36757 -4.94791,3.47106 -4.01363,2.72151 -9.58148,6.50488 -11.64213,11.10321 l 34.05326,14.27683 c -0.31143,0.82091 -0.62869,2.2129 -1.51931,2.56982 -0.99831,0.40153 -2.5438,-0.60379 -3.4286,-1.01425 -2.58457,-1.19865 -5.2477,-2.24265 -7.85845,-3.37884 -5.6086,-2.43896 -11.27833,-4.72325 -16.88111,-7.18304 -1.50765,-0.66326 -4.97409,-2.92675 -6.60109,-2.38245 -1.95296,0.65436 -3.83317,5.16643 -4.75,6.92725 7.50919,2.61146 14.80589,6.25502 22.12007,9.39295 15.59757,6.68929 31.19221,13.41131 46.85962,19.93403 5.05851,2.10583 10.11702,4.24439 15.13478,6.44837 3.42279,1.50502 6.73499,3.2569 10.47793,1.70727 4.71797,-1.95113 6.22563,-9.30671 8.02725,-13.68791 3.6149,-8.80698 7.10754,-17.66459 10.72241,-26.47162 2.00828,-4.88982 4.79366,-10.00568 5.98989,-15.16913 l -6.69422,-2.67691 c -0.71891,3.79526 -4.56955,7.85226 -6.70298,11.00505 -0.77128,1.14215 -1.73177,2.84348 -3.19286,3.11116 -1.14674,0.21118 -2.45357,-0.61567 -3.49264,-1.01424 -2.63694,-1.01128 -5.24187,-2.09393 -7.85845,-3.15279 -1.98497,-0.80606 -8.45219,-2.09395 -9.17981,-4.33065 -0.40749,-1.24328 1.2195,-2.91188 1.86273,-3.83393 1.97044,-2.82859 4.65687,-5.97247 5.86183,-9.22044 l -10.47793,-2.08204 c -0.64905,4.50909 -4.13879,8.72968 -9.02266,7.57564 -2.15962,-0.50862 -2.94255,-2.44194 -4.74126,-3.39075 -2.0432,-1.07969 -4.15915,-0.15168 -6.30713,-1.96009 -1.15257,-0.96963 -1.74341,-3.20931 -3.0357,-3.83094 -1.65609,-0.79415 -4.81984,-0.18145 -6.58071,0.0327 -5.62607,0.69006 -13.43213,1.09457 -18.33638,4.25035 z"
     id="path265" />
  <path
     style="fill:#cc7d7c;stroke:none;stroke-width:0.294226"
     d="m 440.12786,219.91994 0.099,0.1963 z"
     id="path266" />
  <path
     style="fill:#c7bfd7;stroke:none;stroke-width:0.294226"
     d="m 462.44293,220.31552 0.29106,1.18975 c 2.7883,0.22604 9.23222,3.39371 11.35108,1.18973 z"
     id="path267" />
  <path
     style="fill:#d5a484;stroke:none;stroke-width:0.294226"
     d="m 462.44293,220.61297 v 2.08203 h 0.29106 z"
     id="path268" />
  <path
     style="fill:#736a95;stroke:none;stroke-width:0.294226"
     d="m 407.14277,227.15651 -0.29106,1.48718 1.45527,0.59486 1.74633,-2.37947 c -0.68108,-1.27897 0.39291,-2.89701 0.87315,-4.16408 -2.91345,-1.05886 -9.09542,3.17064 -3.78369,4.46151 z"
     id="path269" />
  <path
     style="fill:#e03643;stroke:none;stroke-width:0.294226"
     d="m 471.46559,239.64875 c -0.84114,-2.72747 2.6806,-5.64828 3.7837,-8.03072 h -1.16422 l 1.16422,-2.37948 1.45527,0.59487 c 1.21078,-1.83517 2.20619,-4.00644 4.36579,-4.75894 -1.4116,-1.07969 -5.25351,-2.96245 -6.95908,-2.02851 -2.29349,1.25815 -4.12714,5.50253 -5.55622,7.67975 -0.94883,1.44552 -3.7866,4.2533 -3.02113,6.18068 0.61121,1.53475 4.47058,2.48654 5.93167,2.74235 z"
     id="path270" />
  <path
     style="fill:#161617;stroke:none;stroke-width:0.294226"
     d="m 437.99444,223.88473 -0.58211,2.08204 0.87316,-1.48717 h 0.29105 v 2.08204 l 0.87316,-1.48716 h 0.29106 l -0.29106,1.7846 0.87317,-0.89231 h 0.29105 l 0.87316,1.48717 0.58212,-1.48717 v -0.29743 l -1.45528,0.29743 z"
     id="path271" />
  <path
     style="fill:#b3a8c8;stroke:none;stroke-width:0.294226"
     d="m 406.56066,225.07448 v 0.59486 l 1.45527,0.29743 0.5821,-1.78459 z"
     id="path272" />
  <path
     style="fill:#736a95;stroke:none;stroke-width:0.294226"
     d="m 412.09068,227.45394 c 3.12591,0.35692 1.64735,3.48295 -0.29106,0.8923 h -0.5821 c -1.20787,5.97843 9.32535,0.81796 2.91053,-1.7846 v -0.29743 l 2.61948,0.29743 0.58211,-1.18974 c -2.74173,-1.14809 -3.99907,-0.93096 -5.23896,2.08204 z"
     id="path273" />
  <path
     style="fill:#8875a4;stroke:none;stroke-width:0.294226"
     d="m 390.26167,235.18723 1.16421,-3.27178 c -4.11258,-1.62993 -8.15532,-3.48294 -12.22425,-5.22889 -1.01287,-0.43424 -3.40824,-1.97793 -4.46767,-1.29384 -2.49724,1.61805 0.11059,3.42347 1.55713,4.05998 4.46476,1.96306 9.24095,4.58644 13.97058,5.73453 z"
     id="path274" />
  <path
     style="fill:#c7bfd7;stroke:none;stroke-width:0.294226"
     d="m 387.35113,240.24361 0.29105,0.29743 3.87974,-5.05638 7.47134,-10.41018 c -2.00535,0.1606 -2.99202,2.04634 -4.11258,3.56921 -2.61656,3.56325 -5.97241,7.39717 -7.52955,11.59992 z"
     id="path275" />
  <path
     style="fill:#244e81;stroke:none;stroke-width:0.294226"
     d="m 476.70456,229.83342 0.87315,0.8923 1.16422,-0.59487 v 1.18973 l 4.94791,1.18974 4.07475,-4.75894 c -4.65104,-3.15578 -8.52204,-3.39968 -11.06003,2.08204 z"
     id="path276" />
  <path
     style="fill:#5d5863;stroke:none;stroke-width:0.294226"
     d="m 441.19603,225.3719 v 0.29744 h 0.87317 z"
     id="path277" />
  <path
     style="fill:#cf7874;stroke:none;stroke-width:0.294226"
     d="m 445.85288,225.3719 v 0.29744 h 2.03737 z"
     id="path278" />
  <path
     style="fill:#c7bfd7;stroke:none;stroke-width:0.294226"
     d="m 483.10773,225.3719 v 0.29744 l 11.64215,4.80059 8.14949,3.23013 0.29106,-0.89231 c -6.1325,-2.92972 -13.39137,-6.25801 -20.0827,-7.43585 z"
     id="path279" />
  <path
     style="fill:#3b383e;stroke:none;stroke-width:0.294226"
     d="m 441.48708,225.96677 v 0.29744 c 0.79457,0.48779 0.54136,0.79415 1.16422,0 l 0.29105,1.18973 c 0.30559,-1.14214 -0.45986,-1.40686 -1.45527,-1.48717 z"
     id="path281" />
  <path
     style="fill:#b3a8c8;stroke:none;stroke-width:0.294226"
     d="m 441.19603,226.26421 v 0.8923 h 0.87317 v -0.8923 z"
     id="path282" />
  <path
     style="fill:#161617;stroke:none;stroke-width:0.294226"
     d="m 442.36024,226.26421 -0.58211,1.48717 z"
     id="path283" />
  <path
     style="fill:#e78377;stroke:none;stroke-width:0.294226"
     d="m 472.82481,226.36236 0.1921,0.10114 z"
     id="path284" />
  <path
     style="fill:#161617;stroke:none;stroke-width:0.294226"
     d="m 443.2334,226.56164 -0.5821,1.7846 h 1.74631 l -0.58211,-0.8923 0.58211,-0.8923 z"
     id="path285" />
  <path
     style="fill:#f6f5f9;stroke:none;stroke-width:0.294226"
     d="m 475.83139,227.45394 -3.20159,2.67691 1.16422,-3.27177 c -3.99908,-0.6038 -1.92678,7.02539 1.27191,2.36757 0.39582,-0.57703 0.59375,-1.1005 0.76546,-1.77271 z"
     id="path286" />
  <path
     style="fill:#c7bfd7;stroke:none;stroke-width:0.294226"
     d="m 389.3885,241.1359 0.29105,0.29744 5.53003,-5.22889 11.64213,-8.45307 v -0.59487 l -0.29105,-0.29743 c -5.70174,1.6805 -14.70111,8.7624 -17.17216,14.27682 z"
     id="path287" />
  <path
     style="fill:#5d5863;stroke:none;stroke-width:0.294226"
     d="m 444.39761,226.85908 -0.58211,0.29743 v 0.29743 z"
     id="path288" />
  <path
     style="fill:#161617;stroke:none;stroke-width:0.294226"
     d="m 444.97972,227.15651 c 0.0961,1.03506 -0.31142,2.1207 0.87316,2.37947 l -0.5821,-1.18974 1.16421,-0.29742 -0.29105,-1.18974 z"
     id="path289" />
  <path
     style="fill:#736a95;stroke:none;stroke-width:0.294226"
     d="m 420.53123,229.53598 v -0.29743 l 2.32843,-1.18973 c -2.47978,-2.15343 -7.68673,2.59659 -4.88097,5.22889 3.30636,3.10521 6.67095,-3.0844 2.55254,-3.74173 z"
     id="path290" />
  <path
     style="fill:#5d5863;stroke:none;stroke-width:0.294226"
     d="m 441.48708,227.15651 -0.5821,0.29743 v 0.29744 z"
     id="path291" />
  <path
     style="fill:#e98d81;stroke:none;stroke-width:0.294226"
     d="m 475.92745,227.65323 0.099,0.19631 z"
     id="path292" />
  <path
     style="fill:#726b79;stroke:none;stroke-width:0.294226"
     d="m 441.97314,227.84954 0.19209,0.10114 z"
     id="path293" />
  <path
     style="fill:#67606c;stroke:none;stroke-width:0.294226"
     d="m 443.42841,227.84954 0.1921,0.10114 z"
     id="path294" />
  <path
     style="fill:#27808b;stroke:none;stroke-width:0.294226"
     d="m 481.36142,235.48466 2.03737,0.59487 -2.32844,2.67691 v 0.89231 l -2.03737,-0.59488 c -0.48023,0.82686 -1.32719,1.87978 -0.93428,2.90593 0.36673,0.96666 1.83946,1.24923 2.68061,1.59722 2.48268,1.02913 5.27388,2.79291 7.37238,0.24389 2.08685,-2.5371 3.82735,-5.55904 5.62898,-8.31625 0.66069,-1.01425 1.8511,-2.30511 1.96752,-3.56325 0.18918,-2.02553 -7.27925,-4.66674 -8.83057,-3.81907 -2.38081,1.2998 -3.76041,5.34193 -5.5562,7.38232 z"
     id="path295" />
  <path
     style="fill:#161617;stroke:none;stroke-width:0.294226"
     d="m 447.59921,230.13085 v -0.29743 l -0.87317,-0.59487 1.45528,0.29743 c -0.45114,-2.65311 -3.18995,0.14872 -0.58211,0.59487 z"
     id="path296" />
  <path
     style="fill:#5d5863;stroke:none;stroke-width:0.294226"
     d="m 444.68867,228.34624 v 0.89231 h 0.29105 l -0.29105,-0.89231 m 0.67815,0.19929 0.099,0.1963 z"
     id="path297" />
  <path
     style="fill:#736a95;stroke:none;stroke-width:0.294226"
     d="m 425.18808,228.64369 -0.29105,1.48716 2.61948,0.8923 -4.65685,3.5692 v 0.59488 c 2.56126,0.93394 5.57658,-2.70368 7.56739,-4.16408 z"
     id="path298" />
  <path
     style="fill:#726b79;stroke:none;stroke-width:0.294226"
     d="m 447.01711,228.64369 0.5821,0.59486 v -0.59486 z"
     id="path299" />
  <path
     style="fill:#161617;stroke:none;stroke-width:0.294226"
     d="m 448.76342,228.94111 -0.5821,1.78461 1.74632,-1.18974 z"
     id="path300" />
  <path
     style="fill:#4b484f;stroke:none;stroke-width:0.294226"
     d="m 446.72604,229.23855 v 0.59487 l 0.58211,-0.59487 z"
     id="path301" />
  <path
     style="fill:#eb998c;stroke:none;stroke-width:0.294226"
     d="m 470.97954,229.43784 0.099,0.1963 z"
     id="path302" />
  <path
     style="fill:#e98d81;stroke:none;stroke-width:0.294226"
     d="m 475.44429,229.3367 0.19209,0.10115 z"
     id="path303" />
  <path
     style="fill:#a89db8;stroke:none;stroke-width:0.294226"
     d="m 447.2121,229.63414 0.1921,0.10114 z"
     id="path304" />
  <path
     style="fill:#7b7383;stroke:none;stroke-width:0.294226"
     d="m 447.59921,229.53598 -0.87317,0.59487 v 0.29744 l 1.45528,-0.89231 z"
     id="path305" />
  <path
     style="fill:#555058;stroke:none;stroke-width:0.294226"
     d="m 449.54053,229.63414 0.1921,0.10114 z"
     id="path306" />
  <path
     style="fill:#5d5863;stroke:none;stroke-width:0.294226"
     d="m 450.21869,229.53598 v 0.29744 h 0.87315 z"
     id="path307" />
  <path
     style="fill:#e4a262;stroke:none;stroke-width:0.294226"
     d="m 457.20397,229.53598 1.1642,1.18974 z"
     id="path308" />
  <path
     style="fill:#f6f5f9;stroke:none;stroke-width:0.294226"
     d="m 474.37613,231.61803 1.45526,-1.18974 h 0.29106 l -0.58211,1.48716 0.87316,0.29744 0.87317,-2.37947 c -1.64155,-0.29149 -2.50306,0.0475 -2.91054,1.78461 z"
     id="path309" />
  <path
     style="fill:#161617;stroke:none;stroke-width:0.294226"
     d="m 450.80079,231.61803 v -0.29745 l -0.87315,-0.29743 v -0.59486 l 0.29105,-0.29744 1.45526,0.29744 c -1.42033,-1.08266 -2.6515,0.58593 -0.87316,1.18974 z"
     id="path310" />
  <path
     style="fill:#eb998c;stroke:none;stroke-width:0.294226"
     d="m 472.82481,229.93157 0.1921,0.10114 z"
     id="path311" />
  <path
     style="fill:#717ba3;stroke:none;stroke-width:0.294226"
     d="m 477.28667,230.13085 v 1.18973 h 0.29104 l -0.29104,-1.18973 m 1.06815,0.0982 0.1921,0.10115 z"
     id="path312" />
  <path
     style="fill:#b3a8c8;stroke:none;stroke-width:0.294226"
     d="m 419.25351,230.74058 c -0.94593,0.72278 0.1688,2.38246 1.18166,1.57344 1.03908,-0.83281 -0.1979,-2.32891 -1.18166,-1.57344 z"
     id="path313" />
  <path
     style="fill:#5d5863;stroke:none;stroke-width:0.294226"
     d="m 450.02368,230.62757 0.099,0.19631 z"
     id="path314" />
  <path
     style="fill:#161617;stroke:none;stroke-width:0.294226"
     d="m 453.12922,232.80775 0.58211,-1.7846 c -2.17999,-0.87445 -2.82904,1.16594 -0.58211,1.7846 z"
     id="path315" />
  <path
     style="fill:#834b69;stroke:none;stroke-width:0.294226"
     d="m 475.83139,230.42829 -0.29105,0.89229 z"
     id="path316" />
  <path
     style="fill:#9fa2c0;stroke:none;stroke-width:0.294226"
     d="m 477.57771,230.72572 1.16422,0.59486 z"
     id="path317" />
  <path
     style="fill:#f6f5f9;stroke:none;stroke-width:0.294226"
     d="m 478.35482,230.52644 0.1921,0.10114 z"
     id="path318" />
  <path
     style="fill:#b3a8c8;stroke:none;stroke-width:0.294226"
     d="m 451.96501,231.02315 v 1.18974 l 0.87315,-1.18974 z"
     id="path319" />
  <path
     style="fill:#e98d81;stroke:none;stroke-width:0.294226"
     d="m 474.18112,231.22243 0.099,0.19632 z"
     id="path320" />
  <path
     style="fill:#244e81;stroke:none;stroke-width:0.294226"
     d="m 476.9956,231.02315 -1.16421,1.18974 v -0.89231 c -1.42907,0.93693 -5.49217,6.2015 -4.55207,7.96529 0.8819,1.65373 5.17784,2.63824 6.88051,3.03978 l 0.87315,-3.56921 -2.03738,-0.59487 v -1.78461 h 0.87317 c 0.65196,-2.24562 2.34589,-1.06183 4.07474,-1.18973 l 0.58211,-2.37948 -1.1642,1.48718 -0.87317,-0.89231 c -1.15258,0.12492 -1.76087,-0.14574 -2.32842,-1.18973 l -1.45527,0.29743 z"
     id="path321" />
  <path
     style="fill:#f6f5f9;stroke:none;stroke-width:0.294226"
     d="m 476.70456,232.51032 c 1.0798,-0.0475 1.39123,-0.46401 1.74632,-1.48717 z"
     id="path322" />
  <path
     style="fill:#b9bcd3;stroke:none;stroke-width:0.294226"
     d="m 479.32404,231.02315 v 0.29743 h 0.87317 z"
     id="path323" />
  <path
     style="fill:#5d5863;stroke:none;stroke-width:0.294226"
     d="m 450.80079,231.32058 -0.87315,0.29745 v 0.29742 z"
     id="path324" />
  <path
     style="fill:#4b484f;stroke:none;stroke-width:0.294226"
     d="m 451.77,231.51987 0.099,0.1963 z"
     id="path325" />
  <path
     style="fill:#161617;stroke:none;stroke-width:0.294226"
     d="m 454.00238,231.32058 -0.58211,1.78461 1.74632,-0.8923 z"
     id="path326" />
  <path
     style="fill:#66739c;stroke:none;stroke-width:0.294226"
     d="m 478.45088,231.32058 -0.29105,1.78461 h 0.29105 l 0.5821,-1.78461 z"
     id="path327" />
  <path
     style="fill:#f6f5f9;stroke:none;stroke-width:0.294226"
     d="m 480.77931,233.10519 -0.29106,0.89229 0.87317,0.29745 1.1642,-1.48718 -0.58211,1.7846 c 1.10601,-0.34799 1.47856,-0.9488 1.74633,-2.08203 l -2.03737,-0.59487 -0.58212,1.18974 c -0.55591,-4.12838 -4.40945,1.19866 -0.29104,0 z"
     id="path328" />
  <path
     style="fill:#244e81;stroke:none;stroke-width:0.294226"
     d="m 479.90614,231.61803 -0.5821,1.18972 z"
     id="path329" />
  <path
     style="fill:#5c6b97;stroke:none;stroke-width:0.294226"
     d="m 481.07035,231.61803 -0.29104,1.48716 h 0.29104 z"
     id="path330" />
  <path
     style="fill:#f6f5f9;stroke:none;stroke-width:0.294226"
     d="m 483.39879,235.18723 3.78369,-0.8923 -0.87316,2.08203 2.03737,0.59487 1.16423,-2.08204 -2.32844,-0.59486 c 0.72473,-1.40687 -0.11934,-3.36993 -1.94133,-2.35865 -1.07399,0.59487 -1.62699,2.11178 -1.84236,3.25095 z"
     id="path331" />
  <path
     style="fill:#202022;stroke:none;stroke-width:0.294226"
     d="m 456.91292,231.91545 c -0.46278,0.33313 -3.63817,1.54071 -1.16422,2.08203 l -0.29104,-1.18973 h 0.87314 l -0.29104,1.48718 1.45527,-2.37948 z"
     id="path332" />
  <path
     style="fill:#717ba3;stroke:none;stroke-width:0.294226"
     d="m 482.42958,232.01361 0.19209,0.10114 z"
     id="path333" />
  <path
     style="fill:#b9bcd3;stroke:none;stroke-width:0.294226"
     d="m 482.52562,232.21289 v 0.29743 h 0.87317 z"
     id="path334" />
  <path
     style="fill:#27808b;stroke:none;stroke-width:0.294226"
     d="m 485.72722,232.51032 -0.29106,1.18974 1.16422,-1.18974 z"
     id="path335" />
  <path
     style="fill:#92afb8;stroke:none;stroke-width:0.294226"
     d="m 487.76459,232.51032 v 0.8923 h 0.29106 z"
     id="path336" />
  <path
     style="fill:#b3a8c8;stroke:none;stroke-width:0.294226"
     d="m 455.45766,232.80775 v 0.89231 h 0.87314 v -0.89231 z"
     id="path337" />
  <path
     style="fill:#736a95;stroke:none;stroke-width:0.294226"
     d="m 434.21075,236.07953 c -5.67846,1.68347 3.68763,7.39718 3.00657,2.09393 -0.0612,-0.47292 -0.42493,-0.83876 -0.67816,-1.20163 5.42234,-0.9161 -4.10384,-7.28713 -2.32841,-0.8923 z"
     id="path338" />
  <path
     style="fill:#7d84a9;stroke:none;stroke-width:0.294226"
     d="m 480.5843,233.30447 0.099,0.19631 z"
     id="path339" />
  <path
     style="fill:#878daf;stroke:none;stroke-width:0.294226"
     d="m 479.03298,233.40262 v 0.29744 h 1.16423 z"
     id="path340" />
  <path
     style="fill:#8875a4;stroke:none;stroke-width:0.294226"
     d="m 371.34318,233.70006 -1.16421,2.97434 40.74749,17.38501 8.14951,3.50377 3.71965,1.18379 1.51931,-2.73936 c -12.25335,-5.13669 -24.40484,-10.53809 -36.67275,-15.64503 -5.10216,-2.12665 -10.84756,-5.82674 -16.299,-6.66252 z"
     id="path341" />
  <path
     style="fill:#555058;stroke:none;stroke-width:0.294226"
     d="m 455.7487,233.70006 -0.58211,0.29742 v 0.29745 z"
     id="path342" />
  <path
     style="fill:#4b484f;stroke:none;stroke-width:0.294226"
     d="m 456.23477,234.39308 0.19209,0.10114 z"
     id="path343" />
  <path
     style="fill:#92afb8;stroke:none;stroke-width:0.294226"
     d="m 485.43616,234.29493 v 0.29742 h 1.74632 z"
     id="path344" />
  <path
     style="fill:#b3a8c8;stroke:none;stroke-width:0.294226"
     d="m 435.0839,234.88979 c 1.09437,2.01364 2.27023,-0.52943 0,0 z"
     id="path345" />
  <path
     style="fill:#161617;stroke:none;stroke-width:0.294226"
     d="m 456.91292,234.59235 0.29105,0.29744 z"
     id="path346" />
  <path
     style="fill:#f6f5f9;stroke:none;stroke-width:0.294226"
     d="m 477.86877,236.37696 h -0.87317 v 1.78461 h 1.45528 l -0.58211,-0.8923 h 1.16421 c -0.27067,1.64481 0.82659,2.21588 2.32844,2.08203 l -0.58211,-0.8923 h 1.1642 v -0.29743 l -1.1642,-0.29743 v -0.29745 c 1.42907,0.22309 2.1276,-0.0566 2.61948,-1.48716 l -4.65686,-0.29744 v -0.29743 h 1.74632 c -1.13511,-1.21354 -2.36335,-0.71384 -2.61948,0.8923 z"
     id="path347" />
  <path
     style="fill:#aabec6;stroke:none;stroke-width:0.294226"
     d="m 483.20378,234.79163 0.099,0.19631 -0.099,-0.19631 m 5.33792,-0.10114 0.1921,0.10114 z"
     id="path348" />
  <path
     style="fill:#27808b;stroke:none;stroke-width:0.294226"
     d="m 487.76459,234.88979 -0.58211,1.18974 z"
     id="path349" />
  <path
     style="fill:#abaec9;stroke:none;stroke-width:0.294226"
     d="m 480.97431,235.28538 0.1921,0.10114 z"
     id="path350" />
  <path
     style="fill:#f6f5f9;stroke:none;stroke-width:0.294226"
     d="m 489.80196,235.18723 c -0.43949,1.53772 -0.95756,2.44193 -2.32842,3.27177 -0.78294,-3.75659 -4.87806,-0.0416 -5.82107,1.48717 1.57459,0.58297 2.75336,1.43959 4.36579,0.59487 v 1.18974 h 0.58212 v -1.48717 l 0.87316,0.29743 -0.29106,-0.89229 h 1.16421 l -0.29104,-0.89231 4.07474,-2.97435 -1.74633,0.59487 0.29107,-1.18973 z"
     id="path351" />
  <path
     style="fill:#244e81;stroke:none;stroke-width:0.294226"
     d="m 478.93694,235.58281 0.19209,0.10114 z"
     id="path352" />
  <path
     style="fill:#9498b8;stroke:none;stroke-width:0.294226"
     d="m 479.32404,235.48466 v 0.59487 l 0.5821,-0.59487 z"
     id="path353" />
  <path
     style="fill:#9fa2c0;stroke:none;stroke-width:0.294226"
     d="m 480.19721,235.48466 v 0.59487 l 0.5821,-0.59487 z"
     id="path354" />
  <path
     style="fill:#736a95;stroke:none;stroke-width:0.294226"
     d="m 440.90498,240.83847 -1.74632,0.89231 v 0.59487 c 2.7097,0.57701 7.90209,-3.59005 4.33378,-5.92192 -3.34129,-2.18614 -5.47472,2.05824 -2.58746,4.43474 z"
     id="path355" />
  <path
     style="fill:#ce797d;stroke:none;stroke-width:0.294226"
     d="m 465.06242,235.78209 v 0.89231 h 0.29105 z"
     id="path356" />
  <path
     style="fill:#445c8b;stroke:none;stroke-width:0.294226"
     d="m 479.6151,235.78209 0.58211,0.59487 v -0.59487 z"
     id="path357" />
  <path
     style="fill:#b6c5cd;stroke:none;stroke-width:0.294226"
     d="m 490.48012,235.98138 0.099,0.1963 z"
     id="path358" />
  <path
     style="fill:#4d8a95;stroke:none;stroke-width:0.294226"
     d="m 481.26536,236.17768 0.1921,0.10114 z"
     id="path359" />
  <path
     style="fill:#b6c5cd;stroke:none;stroke-width:0.294226"
     d="m 481.65247,236.07953 0.87315,0.59487 v -0.29744 z"
     id="path360" />
  <path
     style="fill:#8875a4;stroke:none;stroke-width:0.294226"
     d="m 401.32169,236.37696 c -2.17999,3.83393 1.68229,4.3931 4.65686,5.64828 6.54288,2.76017 13.99385,7.40313 20.95586,8.62855 l 0.40165,-3.25095 -7.96904,-3.53055 z"
     id="path361" />
  <path
     style="fill:#66739c;stroke:none;stroke-width:0.294226"
     d="m 478.74193,236.37696 0.87317,0.59487 z"
     id="path362" />
  <path
     style="fill:#abaec9;stroke:none;stroke-width:0.294226"
     d="m 479.32404,236.37696 0.5821,0.59487 v -0.59487 z"
     id="path363" />
  <path
     style="fill:#9db6bf;stroke:none;stroke-width:0.294226"
     d="m 486.79538,236.47512 0.19209,0.10114 z"
     id="path364" />
  <path
     style="fill:#92afb8;stroke:none;stroke-width:0.294226"
     d="m 489.31591,236.57624 0.099,0.1963 z"
     id="path365" />
  <path
     style="fill:#87a8b2;stroke:none;stroke-width:0.294226"
     d="m 481.07035,236.97183 v 0.29744 h 0.87316 z"
     id="path366" />
  <path
     style="fill:#aabec6;stroke:none;stroke-width:0.294226"
     d="m 485.14511,236.97183 v 0.29744 h 0.87315 z"
     id="path367" />
  <path
     style="fill:#b3a8c8;stroke:none;stroke-width:0.294226"
     d="m 435.66602,237.26927 c -2.77958,0.22009 -0.2154,2.84049 0,0 m 5.74829,0.3123 c -0.9139,0.71384 0.0815,2.37352 1.11184,1.74297 1.17876,-0.7198 -0.0612,-2.56984 -1.11184,-1.74297 z"
     id="path368" />
  <path
     style="fill:#244e81;stroke:none;stroke-width:0.294226"
     d="m 477.86877,237.26927 c 0.45986,0.63948 0.71599,0.64542 1.16421,0 z"
     id="path369" />
  <path
     style="fill:#92afb8;stroke:none;stroke-width:0.294226"
     d="m 480.29324,237.76598 0.099,0.19631 z"
     id="path370" />
  <path
     style="fill:#cdd6dd;stroke:none;stroke-width:0.294226"
     d="m 480.77931,237.56669 v 0.29745 l 1.45526,0.59486 z"
     id="path371" />
  <path
     style="fill:#27808b;stroke:none;stroke-width:0.294226"
     d="m 484.75801,237.66485 0.19209,0.10115 -0.19209,-0.10115 m -4.85187,0.19929 -0.29104,0.59486 h 0.58211 z"
     id="path372" />
  <path
     style="fill:#4d8a95;stroke:none;stroke-width:0.294226"
     d="m 486.01826,237.86414 -0.29104,0.59486 h 0.5821 z"
     id="path373" />
  <path
     style="fill:#9fa2c0;stroke:none;stroke-width:0.294226"
     d="m 478.15983,238.16157 0.5821,0.59487 v -0.59487 z"
     id="path374" />
  <path
     style="fill:#7ba0ab;stroke:none;stroke-width:0.294226"
     d="m 487.66854,238.25972 0.1921,0.10114 z"
     id="path375" />
  <path
     style="fill:#736a95;stroke:none;stroke-width:0.294226"
     d="m 447.60211,238.65829 c -3.32092,0.9845 -3.61779,7.92958 0.57921,6.80826 3.44607,-0.91908 3.47227,-8.00693 -0.57921,-6.80826 z"
     id="path376" />
  <path
     style="fill:#b6c5cd;stroke:none;stroke-width:0.294226"
     d="m 480.77931,239.05387 1.1642,-0.29743 z"
     id="path377" />
  <path
     style="fill:#5b8f9a;stroke:none;stroke-width:0.294226"
     d="m 484.1759,238.55715 0.1921,0.10115 z"
     id="path378" />
  <path
     style="fill:#4d8a95;stroke:none;stroke-width:0.294226"
     d="m 485.14511,239.05387 v 0.29743 h 1.16421 z"
     id="path380" />
  <path
     style="fill:#b6c5cd;stroke:none;stroke-width:0.294226"
     d="m 488.25066,238.8546 0.19209,0.10114 z"
     id="path381" />
  <path
     style="fill:#aabec6;stroke:none;stroke-width:0.294226"
     d="m 479.8101,239.15202 0.1921,0.10114 z"
     id="path382" />
  <path
     style="fill:#27808b;stroke:none;stroke-width:0.294226"
     d="m 483.10773,239.3513 v 0.29745 h 0.87316 l -0.87316,-0.29745 m 1.74632,0 -0.29104,1.18974 z"
     id="path383" />
  <path
     style="fill:#b3a8c8;stroke:none;stroke-width:0.294226"
     d="m 447.93974,240.27038 c -1.45527,0.74655 -1.92387,4.76489 0.14261,3.52756 1.10601,-0.6603 1.78998,-4.51802 -0.14261,-3.52756 z"
     id="path384" />
  <path
     style="fill:#aabec6;stroke:none;stroke-width:0.294226"
     d="m 487.56958,240.14545 0.099,0.1963 z"
     id="path385" />
  <path
     style="fill:#7ba0ab;stroke:none;stroke-width:0.294226"
     d="m 486.60038,240.24361 v 1.48717 h 0.29105 l 0.29105,-1.48717 z"
     id="path386" />
  <path
     style="fill:#c2cfd6;stroke:none;stroke-width:0.294226"
     d="m 485.72722,240.54104 v 1.18974 h 0.29104 z"
     id="path387" />
  <path
     style="fill:#736a95;stroke:none;stroke-width:0.294226"
     d="m 453.12922,247.97689 2.32844,-6.54355 c -0.58212,-0.18738 -1.55132,-0.6722 -2.13635,-0.27364 -0.52681,0.35692 -0.16589,1.51394 -0.29978,2.07015 -0.39001,1.62994 -2.40702,4.18488 0.10769,4.74704 z"
     id="path388" />
  <path
     style="fill:#c7bfd7;stroke:none;stroke-width:0.294226"
     d="m 385.31376,243.21795 -3.49264,7.73328 c 2.69806,0.57106 5.09343,-4.64889 6.11211,-6.84099 z"
     id="path389" />
  <path
     style="fill:#736a95;stroke:none;stroke-width:0.294226"
     d="m 460.69661,246.48972 c 0.57338,0.10413 1.99373,-0.15168 2.40119,0.25579 1.26319,1.27004 -3.75458,3.21229 -4.43856,3.61085 l 4.94791,2.08204 0.29106,-1.18975 -1.74633,-1.18973 c 0.69853,-0.1963 1.4087,-0.39558 2.00536,-0.83877 3.48392,-2.57873 -2.29059,-6.75471 -3.46063,-2.73043 m 6.40318,2.37947 2.35171,0.48482 -1.20496,3.32234 -2.60202,-1.72512 c 0.0524,2.17424 1.96461,4.86305 4.29886,3.05167 0.81496,-0.63353 1.55423,-3.21229 1.62117,-4.2414 0.17755,-2.64123 -3.46354,-2.84347 -4.46476,-0.89231 z"
     id="path391" />
  <path
     style="fill:#e9c7b9;stroke:none;stroke-width:0.294226"
     d="m 118.99978,249.16662 v 1.78461 h 0.29106 z"
     id="path392" />
  <path
     style="fill:#ffffff;stroke:none;stroke-width:0.294226"
     d="m 435.95706,250.35636 c 1.93552,3.64654 0.51517,5.9338 -0.47442,9.81532 -0.29105,1.14513 -1.23115,2.92378 -0.79457,4.10162 0.57629,1.54665 2.98329,1.85301 4.17953,1.10347 3.58869,-2.25157 8.41727,-5.73452 11.06004,-9.07172 -4.78202,-2.28431 -6.9038,1.5526 -10.76898,4.16406 l 1.99954,-7.58456 z"
     id="path393" />
  <path
     style="fill:#736a95;stroke:none;stroke-width:0.294226"
     d="m 474.37613,255.71017 -0.29106,1.48717 1.45527,0.59486 1.74633,-2.37946 c -0.68108,-1.27897 0.39291,-2.89702 0.87316,-4.16409 -2.91345,-1.05885 -9.09543,3.17066 -3.7837,4.46152 z"
     id="path394" />
  <path
     style="fill:#b3a8c8;stroke:none;stroke-width:0.294226"
     d="m 473.79402,253.62813 v 0.59487 l 1.45527,0.29744 0.5821,-1.78461 z"
     id="path397" />
  <path
     style="fill:#736a95;stroke:none;stroke-width:0.294226"
     d="m 479.32404,256.00761 c 3.12592,0.35692 1.64736,3.48294 -0.29106,0.89229 h -0.5821 c -1.20787,5.97843 9.32535,0.81795 2.91054,-1.78459 v -0.29744 l 2.61947,0.29744 0.58212,-1.18974 c -2.74173,-1.1481 -3.99908,-0.93097 -5.23897,2.08204 z"
     id="path398" />
  <path
     style="fill:#a4a788;stroke:none;stroke-width:0.294226"
     d="m 204.86057,253.03326 v 4.46151 h 0.29106 z"
     id="path399" />
  <path
     style="fill:#ffffff;stroke:none;stroke-width:0.294226"
     d="m 442.94235,268.2024 3.49264,1.48717 8.7316,-11.30249 -3.19867,-0.94584 -2.79412,2.73044 z"
     id="path402" />
  <path
     style="fill:#ffffff;stroke:none;stroke-width:0.294226"
     d="m 451.67395,267.60753 -2.61948,1.48717 c 1.18168,4.29792 10.17815,7.28118 11.48498,1.48717 0.42203,-1.87086 -3.03861,-5.8654 -1.97917,-6.93022 1.17294,-1.18378 2.70971,1.15406 3.64108,1.50502 0.91391,0.34503 2.04029,-0.47291 2.86106,-0.82091 -1.7667,-3.12008 -8.49876,-6.82017 -10.51868,-1.7846 -1.1875,2.96243 1.92095,4.31576 1.94714,6.82312 0.0233,2.03743 -2.6806,0.5562 -3.35002,-0.0445 -0.56464,-0.50862 -1.00995,-1.1124 -1.46691,-1.72215 z"
     id="path404" />
  <path
     style="fill:#9cb79f;stroke:none;stroke-width:0.294226"
     d="m 249.97387,260.76655 v 0.29743 h 0.87315 z"
     id="path407" />
  <path
     style="fill:#abc2ad;stroke:none;stroke-width:0.294226"
     d="m 253.9517,260.8647 0.19384,0.10114 z"
     id="path408" />
  <path
     style="fill:#8eaf94;stroke:none;stroke-width:0.294226"
     d="m 248.22755,261.06398 v 0.29744 h 0.87316 z"
     id="path409" />
  <path
     style="fill:#80a689;stroke:none;stroke-width:0.294226"
     d="m 246.48123,261.36142 v 0.29743 h 0.87316 z"
     id="path410" />
  <path
     style="fill:#8eaf94;stroke:none;stroke-width:0.294226"
     d="m 257.54126,261.36142 v 0.29743 h 0.87317 z"
     id="path411" />
  <path
     style="fill:#9cb79f;stroke:none;stroke-width:0.294226"
     d="m 243.27964,261.95629 v 0.29742 h 0.87316 z"
     id="path413" />
  <path
     style="fill:#8eaf94;stroke:none;stroke-width:0.294226"
     d="m 241.53332,262.25371 v 0.29745 h 0.87315 z"
     id="path414" />
  <path
     style="fill:#80a689;stroke:none;stroke-width:0.294226"
     d="m 239.787,262.55116 v 0.29742 h 0.87315 z"
     id="path415" />
  <path
     style="fill:#9cb79f;stroke:none;stroke-width:0.294226"
     d="m 236.58541,263.14602 v 0.29744 h 0.87315 z"
     id="path417" />
  <path
     style="fill:#8eaf94;stroke:none;stroke-width:0.294226"
     d="m 234.83909,263.44346 v 0.29743 h 0.87316 z"
     id="path418" />
  <path
     style="fill:#80a689;stroke:none;stroke-width:0.294226"
     d="m 233.09276,263.74089 v 0.29743 h 0.87316 z"
     id="path419" />
  <path
     style="fill:#9cb79f;stroke:none;stroke-width:0.294226"
     d="m 229.89118,264.33576 v 0.29743 h 0.87316 z"
     id="path420" />
  <path
     style="fill:#8eaf94;stroke:none;stroke-width:0.294226"
     d="m 228.14486,264.63319 v 0.29743 h 0.87315 z"
     id="path422" />
  <path
     style="fill:#80a689;stroke:none;stroke-width:0.294226"
     d="m 226.39854,264.93062 v 0.29744 h 0.87315 z"
     id="path423" />
  <path
     style="fill:#ffffff;stroke:none;stroke-width:0.294226"
     d="m 458.65924,274.74594 c 2.67769,2.25752 4.40654,0.0505 6.98528,1.07076 2.5933,1.02616 2.20619,3.43537 5.23897,4.28306 l 4.07474,-13.08709 -4.3658,-1.62995 -3.78369,2.5966 z"
     id="path424" />
  <path
     style="fill:#9cb79f;stroke:none;stroke-width:0.294226"
     d="m 223.39107,265.62365 0.19385,0.10114 z"
     id="path425" />
  <path
     style="fill:#8eaf94;stroke:none;stroke-width:0.294226"
     d="m 221.45063,265.82292 v 0.29744 h 0.87316 z"
     id="path427" />
  <path
     style="fill:#80a689;stroke:none;stroke-width:0.294226"
     d="m 219.7043,266.12036 v 0.29744 h 0.87316 z"
     id="path428" />
  <path
     style="fill:#9cb79f;stroke:none;stroke-width:0.294226"
     d="m 214.75639,267.01267 v 0.29742 h 0.87316 z"
     id="path429" />
  <path
     style="fill:#8eaf94;stroke:none;stroke-width:0.294226"
     d="m 213.01008,267.31009 v 0.29744 h 0.87316 z"
     id="path431" />
  <path
     style="fill:#00adee;fill-opacity:1;stroke:none;stroke-width:0.294226"
     d="m 488.9288,267.31009 c -0.87898,3.14388 -2.4041,6.2134 -3.66145,9.22046 -1.659,3.97371 -2.80284,9.38106 -6.52542,11.86465 -1.26899,0.84767 -2.66022,0.96367 -4.07476,1.39198 -1.3563,0.41049 -2.61947,1.08563 -4.07474,0.96369 -5.87637,-0.49672 -11.53445,-5.13669 -17.17216,-6.78448 2.83777,2.92973 7.46262,4.91064 10.76898,7.40019 8.08548,6.09145 15.96139,12.50412 23.8664,18.83649 3.03569,2.43004 8.96153,8.53041 13.0974,8.16457 3.91759,-0.34804 7.74202,-3.34316 10.76898,-5.66315 0.97793,-0.74953 2.59037,-1.6448 3.01532,-2.88808 0.58792,-1.71916 -0.44823,-4.73814 -0.68689,-6.51681 -0.56173,-4.18487 -1.28064,-8.32219 -1.91514,-12.49222 -0.32306,-2.13854 -0.47732,-4.90469 -1.48436,-6.82909 -1.16713,-2.22777 -3.98453,-3.84879 -5.91421,-5.32704 -4.6976,-3.60193 -10.41681,-9.4465 -16.00795,-11.34116 z"
     id="path432" />
  <path
     style="fill:#efedf4;stroke:none;stroke-width:0.294226"
     d="m 476.18939,268.13101 c -1.49602,0.64246 -0.41038,2.87322 1.03615,2.26646 1.55132,-0.65436 0.50935,-2.92973 -1.03615,-2.26646 z"
     id="path433" />
  <path
     style="fill:#a5baa4;stroke:none;stroke-width:0.294226"
     d="m 208.54735,268.30055 0.19384,0.10114 z"
     id="path434" />
  <path
     style="fill:#b3a8c8;stroke:none;stroke-width:0.294226"
     d="m 470.59243,268.79727 -4.36581,4.4615 2.91054,0.8923 1.45527,-5.3538 m 6.69424,0.29743 -0.29107,0.89231 z"
     id="path436" />
  <path
     style="fill:#bbb2c5;stroke:none;stroke-width:0.294226"
     d="m 469.71926,290.50994 v 0.29744 h 2.6195 z"
     id="path464" />
  <path
     style="fill:#f3dfd4;stroke:none;stroke-width:0.294226"
     d="m 121.61927,291.10481 v 6.84098 h 0.29105 z"
     id="path466" />
  <path
     style="fill:#eee7df;stroke:none;stroke-width:0.294226"
     d="m 623.39553,334.23273 v 61.86626 30.04084 h 0.29105 v -64.84061 -18.73834 z"
     id="path492" />
  <path
     style="fill:#dfd5cc;stroke:none;stroke-width:0.294226"
     d="m 623.68658,334.23273 v 62.46113 20.22552 c 0,3.03978 -0.48315,6.52867 -0.0233,9.51789 0.91973,5.97543 4.34834,12.37325 6.23146,18.14346 6.04518,18.53312 13.72025,36.51597 20.62404,54.72786 4.70344,12.41192 9.5029,24.79112 14.26454,37.17925 1.18169,3.07545 2.35172,6.1539 3.55086,9.22045 0.38128,0.97558 1.25223,3.51846 1.25223,3.51846 0,0 8.79881,-0.0256 11.72875,0.0508 l 27.76438,0.72247 c 11.07171,-0.16565 15.1693,-0.008 24.34737,-0.0948 1.92838,-0.0183 6.74973,-0.6379 11.44169,-6.16928 4.21142,-4.96489 5.05215,-9.69209 5.03854,-13.22468 -0.11476,-29.79933 -0.17331,-80.01822 -0.36639,-100.41935 l -3.2169,-0.2022 -4.46956,-0.18063 v 30.04083 H 728.46581 V 443.39102 H 717.69683 V 424.35525 H 685.3899 v 5.35381 h -7.85845 v 27.36392 h -5.53001 v -5.3538 H 661.23245 V 334.23275 Z"
     id="path493"
     sodipodi:nodetypes="ccsccccccscsssccccccccccccccccc" />
  <path
     style="fill:#dfd5cc;stroke:none;stroke-width:0.294226"
     d="m 247.06334,358.62232 v 8.32815 h -8.1495 v 27.36393 h -10.76898 v 8.03072 h -13.38847 v -8.03072 h -18.91848 v 5.3538 h -7.85844 v 38.07156 h -13.67951 v -19.03578 h -15.71689 l -22.66959,93.6917 -6.861,28.55366 -1.90319,8.03071 h 434.54289 c -4.81694,-20.43073 -7.03476,-41.58721 -11.25504,-62.1637 -1.89767,-9.25613 -5.11673,-18.55392 -7.66344,-27.66135 -1.61243,-5.76427 -3.46644,-12.15018 -3.79533,-18.14348 -0.0932,-1.73404 -0.86442,-4.28007 0.0641,-5.88622 1.05652,-1.82922 5.5795,-3.35801 7.515,-3.9291 -0.33761,-3.36398 -2.74173,-7.20384 -4.3658,-10.11275 -3.31219,-5.92488 -7.03476,-11.82895 -12.51531,-15.91569 -5.15746,-3.84582 -11.41802,-5.9338 -16.59004,-9.93132 -2.79702,-2.15937 -5.4689,-4.72623 -7.73039,-7.46559 -1.03031,-1.24625 -2.12468,-3.65844 -3.64689,-4.28305 -1.73468,-0.71086 -4.52298,-0.17846 -6.37698,-0.17846 h -14.26163 v 16.35886 h -16.29899 v 11.00506 h -13.38846 v -32.71774 h -7.85845 v -5.65124 h -28.52324 l -0.29978,6.84098 -3.46647,5.05638 -0.0174,19.63064 V 443.391 h -13.67951 v -54.72785 h -7.85845 v -13.38453 h -29.68745 v 10.70762 H 326.23 l -0.0932,14.57427 -3.64689,5.05637 -0.0437,18.73834 h -32.59799 v 5.35382 h -5.23896 v 41.04588 h -10.76895 v -112.1326 z"
     id="path512" />
  <path
     style="fill:#eee7df;stroke:none;stroke-width:0.294226"
     d="m 273.84025,358.62232 v 112.1326 h 0.29107 v -79.41486 -22.90241 z"
     id="path513" />
  <path
     style="fill:#eaebeb;stroke:none;stroke-width:0.294226"
     d="m 85.528634,374.98118 v 0.29744 h 11.642139 c -1.684617,3.68224 -2.960014,7.75708 -4.26568,11.59993 -0.365855,1.07671 -1.517552,3.23905 -0.938065,4.3455 0.651087,1.24328 3.149199,1.96604 4.330586,2.56984 3.754296,1.91845 7.552836,3.69115 11.351086,5.51145 11.58015,5.54713 23.1926,11.05265 34.92642,16.25179 4.58002,2.03147 10.40138,5.85647 15.42585,6.12119 l 3.39251,-11.89735 0.93806,-4.61024 -4.62164,-2.49844 -10.47792,-4.88089 -30.56062,-14.27684 -14.84373,-6.74877 0.29106,-1.78461 z"
     id="path521" />
  <path
     style="fill:#eee7df;stroke:none;stroke-width:0.294226"
     d="m 359.9921,374.98118 v 0.29744 h 29.68745 l -9.02266,-0.29744 z"
     id="path523" />
  <path
     style="fill:#dfd5cc;stroke:none;stroke-width:0.294226"
     d="m 85.528634,375.27862 v 5.35381 H 74.759654 V 394.3144 H 61.371192 v 57.70218 h 0.291053 c 2.372377,-7.12057 6.260853,-14.08647 9.532584,-20.82038 8.986861,-18.49742 19.494765,-36.34048 25.975944,-55.91758 z"
     id="path524" />
  <path
     style="fill:#eee7df;stroke:none;stroke-width:0.294226"
     d="M 410.92646,383.30934 V 443.391 h 0.29106 v -42.23563 -12.19479 z"
     id="path529" />
  <path
     style="fill:#eee7df;stroke:none;stroke-width:0.294226"
     d="M 397.538,388.66315 V 443.391 h 0.29105 v -38.36898 -11.00506 z"
     id="path532" />
  <path
     style="fill:#cc5354;stroke:none;stroke-width:0.294226"
     d="m 91.349704,391.34006 c -19.121052,36.71227 -36.466678,74.06106 -52.221986,112.43004 -4.270046,10.39828 -8.677469,20.74601 -12.742236,31.23055 -1.687033,4.35147 -4.720335,9.29482 -5.179675,13.9794 H 127.14929 l 5.27155,-21.71267 17.68908,-74.65593 7.30893,-30.93313 -18.62742,-7.93851 -32.88905,-15.35355 z"
     id="path534" />
  <path
     style="fill:#eee7df;stroke:none;stroke-width:0.294226"
     d="m 187.68842,399.6682 v 38.07156 h 0.29105 v -26.47163 c 0,-3.31936 0.96281,-8.54528 -0.29105,-11.59993 z"
     id="path536" />
  <path
     style="fill:#beb6aa;stroke:none;stroke-width:0.294226"
     d="m 550.3411,486.22149 h 0.29105 c 4.40073,-5.90106 11.00473,-10.80281 16.8811,-15.08288 14.3926,-10.48454 30.25501,-17.04 47.73278,-19.17557 5.5504,-0.68112 11.61595,-0.99937 17.17215,0.0536 -3.70219,-11.62966 -7.5441,-23.2623 -12.2679,-34.50233 -1.49602,-3.56327 -3.60906,-10.29419 -7.23268,-12.09962 -1.47855,-0.73763 -3.43733,-0.12789 -4.94791,0.24092 -3.56832,0.87446 -7.01148,2.07015 -10.47792,3.28367 -14.56141,5.09802 -28.79975,11.64157 -42.78487,18.1851 -3.88558,1.81734 -7.79732,3.58112 -11.64214,5.48172 -1.25444,0.62164 -3.52466,1.10645 -4.15043,2.51926 -1.53676,3.4889 0.61413,9.77666 1.26318,13.32207 2.29641,12.51305 5.70755,25.88271 10.16359,37.77412 z"
     id="path537" />
  <path
     style="fill:#f69e99;stroke:none;stroke-width:0.294226"
     d="m 148.39648,406.13739 c -3.70511,1.4039 -1.74544,7.27227 2.03272,5.75833 3.31597,-1.32953 1.43605,-7.07596 -2.03272,-5.75833 z"
     id="path538" />
  <path
     style="fill:#eee7df;stroke:none;stroke-width:0.294226"
     d="m 174.29996,418.70398 v 19.03578 h 0.29105 v -13.0871 z"
     id="path541" />
  <path
     style="fill:#dfd5cc;stroke:none;stroke-width:0.294226"
     d="m 29.064252,429.70904 v 8.03072 h -5.238964 v 35.69208 H 15.675791 V 446.0679 H 0.54100741 l -0.49870503,87.68851 c 0,0 1.76032732,7.37636 5.96543242,11.24345 4.2051042,3.86709 8.2999832,4.99122 10.7600222,4.9302 4.562044,-0.11338 2.522987,-0.0791 4.576277,-0.21321 L 35.925256,511.80128 60.498031,454.39649 H 47.98273 v -24.68702 z"
     id="path545"
     sodipodi:nodetypes="cccccccczscccccc" />
  <path
     style="fill:#eee7df;stroke:none;stroke-width:0.294226"
     d="m 677.24043,429.70904 v 27.36392 h 0.29105 v -19.03578 z"
     id="path546" />
  <path
     style="fill:#edca92;stroke:none;stroke-width:0.294226"
     d="m 669.67303,549.27749 c -1.75796,-7.57862 -5.67263,-15.04124 -8.42308,-22.30755 -6.46721,-17.09055 -13.03629,-34.14244 -19.69269,-51.15865 -2.31969,-5.93081 -4.47057,-11.93899 -6.85139,-17.84602 -0.64323,-1.59426 -1.23989,-5.27648 -2.90763,-6.02602 -1.26027,-0.56512 -2.9833,-0.1398 -4.32796,-0.27066 -4.24648,-0.41343 -8.3154,-0.22011 -12.51531,0.29445 -17.96091,2.19507 -34.22789,9.08958 -48.89698,20.02623 -3.78079,2.81967 -7.26179,5.93679 -10.76898,9.08958 -1.52513,1.37415 -3.99908,3.0963 -4.67141,5.14264 -0.82077,2.48953 0.95756,6.68037 1.34758,9.22045 1.23988,8.14672 2.9309,16.28451 4.41237,24.38959 1.33593,7.31093 2.29058,14.79139 4.01363,22.01011 0.36672,1.54368 0.24156,5.83863 1.47564,6.83206 1.57751,1.27005 5.78031,0.60379 7.68381,0.60379 h 20.6648 z"
     id="path557" />
  <path
     style="fill:#e7e0da;stroke:none;stroke-width:0.294226"
     d="m 127.14929,548.98005 v 0.29744 h 437.16238 c -2.91928,-1.25219 -7.88755,-0.29744 -11.06004,-0.29744 h -25.90376 -89.64448 z"
     id="path584" />
</svg>
